G04 #@! TF.GenerationSoftware,KiCad,Pcbnew,5.1.9*
G04 #@! TF.CreationDate,2021-02-09T21:20:18+01:00*
G04 #@! TF.ProjectId,matrix_ws2812bmini_caps,6d617472-6978-45f7-9773-32383132626d,1*
G04 #@! TF.SameCoordinates,Original*
G04 #@! TF.FileFunction,Legend,Top*
G04 #@! TF.FilePolarity,Positive*
%FSLAX46Y46*%
G04 Gerber Fmt 4.6, Leading zero omitted, Abs format (unit mm)*
G04 Created by KiCad (PCBNEW 5.1.9) date 2021-02-09 21:20:18*
%MOMM*%
%LPD*%
G01*
G04 APERTURE LIST*
%ADD10R,1.000000X0.850000*%
%ADD11R,0.850000X1.000000*%
G04 APERTURE END LIST*
%LPC*%
D10*
X3400000Y-2875000D03*
X3400000Y-1125000D03*
X600000Y-2875000D03*
X600000Y-1125000D03*
D11*
X5125000Y-3400000D03*
X6875000Y-3400000D03*
X5125000Y-600000D03*
X6875000Y-600000D03*
D10*
X8600000Y-1125000D03*
X8600000Y-2875000D03*
X11400000Y-1125000D03*
X11400000Y-2875000D03*
D11*
X13125000Y-3400000D03*
X14875000Y-3400000D03*
X13125000Y-600000D03*
X14875000Y-600000D03*
D10*
X16600000Y-1125000D03*
X16600000Y-2875000D03*
X19400000Y-1125000D03*
X19400000Y-2875000D03*
D11*
X22875000Y-600000D03*
X21125000Y-600000D03*
X22875000Y-3400000D03*
X21125000Y-3400000D03*
D10*
X27400000Y-2875000D03*
X27400000Y-1125000D03*
X24600000Y-2875000D03*
X24600000Y-1125000D03*
D11*
X29125000Y-3400000D03*
X30875000Y-3400000D03*
X29125000Y-600000D03*
X30875000Y-600000D03*
D10*
X31400000Y-6875000D03*
X31400000Y-5125000D03*
X28600000Y-6875000D03*
X28600000Y-5125000D03*
D11*
X25125000Y-7400000D03*
X26875000Y-7400000D03*
X25125000Y-4600000D03*
X26875000Y-4600000D03*
D10*
X23400000Y-6875000D03*
X23400000Y-5125000D03*
X20600000Y-6875000D03*
X20600000Y-5125000D03*
D11*
X17125000Y-7400000D03*
X18875000Y-7400000D03*
X17125000Y-4600000D03*
X18875000Y-4600000D03*
D10*
X15400000Y-6875000D03*
X15400000Y-5125000D03*
X12600000Y-6875000D03*
X12600000Y-5125000D03*
D11*
X9125000Y-7400000D03*
X10875000Y-7400000D03*
X9125000Y-4600000D03*
X10875000Y-4600000D03*
D10*
X7400000Y-6875000D03*
X7400000Y-5125000D03*
X4600000Y-6875000D03*
X4600000Y-5125000D03*
D11*
X1125000Y-7400000D03*
X2875000Y-7400000D03*
X1125000Y-4600000D03*
X2875000Y-4600000D03*
D10*
X600000Y-9125000D03*
X600000Y-10875000D03*
X3400000Y-9125000D03*
X3400000Y-10875000D03*
D11*
X5125000Y-11400000D03*
X6875000Y-11400000D03*
X5125000Y-8600000D03*
X6875000Y-8600000D03*
D10*
X11400000Y-10875000D03*
X11400000Y-9125000D03*
X8600000Y-10875000D03*
X8600000Y-9125000D03*
D11*
X14875000Y-8600000D03*
X13125000Y-8600000D03*
X14875000Y-11400000D03*
X13125000Y-11400000D03*
D10*
X16600000Y-9125000D03*
X16600000Y-10875000D03*
X19400000Y-9125000D03*
X19400000Y-10875000D03*
D11*
X22875000Y-8600000D03*
X21125000Y-8600000D03*
X22875000Y-11400000D03*
X21125000Y-11400000D03*
D10*
X24600000Y-9125000D03*
X24600000Y-10875000D03*
X27400000Y-9125000D03*
X27400000Y-10875000D03*
D11*
X30875000Y-8600000D03*
X29125000Y-8600000D03*
X30875000Y-11400000D03*
X29125000Y-11400000D03*
D10*
X31400000Y-14875000D03*
X31400000Y-13125000D03*
X28600000Y-14875000D03*
X28600000Y-13125000D03*
D11*
X25125000Y-15400000D03*
X26875000Y-15400000D03*
X25125000Y-12600000D03*
X26875000Y-12600000D03*
D10*
X23400000Y-14875000D03*
X23400000Y-13125000D03*
X20600000Y-14875000D03*
X20600000Y-13125000D03*
D11*
X17125000Y-15400000D03*
X18875000Y-15400000D03*
X17125000Y-12600000D03*
X18875000Y-12600000D03*
D10*
X15400000Y-14875000D03*
X15400000Y-13125000D03*
X12600000Y-14875000D03*
X12600000Y-13125000D03*
D11*
X10875000Y-12600000D03*
X9125000Y-12600000D03*
X10875000Y-15400000D03*
X9125000Y-15400000D03*
D10*
X4600000Y-13125000D03*
X4600000Y-14875000D03*
X7400000Y-13125000D03*
X7400000Y-14875000D03*
D11*
X2875000Y-12600000D03*
X1125000Y-12600000D03*
X2875000Y-15400000D03*
X1125000Y-15400000D03*
D10*
X600000Y-17125000D03*
X600000Y-18875000D03*
X3400000Y-17125000D03*
X3400000Y-18875000D03*
D11*
X6875000Y-16600000D03*
X5125000Y-16600000D03*
X6875000Y-19400000D03*
X5125000Y-19400000D03*
D10*
X8600000Y-17125000D03*
X8600000Y-18875000D03*
X11400000Y-17125000D03*
X11400000Y-18875000D03*
D11*
X14875000Y-16600000D03*
X13125000Y-16600000D03*
X14875000Y-19400000D03*
X13125000Y-19400000D03*
D10*
X16600000Y-17125000D03*
X16600000Y-18875000D03*
X19400000Y-17125000D03*
X19400000Y-18875000D03*
D11*
X22875000Y-16600000D03*
X21125000Y-16600000D03*
X22875000Y-19400000D03*
X21125000Y-19400000D03*
D10*
X24600000Y-17125000D03*
X24600000Y-18875000D03*
X27400000Y-17125000D03*
X27400000Y-18875000D03*
D11*
X29125000Y-19400000D03*
X30875000Y-19400000D03*
X29125000Y-16600000D03*
X30875000Y-16600000D03*
D10*
X31400000Y-22875000D03*
X31400000Y-21125000D03*
X28600000Y-22875000D03*
X28600000Y-21125000D03*
D11*
X25125000Y-23400000D03*
X26875000Y-23400000D03*
X25125000Y-20600000D03*
X26875000Y-20600000D03*
D10*
X23400000Y-22875000D03*
X23400000Y-21125000D03*
X20600000Y-22875000D03*
X20600000Y-21125000D03*
D11*
X17125000Y-23400000D03*
X18875000Y-23400000D03*
X17125000Y-20600000D03*
X18875000Y-20600000D03*
D10*
X15400000Y-22875000D03*
X15400000Y-21125000D03*
X12600000Y-22875000D03*
X12600000Y-21125000D03*
D11*
X9125000Y-23400000D03*
X10875000Y-23400000D03*
X9125000Y-20600000D03*
X10875000Y-20600000D03*
D10*
X7400000Y-22875000D03*
X7400000Y-21125000D03*
X4600000Y-22875000D03*
X4600000Y-21125000D03*
D11*
X1125000Y-23400000D03*
X2875000Y-23400000D03*
X1125000Y-20600000D03*
X2875000Y-20600000D03*
D10*
X3400000Y-26875000D03*
X3400000Y-25125000D03*
X600000Y-26875000D03*
X600000Y-25125000D03*
D11*
X6875000Y-24600000D03*
X5125000Y-24600000D03*
X6875000Y-27400000D03*
X5125000Y-27400000D03*
D10*
X8600000Y-25125000D03*
X8600000Y-26875000D03*
X11400000Y-25125000D03*
X11400000Y-26875000D03*
D11*
X14875000Y-24600000D03*
X13125000Y-24600000D03*
X14875000Y-27400000D03*
X13125000Y-27400000D03*
D10*
X19400000Y-26875000D03*
X19400000Y-25125000D03*
X16600000Y-26875000D03*
X16600000Y-25125000D03*
D11*
X22875000Y-24600000D03*
X21125000Y-24600000D03*
X22875000Y-27400000D03*
X21125000Y-27400000D03*
D10*
X24600000Y-25125000D03*
X24600000Y-26875000D03*
X27400000Y-25125000D03*
X27400000Y-26875000D03*
D11*
X30875000Y-24600000D03*
X29125000Y-24600000D03*
X30875000Y-27400000D03*
X29125000Y-27400000D03*
D10*
X28600000Y-29125000D03*
X28600000Y-30875000D03*
X31400000Y-29125000D03*
X31400000Y-30875000D03*
D11*
X26875000Y-28600000D03*
X25125000Y-28600000D03*
X26875000Y-31400000D03*
X25125000Y-31400000D03*
D10*
X20600000Y-29125000D03*
X20600000Y-30875000D03*
X23400000Y-29125000D03*
X23400000Y-30875000D03*
D11*
X17125000Y-31400000D03*
X18875000Y-31400000D03*
X17125000Y-28600000D03*
X18875000Y-28600000D03*
D10*
X15400000Y-30875000D03*
X15400000Y-29125000D03*
X12600000Y-30875000D03*
X12600000Y-29125000D03*
D11*
X9125000Y-31400000D03*
X10875000Y-31400000D03*
X9125000Y-28600000D03*
X10875000Y-28600000D03*
D10*
X7400000Y-30875000D03*
X7400000Y-29125000D03*
X4600000Y-30875000D03*
X4600000Y-29125000D03*
D11*
X1125000Y-31400000D03*
X2875000Y-31400000D03*
X1125000Y-28600000D03*
X2875000Y-28600000D03*
M02*
