G04 #@! TF.GenerationSoftware,KiCad,Pcbnew,5.1.9*
G04 #@! TF.CreationDate,2021-02-09T21:20:18+01:00*
G04 #@! TF.ProjectId,matrix_ws2812bmini_caps,6d617472-6978-45f7-9773-32383132626d,1*
G04 #@! TF.SameCoordinates,Original*
G04 #@! TF.FileFunction,Copper,L2,Bot*
G04 #@! TF.FilePolarity,Positive*
%FSLAX46Y46*%
G04 Gerber Fmt 4.6, Leading zero omitted, Abs format (unit mm)*
G04 Created by KiCad (PCBNEW 5.1.9) date 2021-02-09 21:20:18*
%MOMM*%
%LPD*%
G01*
G04 APERTURE LIST*
G04 #@! TA.AperFunction,SMDPad,CuDef*
%ADD10R,2.540000X1.524000*%
G04 #@! TD*
G04 #@! TA.AperFunction,ViaPad*
%ADD11C,0.600000*%
G04 #@! TD*
G04 #@! TA.AperFunction,Conductor*
%ADD12C,0.200000*%
G04 #@! TD*
G04 #@! TA.AperFunction,Conductor*
%ADD13C,0.400000*%
G04 #@! TD*
G04 #@! TA.AperFunction,Conductor*
%ADD14C,0.600000*%
G04 #@! TD*
G04 #@! TA.AperFunction,Conductor*
%ADD15C,0.152400*%
G04 #@! TD*
G04 APERTURE END LIST*
D10*
X1400000Y-13460000D03*
X1400000Y-18540000D03*
X1400000Y-16000000D03*
X30600000Y-13440000D03*
X30600000Y-18520000D03*
X30600000Y-15980000D03*
G04 #@! TA.AperFunction,SMDPad,CuDef*
G36*
G01*
X15100000Y-25175000D02*
X15100000Y-24225000D01*
G75*
G02*
X15350000Y-23975000I250000J0D01*
G01*
X15850000Y-23975000D01*
G75*
G02*
X16100000Y-24225000I0J-250000D01*
G01*
X16100000Y-25175000D01*
G75*
G02*
X15850000Y-25425000I-250000J0D01*
G01*
X15350000Y-25425000D01*
G75*
G02*
X15100000Y-25175000I0J250000D01*
G01*
G37*
G04 #@! TD.AperFunction*
G04 #@! TA.AperFunction,SMDPad,CuDef*
G36*
G01*
X13200000Y-25175000D02*
X13200000Y-24225000D01*
G75*
G02*
X13450000Y-23975000I250000J0D01*
G01*
X13950000Y-23975000D01*
G75*
G02*
X14200000Y-24225000I0J-250000D01*
G01*
X14200000Y-25175000D01*
G75*
G02*
X13950000Y-25425000I-250000J0D01*
G01*
X13450000Y-25425000D01*
G75*
G02*
X13200000Y-25175000I0J250000D01*
G01*
G37*
G04 #@! TD.AperFunction*
G04 #@! TA.AperFunction,SMDPad,CuDef*
G36*
G01*
X5265001Y-7449999D02*
X5265001Y-6499999D01*
G75*
G02*
X5515001Y-6249999I250000J0D01*
G01*
X6015001Y-6249999D01*
G75*
G02*
X6265001Y-6499999I0J-250000D01*
G01*
X6265001Y-7449999D01*
G75*
G02*
X6015001Y-7699999I-250000J0D01*
G01*
X5515001Y-7699999D01*
G75*
G02*
X5265001Y-7449999I0J250000D01*
G01*
G37*
G04 #@! TD.AperFunction*
G04 #@! TA.AperFunction,SMDPad,CuDef*
G36*
G01*
X7165001Y-7449999D02*
X7165001Y-6499999D01*
G75*
G02*
X7415001Y-6249999I250000J0D01*
G01*
X7915001Y-6249999D01*
G75*
G02*
X8165001Y-6499999I0J-250000D01*
G01*
X8165001Y-7449999D01*
G75*
G02*
X7915001Y-7699999I-250000J0D01*
G01*
X7415001Y-7699999D01*
G75*
G02*
X7165001Y-7449999I0J250000D01*
G01*
G37*
G04 #@! TD.AperFunction*
G04 #@! TA.AperFunction,SMDPad,CuDef*
G36*
G01*
X14432500Y-16459999D02*
X14432500Y-15509999D01*
G75*
G02*
X14682500Y-15259999I250000J0D01*
G01*
X15182500Y-15259999D01*
G75*
G02*
X15432500Y-15509999I0J-250000D01*
G01*
X15432500Y-16459999D01*
G75*
G02*
X15182500Y-16709999I-250000J0D01*
G01*
X14682500Y-16709999D01*
G75*
G02*
X14432500Y-16459999I0J250000D01*
G01*
G37*
G04 #@! TD.AperFunction*
G04 #@! TA.AperFunction,SMDPad,CuDef*
G36*
G01*
X16332500Y-16459999D02*
X16332500Y-15509999D01*
G75*
G02*
X16582500Y-15259999I250000J0D01*
G01*
X17082500Y-15259999D01*
G75*
G02*
X17332500Y-15509999I0J-250000D01*
G01*
X17332500Y-16459999D01*
G75*
G02*
X17082500Y-16709999I-250000J0D01*
G01*
X16582500Y-16709999D01*
G75*
G02*
X16332500Y-16459999I0J250000D01*
G01*
G37*
G04 #@! TD.AperFunction*
G04 #@! TA.AperFunction,SMDPad,CuDef*
G36*
G01*
X23600000Y-26275000D02*
X23600000Y-25325000D01*
G75*
G02*
X23850000Y-25075000I250000J0D01*
G01*
X24350000Y-25075000D01*
G75*
G02*
X24600000Y-25325000I0J-250000D01*
G01*
X24600000Y-26275000D01*
G75*
G02*
X24350000Y-26525000I-250000J0D01*
G01*
X23850000Y-26525000D01*
G75*
G02*
X23600000Y-26275000I0J250000D01*
G01*
G37*
G04 #@! TD.AperFunction*
G04 #@! TA.AperFunction,SMDPad,CuDef*
G36*
G01*
X25500000Y-26275000D02*
X25500000Y-25325000D01*
G75*
G02*
X25750000Y-25075000I250000J0D01*
G01*
X26250000Y-25075000D01*
G75*
G02*
X26500000Y-25325000I0J-250000D01*
G01*
X26500000Y-26275000D01*
G75*
G02*
X26250000Y-26525000I-250000J0D01*
G01*
X25750000Y-26525000D01*
G75*
G02*
X25500000Y-26275000I0J250000D01*
G01*
G37*
G04 #@! TD.AperFunction*
G04 #@! TA.AperFunction,SMDPad,CuDef*
G36*
G01*
X5265001Y-25469999D02*
X5265001Y-24519999D01*
G75*
G02*
X5515001Y-24269999I250000J0D01*
G01*
X6015001Y-24269999D01*
G75*
G02*
X6265001Y-24519999I0J-250000D01*
G01*
X6265001Y-25469999D01*
G75*
G02*
X6015001Y-25719999I-250000J0D01*
G01*
X5515001Y-25719999D01*
G75*
G02*
X5265001Y-25469999I0J250000D01*
G01*
G37*
G04 #@! TD.AperFunction*
G04 #@! TA.AperFunction,SMDPad,CuDef*
G36*
G01*
X7165001Y-25469999D02*
X7165001Y-24519999D01*
G75*
G02*
X7415001Y-24269999I250000J0D01*
G01*
X7915001Y-24269999D01*
G75*
G02*
X8165001Y-24519999I0J-250000D01*
G01*
X8165001Y-25469999D01*
G75*
G02*
X7915001Y-25719999I-250000J0D01*
G01*
X7415001Y-25719999D01*
G75*
G02*
X7165001Y-25469999I0J250000D01*
G01*
G37*
G04 #@! TD.AperFunction*
G04 #@! TA.AperFunction,SMDPad,CuDef*
G36*
G01*
X16307500Y-7449999D02*
X16307500Y-6499999D01*
G75*
G02*
X16557500Y-6249999I250000J0D01*
G01*
X17057500Y-6249999D01*
G75*
G02*
X17307500Y-6499999I0J-250000D01*
G01*
X17307500Y-7449999D01*
G75*
G02*
X17057500Y-7699999I-250000J0D01*
G01*
X16557500Y-7699999D01*
G75*
G02*
X16307500Y-7449999I0J250000D01*
G01*
G37*
G04 #@! TD.AperFunction*
G04 #@! TA.AperFunction,SMDPad,CuDef*
G36*
G01*
X14407500Y-7449999D02*
X14407500Y-6499999D01*
G75*
G02*
X14657500Y-6249999I250000J0D01*
G01*
X15157500Y-6249999D01*
G75*
G02*
X15407500Y-6499999I0J-250000D01*
G01*
X15407500Y-7449999D01*
G75*
G02*
X15157500Y-7699999I-250000J0D01*
G01*
X14657500Y-7699999D01*
G75*
G02*
X14407500Y-7449999I0J250000D01*
G01*
G37*
G04 #@! TD.AperFunction*
G04 #@! TA.AperFunction,SMDPad,CuDef*
G36*
G01*
X25500000Y-16475000D02*
X25500000Y-15525000D01*
G75*
G02*
X25750000Y-15275000I250000J0D01*
G01*
X26250000Y-15275000D01*
G75*
G02*
X26500000Y-15525000I0J-250000D01*
G01*
X26500000Y-16475000D01*
G75*
G02*
X26250000Y-16725000I-250000J0D01*
G01*
X25750000Y-16725000D01*
G75*
G02*
X25500000Y-16475000I0J250000D01*
G01*
G37*
G04 #@! TD.AperFunction*
G04 #@! TA.AperFunction,SMDPad,CuDef*
G36*
G01*
X23600000Y-16475000D02*
X23600000Y-15525000D01*
G75*
G02*
X23850000Y-15275000I250000J0D01*
G01*
X24350000Y-15275000D01*
G75*
G02*
X24600000Y-15525000I0J-250000D01*
G01*
X24600000Y-16475000D01*
G75*
G02*
X24350000Y-16725000I-250000J0D01*
G01*
X23850000Y-16725000D01*
G75*
G02*
X23600000Y-16475000I0J250000D01*
G01*
G37*
G04 #@! TD.AperFunction*
G04 #@! TA.AperFunction,SMDPad,CuDef*
G36*
G01*
X23550000Y-7475000D02*
X23550000Y-6525000D01*
G75*
G02*
X23800000Y-6275000I250000J0D01*
G01*
X24300000Y-6275000D01*
G75*
G02*
X24550000Y-6525000I0J-250000D01*
G01*
X24550000Y-7475000D01*
G75*
G02*
X24300000Y-7725000I-250000J0D01*
G01*
X23800000Y-7725000D01*
G75*
G02*
X23550000Y-7475000I0J250000D01*
G01*
G37*
G04 #@! TD.AperFunction*
G04 #@! TA.AperFunction,SMDPad,CuDef*
G36*
G01*
X25450000Y-7475000D02*
X25450000Y-6525000D01*
G75*
G02*
X25700000Y-6275000I250000J0D01*
G01*
X26200000Y-6275000D01*
G75*
G02*
X26450000Y-6525000I0J-250000D01*
G01*
X26450000Y-7475000D01*
G75*
G02*
X26200000Y-7725000I-250000J0D01*
G01*
X25700000Y-7725000D01*
G75*
G02*
X25450000Y-7475000I0J250000D01*
G01*
G37*
G04 #@! TD.AperFunction*
G04 #@! TA.AperFunction,SMDPad,CuDef*
G36*
G01*
X7300000Y-16775000D02*
X7300000Y-15825000D01*
G75*
G02*
X7550000Y-15575000I250000J0D01*
G01*
X8050000Y-15575000D01*
G75*
G02*
X8300000Y-15825000I0J-250000D01*
G01*
X8300000Y-16775000D01*
G75*
G02*
X8050000Y-17025000I-250000J0D01*
G01*
X7550000Y-17025000D01*
G75*
G02*
X7300000Y-16775000I0J250000D01*
G01*
G37*
G04 #@! TD.AperFunction*
G04 #@! TA.AperFunction,SMDPad,CuDef*
G36*
G01*
X5400000Y-16775000D02*
X5400000Y-15825000D01*
G75*
G02*
X5650000Y-15575000I250000J0D01*
G01*
X6150000Y-15575000D01*
G75*
G02*
X6400000Y-15825000I0J-250000D01*
G01*
X6400000Y-16775000D01*
G75*
G02*
X6150000Y-17025000I-250000J0D01*
G01*
X5650000Y-17025000D01*
G75*
G02*
X5400000Y-16775000I0J250000D01*
G01*
G37*
G04 #@! TD.AperFunction*
D11*
X6875000Y-9575000D03*
X30875000Y-9575000D03*
X26500000Y-10900000D03*
X2500000Y-10900000D03*
X22875000Y-9575000D03*
X9900000Y-11500000D03*
X14875000Y-9575000D03*
X18500000Y-10900000D03*
X6875000Y-17575000D03*
X26500000Y-18900000D03*
X22875000Y-17575000D03*
X9900000Y-19500000D03*
X14875000Y-17575000D03*
X18500000Y-18900000D03*
X6875000Y-25575000D03*
X30875000Y-25575000D03*
X26500000Y-26900000D03*
X2500000Y-26900000D03*
X22875000Y-25575000D03*
X9900000Y-27500000D03*
X14875000Y-25575000D03*
X18500000Y-26900000D03*
X30475000Y-30875000D03*
X22475000Y-30875000D03*
X14475000Y-30875000D03*
X6875000Y-1575000D03*
X2500000Y-2900000D03*
X14875000Y-1575000D03*
X22875000Y-1575000D03*
X18500000Y-2900000D03*
X26500000Y-2900000D03*
X30875000Y-1575000D03*
X9900000Y-3500000D03*
X6475000Y-30875000D03*
X3400000Y-19800000D03*
X2400000Y-1100000D03*
X13300000Y-18300000D03*
X13000000Y-10200000D03*
X2000000Y-14700000D03*
X1700000Y-26900000D03*
X2000000Y-25000000D03*
X26000000Y-24700000D03*
X22100000Y-28700000D03*
X22100000Y-29500000D03*
X28000000Y-23900000D03*
X30400000Y-14800000D03*
X1600000Y-1100000D03*
X1700000Y-3400000D03*
X10000000Y-800000D03*
X5800000Y-2000000D03*
X2000000Y-8900000D03*
X6000000Y-13100000D03*
X6000000Y-14900000D03*
X10000000Y-16500000D03*
X9800000Y-13800000D03*
X12700000Y-2100000D03*
X17700000Y-3400000D03*
X17900000Y-700000D03*
X9800000Y-5900000D03*
X22000000Y-5000000D03*
X22000000Y-6700000D03*
X26100000Y-700000D03*
X29900000Y-4900000D03*
X29800000Y-2100000D03*
X12000000Y-12000000D03*
X18000000Y-16800000D03*
X14000000Y-20800000D03*
X14000000Y-23200000D03*
X22000000Y-20700000D03*
X29900000Y-10100000D03*
X2200000Y-22300000D03*
X5600000Y-22100000D03*
X5765001Y-5465001D03*
X14000000Y-5300000D03*
X24500000Y-14500000D03*
X29600000Y-14600000D03*
X19550000Y-29600000D03*
X17950000Y-27600000D03*
X21950000Y-27450000D03*
X2500000Y-30500000D03*
X20972999Y-26272999D03*
X22000000Y-22200000D03*
D12*
X2400000Y-1100000D02*
X2400000Y-1100000D01*
D13*
X1400000Y-18540000D02*
X1667001Y-18272999D01*
X13300000Y-18300000D02*
X13300000Y-18300000D01*
D14*
X1400000Y-19902000D02*
X2698000Y-21200000D01*
X1400000Y-18540000D02*
X1400000Y-19902000D01*
X10400000Y-21200000D02*
X13300000Y-18300000D01*
X2698000Y-21200000D02*
X10400000Y-21200000D01*
D13*
X1700000Y-25300000D02*
X2000000Y-25000000D01*
X1700000Y-26900000D02*
X1700000Y-25300000D01*
D14*
X22100000Y-29500000D02*
X22100000Y-28700000D01*
X22100000Y-28700000D02*
X22100000Y-28600000D01*
X27200000Y-24700000D02*
X28000000Y-23900000D01*
X26000000Y-24700000D02*
X27200000Y-24700000D01*
X30600000Y-15980000D02*
X30600000Y-15000000D01*
X30600000Y-15000000D02*
X30400000Y-14800000D01*
X30400000Y-14800000D02*
X30400000Y-14800000D01*
X26000000Y-25800000D02*
X26000000Y-24700000D01*
X26000000Y-26400000D02*
X26500000Y-26900000D01*
X26000000Y-25800000D02*
X26000000Y-26400000D01*
X3227001Y-1927001D02*
X2400000Y-1100000D01*
X3227001Y-7002963D02*
X3227001Y-1927001D01*
X6724037Y-10499999D02*
X3227001Y-7002963D01*
X12700001Y-10499999D02*
X6724037Y-10499999D01*
X13000000Y-10200000D02*
X12700001Y-10499999D01*
X1600000Y-3300000D02*
X1700000Y-3400000D01*
X1600000Y-1100000D02*
X1600000Y-3300000D01*
X1900000Y-14000000D02*
X5100000Y-14000000D01*
X4560000Y-13460000D02*
X6000000Y-14900000D01*
X1400000Y-13460000D02*
X4560000Y-13460000D01*
X6000000Y-14900000D02*
X6000000Y-13100000D01*
X6000000Y-14900000D02*
X6000000Y-14400000D01*
X6000000Y-14400000D02*
X5600000Y-14000000D01*
X5600000Y-14000000D02*
X5100000Y-13500000D01*
X1600001Y-9299999D02*
X2000000Y-8900000D01*
X1600001Y-13700001D02*
X1600001Y-9299999D01*
X1900000Y-14000000D02*
X1600001Y-13700001D01*
X5640000Y-13460000D02*
X5650000Y-13450000D01*
X4560000Y-13460000D02*
X5640000Y-13460000D01*
X5650000Y-13450000D02*
X6000000Y-13100000D01*
X5100000Y-14000000D02*
X5650000Y-13450000D01*
X8400000Y-14900000D02*
X10000000Y-16500000D01*
X6000000Y-14900000D02*
X8400000Y-14900000D01*
X9800000Y-5000000D02*
X12700000Y-2100000D01*
X9800000Y-5900000D02*
X9800000Y-5000000D01*
X21000000Y-6700000D02*
X22000000Y-6700000D01*
X17700000Y-3400000D02*
X21000000Y-6700000D01*
X17900000Y-900000D02*
X22000000Y-5000000D01*
X17900000Y-700000D02*
X17900000Y-900000D01*
X28400000Y-700000D02*
X29800000Y-2100000D01*
X26100000Y-700000D02*
X28400000Y-700000D01*
X29800000Y-4800000D02*
X29900000Y-4900000D01*
X29800000Y-2100000D02*
X29800000Y-4800000D01*
X10200000Y-13800000D02*
X12000000Y-12000000D01*
X9800000Y-13800000D02*
X10200000Y-13800000D01*
X19500000Y-23200000D02*
X22000000Y-20700000D01*
X14000000Y-23200000D02*
X19500000Y-23200000D01*
X30600000Y-10800000D02*
X29900000Y-10100000D01*
X30600000Y-13440000D02*
X30600000Y-10800000D01*
X28730000Y-13440000D02*
X28000000Y-14170000D01*
X30600000Y-13440000D02*
X28730000Y-13440000D01*
X2000000Y-14060000D02*
X1400000Y-13460000D01*
X2000000Y-14700000D02*
X2000000Y-14060000D01*
X5400000Y-22300000D02*
X5600000Y-22100000D01*
X2200000Y-22300000D02*
X5400000Y-22300000D01*
X13700000Y-23500000D02*
X14000000Y-23200000D01*
X13700000Y-24700000D02*
X13700000Y-23500000D01*
X16084510Y-18715490D02*
X15950000Y-18850000D01*
X16084510Y-17137009D02*
X16084510Y-18715490D01*
X14932500Y-15984999D02*
X16084510Y-17137009D01*
X15950000Y-18850000D02*
X18000000Y-16800000D01*
X14000000Y-20800000D02*
X15950000Y-18850000D01*
X5900000Y-15000000D02*
X6000000Y-14900000D01*
X5900000Y-16300000D02*
X5900000Y-15000000D01*
X2005001Y-24994999D02*
X2000000Y-25000000D01*
X5765001Y-24994999D02*
X2005001Y-24994999D01*
X5765001Y-6974999D02*
X5765001Y-5465001D01*
X5765001Y-5465001D02*
X5765001Y-5465001D01*
X14907500Y-6974999D02*
X14907500Y-6207500D01*
X14907500Y-6207500D02*
X14000000Y-5300000D01*
X14000000Y-5300000D02*
X14000000Y-5300000D01*
X22300000Y-7000000D02*
X22000000Y-6700000D01*
X24050000Y-7000000D02*
X22300000Y-7000000D01*
X24100000Y-16000000D02*
X24100000Y-14900000D01*
X24100000Y-14900000D02*
X24500000Y-14500000D01*
X24500000Y-14500000D02*
X24500000Y-14500000D01*
X24830000Y-14170000D02*
X24500000Y-14500000D01*
X28000000Y-14170000D02*
X24830000Y-14170000D01*
X30600000Y-13440000D02*
X30260000Y-13440000D01*
X29600000Y-14440000D02*
X30600000Y-13440000D01*
X29600000Y-14600000D02*
X29600000Y-14440000D01*
X19550000Y-29200000D02*
X17950000Y-27600000D01*
X19550000Y-29600000D02*
X19550000Y-29200000D01*
X8497999Y-2302001D02*
X10000000Y-800000D01*
X6102001Y-2302001D02*
X8497999Y-2302001D01*
X5800000Y-2000000D02*
X6102001Y-2302001D01*
X6917011Y-8127009D02*
X5765001Y-6974999D01*
X13755490Y-8127009D02*
X6917011Y-8127009D01*
X14907500Y-6974999D02*
X13755490Y-8127009D01*
X12842989Y-23842989D02*
X13700000Y-24700000D01*
X6917011Y-23842989D02*
X12842989Y-23842989D01*
X5765001Y-24994999D02*
X6917011Y-23842989D01*
X24100000Y-25800000D02*
X22450000Y-27450000D01*
X22450000Y-27450000D02*
X21950000Y-27450000D01*
X21950000Y-27450000D02*
X21950000Y-27450000D01*
D13*
X6727001Y-26272999D02*
X20972999Y-26272999D01*
X2500000Y-30500000D02*
X6727001Y-26272999D01*
X20972999Y-26272999D02*
X20972999Y-26272999D01*
X26920000Y-22200000D02*
X30600000Y-18520000D01*
X22000000Y-22200000D02*
X26920000Y-22200000D01*
D12*
X9617522Y-333950D02*
X9596577Y-354895D01*
X8249472Y-1702001D01*
X6350528Y-1702001D01*
X6266052Y-1617525D01*
X6266050Y-1617522D01*
X6182478Y-1533950D01*
X6157842Y-1517489D01*
X6134954Y-1498705D01*
X6108843Y-1484748D01*
X6084207Y-1468287D01*
X6056834Y-1456949D01*
X6030721Y-1442991D01*
X6002384Y-1434395D01*
X5975014Y-1423058D01*
X5945958Y-1417278D01*
X5917620Y-1408682D01*
X5888149Y-1405779D01*
X5859095Y-1400000D01*
X5829474Y-1400000D01*
X5800000Y-1397097D01*
X5770526Y-1400000D01*
X5740905Y-1400000D01*
X5711851Y-1405779D01*
X5682380Y-1408682D01*
X5654042Y-1417278D01*
X5624986Y-1423058D01*
X5597616Y-1434395D01*
X5569279Y-1442991D01*
X5543166Y-1456949D01*
X5515793Y-1468287D01*
X5491157Y-1484748D01*
X5465046Y-1498705D01*
X5442159Y-1517488D01*
X5417522Y-1533950D01*
X5396571Y-1554901D01*
X5373684Y-1573684D01*
X5354901Y-1596571D01*
X5333950Y-1617522D01*
X5317488Y-1642159D01*
X5298705Y-1665046D01*
X5284748Y-1691157D01*
X5268287Y-1715793D01*
X5256949Y-1743166D01*
X5242991Y-1769279D01*
X5234395Y-1797616D01*
X5223058Y-1824986D01*
X5217278Y-1854042D01*
X5208682Y-1882380D01*
X5205779Y-1911851D01*
X5200000Y-1940905D01*
X5200000Y-1970526D01*
X5197097Y-2000000D01*
X5200000Y-2029474D01*
X5200000Y-2059095D01*
X5205779Y-2088149D01*
X5208682Y-2117620D01*
X5217278Y-2145958D01*
X5223058Y-2175014D01*
X5234395Y-2202384D01*
X5242991Y-2230721D01*
X5256949Y-2256834D01*
X5268287Y-2284207D01*
X5284748Y-2308843D01*
X5298705Y-2334954D01*
X5317489Y-2357842D01*
X5333950Y-2382478D01*
X5417522Y-2466050D01*
X5417525Y-2466052D01*
X5656888Y-2705415D01*
X5675684Y-2728318D01*
X5767046Y-2803297D01*
X5871280Y-2859011D01*
X5984380Y-2893319D01*
X6102001Y-2904904D01*
X6131475Y-2902001D01*
X8468525Y-2902001D01*
X8497999Y-2904904D01*
X8527473Y-2902001D01*
X8615620Y-2893319D01*
X8728720Y-2859011D01*
X8832954Y-2803297D01*
X8924316Y-2728318D01*
X8943112Y-2705415D01*
X10445105Y-1203423D01*
X10466050Y-1182478D01*
X10482508Y-1157848D01*
X10501295Y-1134955D01*
X10515255Y-1108839D01*
X10531713Y-1084207D01*
X10543049Y-1056839D01*
X10557009Y-1030722D01*
X10565606Y-1002382D01*
X10576942Y-975014D01*
X10582721Y-945961D01*
X10591318Y-917621D01*
X10594221Y-888148D01*
X10600000Y-859095D01*
X10600000Y-829475D01*
X10602903Y-800001D01*
X10600000Y-770527D01*
X10600000Y-740905D01*
X10594221Y-711851D01*
X10591318Y-682380D01*
X10582722Y-654042D01*
X10576942Y-624986D01*
X10565605Y-597616D01*
X10557009Y-569279D01*
X10543051Y-543166D01*
X10531713Y-515793D01*
X10515252Y-491157D01*
X10501295Y-465046D01*
X10482512Y-442159D01*
X10466050Y-417522D01*
X10445099Y-396571D01*
X10426316Y-373684D01*
X10403429Y-354901D01*
X10382478Y-333950D01*
X10360179Y-319050D01*
X17432929Y-319050D01*
X17417494Y-342151D01*
X17398704Y-365046D01*
X17384744Y-391164D01*
X17368287Y-415793D01*
X17356951Y-443161D01*
X17342990Y-469280D01*
X17334393Y-497620D01*
X17323058Y-524986D01*
X17317279Y-554040D01*
X17308682Y-582380D01*
X17305779Y-611851D01*
X17300000Y-640905D01*
X17300000Y-870526D01*
X17297097Y-900000D01*
X17300000Y-929473D01*
X17300000Y-929474D01*
X17308682Y-1017621D01*
X17342990Y-1130721D01*
X17398705Y-1234955D01*
X17473684Y-1326317D01*
X17496582Y-1345109D01*
X21533950Y-5382478D01*
X21617522Y-5466050D01*
X21642152Y-5482508D01*
X21665045Y-5501295D01*
X21691162Y-5515255D01*
X21715793Y-5531713D01*
X21743158Y-5543048D01*
X21769279Y-5557010D01*
X21797625Y-5565609D01*
X21824986Y-5576942D01*
X21854030Y-5582719D01*
X21882379Y-5591319D01*
X21911859Y-5594222D01*
X21940905Y-5600000D01*
X21970524Y-5600000D01*
X22000000Y-5602903D01*
X22029476Y-5600000D01*
X22059095Y-5600000D01*
X22088141Y-5594222D01*
X22117621Y-5591319D01*
X22145970Y-5582719D01*
X22175014Y-5576942D01*
X22202375Y-5565609D01*
X22230721Y-5557010D01*
X22256840Y-5543049D01*
X22284207Y-5531713D01*
X22308841Y-5515253D01*
X22334954Y-5501295D01*
X22357844Y-5482510D01*
X22382478Y-5466050D01*
X22403423Y-5445105D01*
X22426317Y-5426317D01*
X22445106Y-5403422D01*
X22466050Y-5382478D01*
X22482510Y-5357844D01*
X22501295Y-5334954D01*
X22515253Y-5308841D01*
X22531713Y-5284207D01*
X22543049Y-5256840D01*
X22557010Y-5230721D01*
X22565609Y-5202375D01*
X22576942Y-5175014D01*
X22582719Y-5145970D01*
X22591319Y-5117621D01*
X22594222Y-5088141D01*
X22600000Y-5059095D01*
X22600000Y-5029476D01*
X22602903Y-5000000D01*
X22600000Y-4970524D01*
X22600000Y-4940905D01*
X22594222Y-4911859D01*
X22591319Y-4882379D01*
X22582719Y-4854030D01*
X22576942Y-4824986D01*
X22565609Y-4797625D01*
X22557010Y-4769279D01*
X22543048Y-4743158D01*
X22531713Y-4715793D01*
X22515255Y-4691162D01*
X22501295Y-4665045D01*
X22482508Y-4642152D01*
X22466050Y-4617522D01*
X22382478Y-4533950D01*
X18500000Y-651473D01*
X18500000Y-640905D01*
X18494221Y-611852D01*
X18491318Y-582379D01*
X18482721Y-554037D01*
X18476942Y-524986D01*
X18465608Y-497623D01*
X18457010Y-469279D01*
X18443047Y-443156D01*
X18431713Y-415793D01*
X18415259Y-391168D01*
X18401296Y-365045D01*
X18382504Y-342147D01*
X18367071Y-319050D01*
X25632929Y-319050D01*
X25617496Y-342147D01*
X25598704Y-365045D01*
X25584741Y-391168D01*
X25568287Y-415793D01*
X25556953Y-443156D01*
X25542990Y-469279D01*
X25534392Y-497623D01*
X25523058Y-524986D01*
X25517279Y-554037D01*
X25508682Y-582379D01*
X25505779Y-611852D01*
X25500000Y-640905D01*
X25500000Y-670526D01*
X25497097Y-700000D01*
X25500000Y-729474D01*
X25500000Y-759095D01*
X25505779Y-788148D01*
X25508682Y-817621D01*
X25517279Y-845963D01*
X25523058Y-875014D01*
X25534392Y-902377D01*
X25542990Y-930721D01*
X25556953Y-956844D01*
X25568287Y-984207D01*
X25584741Y-1008832D01*
X25598704Y-1034955D01*
X25617496Y-1057853D01*
X25633950Y-1082478D01*
X25654891Y-1103419D01*
X25673683Y-1126317D01*
X25696581Y-1145109D01*
X25717522Y-1166050D01*
X25742147Y-1182504D01*
X25765045Y-1201296D01*
X25791168Y-1215259D01*
X25815793Y-1231713D01*
X25843156Y-1243047D01*
X25869279Y-1257010D01*
X25897623Y-1265608D01*
X25924986Y-1276942D01*
X25954037Y-1282721D01*
X25982379Y-1291318D01*
X26011852Y-1294221D01*
X26040905Y-1300000D01*
X28151473Y-1300000D01*
X29200000Y-2348528D01*
X29200001Y-4770517D01*
X29197097Y-4800000D01*
X29208682Y-4917620D01*
X29223069Y-4965046D01*
X29242991Y-5030721D01*
X29298705Y-5134955D01*
X29373684Y-5226317D01*
X29396580Y-5245107D01*
X29433949Y-5282477D01*
X29517522Y-5366050D01*
X29542156Y-5382510D01*
X29565046Y-5401295D01*
X29591157Y-5415252D01*
X29615793Y-5431713D01*
X29643166Y-5443051D01*
X29669279Y-5457009D01*
X29697616Y-5465605D01*
X29724986Y-5476942D01*
X29754039Y-5482721D01*
X29782379Y-5491318D01*
X29811852Y-5494221D01*
X29840905Y-5500000D01*
X29870525Y-5500000D01*
X29899999Y-5502903D01*
X29929473Y-5500000D01*
X29959095Y-5500000D01*
X29988149Y-5494221D01*
X30017620Y-5491318D01*
X30045958Y-5482722D01*
X30075014Y-5476942D01*
X30102386Y-5465604D01*
X30130720Y-5457009D01*
X30156831Y-5443053D01*
X30184207Y-5431713D01*
X30208844Y-5415251D01*
X30234954Y-5401295D01*
X30257841Y-5382512D01*
X30282478Y-5366050D01*
X30303429Y-5345099D01*
X30326316Y-5326316D01*
X30345099Y-5303429D01*
X30366050Y-5282478D01*
X30382512Y-5257841D01*
X30401295Y-5234954D01*
X30415251Y-5208844D01*
X30431713Y-5184207D01*
X30443053Y-5156831D01*
X30457009Y-5130720D01*
X30465604Y-5102386D01*
X30476942Y-5075014D01*
X30482722Y-5045958D01*
X30491318Y-5017620D01*
X30494221Y-4988149D01*
X30500000Y-4959095D01*
X30500000Y-4929473D01*
X30502903Y-4899999D01*
X30500000Y-4870525D01*
X30500000Y-4840905D01*
X30494221Y-4811852D01*
X30491318Y-4782379D01*
X30482721Y-4754039D01*
X30476942Y-4724986D01*
X30465605Y-4697616D01*
X30457009Y-4669279D01*
X30443051Y-4643166D01*
X30431713Y-4615793D01*
X30415252Y-4591157D01*
X30401295Y-4565046D01*
X30400000Y-4563468D01*
X30400000Y-2129474D01*
X30402903Y-2100000D01*
X30400000Y-2070526D01*
X30400000Y-2040905D01*
X30394221Y-2011852D01*
X30391318Y-1982379D01*
X30382721Y-1954039D01*
X30376942Y-1924986D01*
X30365608Y-1897623D01*
X30357010Y-1869279D01*
X30343047Y-1843156D01*
X30331713Y-1815793D01*
X30315259Y-1791168D01*
X30301296Y-1765045D01*
X30282504Y-1742147D01*
X30266050Y-1717522D01*
X30245109Y-1696581D01*
X30226317Y-1673683D01*
X30203420Y-1654892D01*
X30182478Y-1633950D01*
X28867577Y-319050D01*
X31680951Y-319050D01*
X31680951Y-12376549D01*
X31200000Y-12376549D01*
X31200000Y-10829465D01*
X31202902Y-10799999D01*
X31200000Y-10770533D01*
X31200000Y-10770526D01*
X31191318Y-10682379D01*
X31157010Y-10569279D01*
X31101296Y-10465045D01*
X31026317Y-10373683D01*
X31003419Y-10354891D01*
X30366052Y-9717525D01*
X30366050Y-9717522D01*
X30282478Y-9633950D01*
X30257842Y-9617489D01*
X30234954Y-9598705D01*
X30208843Y-9584748D01*
X30184207Y-9568287D01*
X30156834Y-9556949D01*
X30130721Y-9542991D01*
X30102384Y-9534395D01*
X30075014Y-9523058D01*
X30045958Y-9517278D01*
X30017620Y-9508682D01*
X29988149Y-9505779D01*
X29959095Y-9500000D01*
X29929474Y-9500000D01*
X29900000Y-9497097D01*
X29870526Y-9500000D01*
X29840905Y-9500000D01*
X29811851Y-9505779D01*
X29782380Y-9508682D01*
X29754042Y-9517278D01*
X29724986Y-9523058D01*
X29697616Y-9534395D01*
X29669279Y-9542991D01*
X29643166Y-9556949D01*
X29615793Y-9568287D01*
X29591157Y-9584748D01*
X29565046Y-9598705D01*
X29542159Y-9617488D01*
X29517522Y-9633950D01*
X29496571Y-9654901D01*
X29473684Y-9673684D01*
X29454901Y-9696571D01*
X29433950Y-9717522D01*
X29417488Y-9742159D01*
X29398705Y-9765046D01*
X29384748Y-9791157D01*
X29368287Y-9815793D01*
X29356949Y-9843166D01*
X29342991Y-9869279D01*
X29334395Y-9897616D01*
X29323058Y-9924986D01*
X29317278Y-9954042D01*
X29308682Y-9982380D01*
X29305779Y-10011851D01*
X29300000Y-10040905D01*
X29300000Y-10070526D01*
X29297097Y-10100000D01*
X29300000Y-10129474D01*
X29300000Y-10159095D01*
X29305779Y-10188149D01*
X29308682Y-10217620D01*
X29317278Y-10245958D01*
X29323058Y-10275014D01*
X29334395Y-10302384D01*
X29342991Y-10330721D01*
X29356949Y-10356834D01*
X29368287Y-10384207D01*
X29384748Y-10408843D01*
X29398705Y-10434954D01*
X29417489Y-10457842D01*
X29433950Y-10482478D01*
X29517522Y-10566050D01*
X29517525Y-10566052D01*
X30000001Y-11048529D01*
X30000000Y-12376549D01*
X29330000Y-12376549D01*
X29271190Y-12382341D01*
X29214640Y-12399496D01*
X29162523Y-12427353D01*
X29116842Y-12464842D01*
X29079353Y-12510523D01*
X29051496Y-12562640D01*
X29034341Y-12619190D01*
X29028549Y-12678000D01*
X29028549Y-12840000D01*
X28759474Y-12840000D01*
X28730000Y-12837097D01*
X28612379Y-12848682D01*
X28499278Y-12882990D01*
X28462971Y-12902397D01*
X28395045Y-12938704D01*
X28303683Y-13013683D01*
X28284891Y-13036581D01*
X27751473Y-13570000D01*
X24859465Y-13570000D01*
X24829999Y-13567098D01*
X24800533Y-13570000D01*
X24800526Y-13570000D01*
X24723640Y-13577573D01*
X24712378Y-13578682D01*
X24678070Y-13589089D01*
X24599279Y-13612990D01*
X24495045Y-13668704D01*
X24403683Y-13743683D01*
X24384887Y-13766586D01*
X24117525Y-14033948D01*
X24117522Y-14033950D01*
X24096581Y-14054891D01*
X24073683Y-14073683D01*
X24054894Y-14096578D01*
X23696581Y-14454892D01*
X23673684Y-14473683D01*
X23598705Y-14565045D01*
X23571580Y-14615793D01*
X23542991Y-14669279D01*
X23508682Y-14782380D01*
X23497097Y-14900000D01*
X23500001Y-14929483D01*
X23500001Y-15102291D01*
X23460065Y-15135065D01*
X23391485Y-15218630D01*
X23340526Y-15313969D01*
X23309145Y-15417417D01*
X23298549Y-15525000D01*
X23298549Y-16475000D01*
X23309145Y-16582583D01*
X23340526Y-16686031D01*
X23391485Y-16781370D01*
X23460065Y-16864935D01*
X23543630Y-16933515D01*
X23638969Y-16984474D01*
X23742417Y-17015855D01*
X23850000Y-17026451D01*
X24350000Y-17026451D01*
X24457583Y-17015855D01*
X24561031Y-16984474D01*
X24656370Y-16933515D01*
X24739935Y-16864935D01*
X24808515Y-16781370D01*
X24838644Y-16725000D01*
X25198548Y-16725000D01*
X25204340Y-16783810D01*
X25221495Y-16840361D01*
X25249352Y-16892478D01*
X25286841Y-16938159D01*
X25332522Y-16975648D01*
X25384639Y-17003505D01*
X25441190Y-17020660D01*
X25500000Y-17026452D01*
X25771000Y-17025000D01*
X25846000Y-16950000D01*
X25846000Y-16154000D01*
X26154000Y-16154000D01*
X26154000Y-16950000D01*
X26229000Y-17025000D01*
X26500000Y-17026452D01*
X26558810Y-17020660D01*
X26615361Y-17003505D01*
X26667478Y-16975648D01*
X26713159Y-16938159D01*
X26750648Y-16892478D01*
X26778505Y-16840361D01*
X26795660Y-16783810D01*
X26799777Y-16742000D01*
X29028548Y-16742000D01*
X29034340Y-16800810D01*
X29051495Y-16857361D01*
X29079352Y-16909478D01*
X29116841Y-16955159D01*
X29162522Y-16992648D01*
X29214639Y-17020505D01*
X29271190Y-17037660D01*
X29330000Y-17043452D01*
X30371000Y-17042000D01*
X30446000Y-16967000D01*
X30446000Y-16134000D01*
X29105000Y-16134000D01*
X29030000Y-16209000D01*
X29028548Y-16742000D01*
X26799777Y-16742000D01*
X26801452Y-16725000D01*
X26800000Y-16229000D01*
X26725000Y-16154000D01*
X26154000Y-16154000D01*
X25846000Y-16154000D01*
X25275000Y-16154000D01*
X25200000Y-16229000D01*
X25198548Y-16725000D01*
X24838644Y-16725000D01*
X24859474Y-16686031D01*
X24890855Y-16582583D01*
X24901451Y-16475000D01*
X24901451Y-15525000D01*
X24890855Y-15417417D01*
X24859474Y-15313969D01*
X24838645Y-15275000D01*
X25198548Y-15275000D01*
X25200000Y-15771000D01*
X25275000Y-15846000D01*
X25846000Y-15846000D01*
X25846000Y-15050000D01*
X26154000Y-15050000D01*
X26154000Y-15846000D01*
X26725000Y-15846000D01*
X26800000Y-15771000D01*
X26801452Y-15275000D01*
X26795660Y-15216190D01*
X26778505Y-15159639D01*
X26750648Y-15107522D01*
X26713159Y-15061841D01*
X26667478Y-15024352D01*
X26615361Y-14996495D01*
X26558810Y-14979340D01*
X26500000Y-14973548D01*
X26229000Y-14975000D01*
X26154000Y-15050000D01*
X25846000Y-15050000D01*
X25771000Y-14975000D01*
X25500000Y-14973548D01*
X25441190Y-14979340D01*
X25384639Y-14996495D01*
X25332522Y-15024352D01*
X25286841Y-15061841D01*
X25249352Y-15107522D01*
X25221495Y-15159639D01*
X25204340Y-15216190D01*
X25198548Y-15275000D01*
X24838645Y-15275000D01*
X24808515Y-15218630D01*
X24739935Y-15135065D01*
X24725395Y-15123132D01*
X24903419Y-14945109D01*
X24926317Y-14926317D01*
X24945109Y-14903419D01*
X24966050Y-14882478D01*
X24966052Y-14882475D01*
X25078527Y-14770000D01*
X27970526Y-14770000D01*
X28000000Y-14772903D01*
X28029474Y-14770000D01*
X28117621Y-14761318D01*
X28230721Y-14727010D01*
X28334955Y-14671296D01*
X28426317Y-14596317D01*
X28445113Y-14573414D01*
X28978528Y-14040000D01*
X29028549Y-14040000D01*
X29028549Y-14202000D01*
X29032630Y-14243433D01*
X29008682Y-14322379D01*
X29006652Y-14342990D01*
X28997097Y-14440000D01*
X29000000Y-14469474D01*
X29000000Y-14659095D01*
X29005779Y-14688149D01*
X29008682Y-14717620D01*
X29017279Y-14745960D01*
X29023058Y-14775014D01*
X29034393Y-14802380D01*
X29042990Y-14830720D01*
X29056951Y-14856839D01*
X29068287Y-14884207D01*
X29084744Y-14908836D01*
X29098704Y-14934954D01*
X29117494Y-14957849D01*
X29133950Y-14982478D01*
X29138521Y-14987049D01*
X29116841Y-15004841D01*
X29079352Y-15050522D01*
X29051495Y-15102639D01*
X29034340Y-15159190D01*
X29028548Y-15218000D01*
X29030000Y-15751000D01*
X29105000Y-15826000D01*
X30446000Y-15826000D01*
X30446000Y-14993000D01*
X30371000Y-14918000D01*
X30110553Y-14917637D01*
X30115259Y-14908832D01*
X30131713Y-14884207D01*
X30143047Y-14856844D01*
X30157010Y-14830721D01*
X30165608Y-14802377D01*
X30176942Y-14775014D01*
X30182721Y-14745963D01*
X30191318Y-14717621D01*
X30193548Y-14694979D01*
X30385076Y-14503451D01*
X31680951Y-14503451D01*
X31680951Y-14916812D01*
X30829000Y-14918000D01*
X30754000Y-14993000D01*
X30754000Y-15826000D01*
X30774000Y-15826000D01*
X30774000Y-16134000D01*
X30754000Y-16134000D01*
X30754000Y-16967000D01*
X30829000Y-17042000D01*
X31680950Y-17043188D01*
X31680950Y-17456549D01*
X29330000Y-17456549D01*
X29271190Y-17462341D01*
X29214640Y-17479496D01*
X29162523Y-17507353D01*
X29116842Y-17544842D01*
X29079353Y-17590523D01*
X29051496Y-17642640D01*
X29034341Y-17699190D01*
X29028549Y-17758000D01*
X29028549Y-19282000D01*
X29034341Y-19340810D01*
X29043126Y-19369768D01*
X26712895Y-21700000D01*
X22331669Y-21700000D01*
X22284207Y-21668287D01*
X22175014Y-21623058D01*
X22059095Y-21600000D01*
X21948528Y-21600000D01*
X22466050Y-21082478D01*
X22482508Y-21057848D01*
X22501295Y-21034955D01*
X22515255Y-21008839D01*
X22531713Y-20984207D01*
X22543049Y-20956839D01*
X22557009Y-20930722D01*
X22565606Y-20902382D01*
X22576942Y-20875014D01*
X22582721Y-20845961D01*
X22591318Y-20817621D01*
X22594221Y-20788148D01*
X22600000Y-20759095D01*
X22600000Y-20729474D01*
X22602903Y-20700000D01*
X22600000Y-20670526D01*
X22600000Y-20640905D01*
X22594221Y-20611851D01*
X22591318Y-20582380D01*
X22582722Y-20554042D01*
X22576942Y-20524986D01*
X22565605Y-20497616D01*
X22557009Y-20469279D01*
X22543051Y-20443166D01*
X22531713Y-20415793D01*
X22515252Y-20391157D01*
X22501295Y-20365046D01*
X22482512Y-20342159D01*
X22466050Y-20317522D01*
X22445099Y-20296571D01*
X22426316Y-20273684D01*
X22403429Y-20254901D01*
X22382478Y-20233950D01*
X22357841Y-20217488D01*
X22334954Y-20198705D01*
X22308843Y-20184748D01*
X22284207Y-20168287D01*
X22256834Y-20156949D01*
X22230721Y-20142991D01*
X22202384Y-20134395D01*
X22175014Y-20123058D01*
X22145958Y-20117278D01*
X22117620Y-20108682D01*
X22088149Y-20105779D01*
X22059095Y-20100000D01*
X22029474Y-20100000D01*
X22000000Y-20097097D01*
X21970526Y-20100000D01*
X21940905Y-20100000D01*
X21911852Y-20105779D01*
X21882379Y-20108682D01*
X21854039Y-20117279D01*
X21824986Y-20123058D01*
X21797618Y-20134394D01*
X21769278Y-20142991D01*
X21743161Y-20156951D01*
X21715793Y-20168287D01*
X21691161Y-20184745D01*
X21665045Y-20198705D01*
X21642152Y-20217492D01*
X21617522Y-20233950D01*
X21596577Y-20254895D01*
X19251473Y-22600000D01*
X14029473Y-22600000D01*
X13999999Y-22597097D01*
X13970525Y-22600000D01*
X13940905Y-22600000D01*
X13911852Y-22605779D01*
X13882379Y-22608682D01*
X13854037Y-22617279D01*
X13824986Y-22623058D01*
X13797623Y-22634392D01*
X13769279Y-22642990D01*
X13743156Y-22656953D01*
X13715793Y-22668287D01*
X13691168Y-22684741D01*
X13665045Y-22698704D01*
X13642147Y-22717496D01*
X13617522Y-22733950D01*
X13596581Y-22754891D01*
X13573683Y-22773683D01*
X13554894Y-22796578D01*
X13533950Y-22817522D01*
X13533948Y-22817525D01*
X13296582Y-23054891D01*
X13273684Y-23073683D01*
X13198705Y-23165045D01*
X13180021Y-23200001D01*
X13142991Y-23269279D01*
X13128966Y-23315514D01*
X13073710Y-23285979D01*
X12960610Y-23251671D01*
X12872463Y-23242989D01*
X12842989Y-23240086D01*
X12813515Y-23242989D01*
X6946484Y-23242989D01*
X6917010Y-23240086D01*
X6799390Y-23251671D01*
X6686290Y-23285979D01*
X6582056Y-23341693D01*
X6490694Y-23416672D01*
X6471902Y-23439570D01*
X5942924Y-23968548D01*
X5515001Y-23968548D01*
X5407418Y-23979144D01*
X5303970Y-24010525D01*
X5208631Y-24061484D01*
X5125066Y-24130064D01*
X5056486Y-24213629D01*
X5005527Y-24308968D01*
X4979429Y-24394999D01*
X2034466Y-24394999D01*
X2005000Y-24392097D01*
X1975534Y-24394999D01*
X1975527Y-24394999D01*
X1887380Y-24403681D01*
X1774280Y-24437989D01*
X1723805Y-24464968D01*
X1715793Y-24468287D01*
X1708583Y-24473105D01*
X1670046Y-24493703D01*
X1636266Y-24521426D01*
X1617522Y-24533950D01*
X1601582Y-24549890D01*
X1578684Y-24568682D01*
X1559895Y-24591577D01*
X1533950Y-24617522D01*
X1517489Y-24642158D01*
X1498705Y-24665046D01*
X1484748Y-24691157D01*
X1468287Y-24715793D01*
X1456949Y-24743166D01*
X1442991Y-24769279D01*
X1434395Y-24797616D01*
X1423058Y-24824986D01*
X1417278Y-24854042D01*
X1408682Y-24882380D01*
X1408482Y-24884413D01*
X1363820Y-24929075D01*
X1344737Y-24944736D01*
X1282255Y-25020871D01*
X1274727Y-25034955D01*
X1235826Y-25107733D01*
X1207235Y-25201983D01*
X1197581Y-25300000D01*
X1200001Y-25324570D01*
X1200000Y-26568331D01*
X1168287Y-26615793D01*
X1123058Y-26724986D01*
X1100000Y-26840905D01*
X1100000Y-26959095D01*
X1123058Y-27075014D01*
X1168287Y-27184207D01*
X1233950Y-27282478D01*
X1317522Y-27366050D01*
X1415793Y-27431713D01*
X1524986Y-27476942D01*
X1640905Y-27500000D01*
X1759095Y-27500000D01*
X1875014Y-27476942D01*
X1984207Y-27431713D01*
X2082478Y-27366050D01*
X2166050Y-27282478D01*
X2231713Y-27184207D01*
X2276942Y-27075014D01*
X2300000Y-26959095D01*
X2300000Y-26840905D01*
X2276942Y-26724986D01*
X2231713Y-26615793D01*
X2200000Y-26568331D01*
X2200000Y-25594999D01*
X4979429Y-25594999D01*
X5005527Y-25681030D01*
X5056486Y-25776369D01*
X5125066Y-25859934D01*
X5208631Y-25928514D01*
X5303970Y-25979473D01*
X5407418Y-26010854D01*
X5515001Y-26021450D01*
X6015001Y-26021450D01*
X6122584Y-26010854D01*
X6226032Y-25979473D01*
X6321371Y-25928514D01*
X6404936Y-25859934D01*
X6473516Y-25776369D01*
X6524475Y-25681030D01*
X6555856Y-25577582D01*
X6566452Y-25469999D01*
X6566452Y-25042075D01*
X6864935Y-24743592D01*
X6865001Y-24765999D01*
X6940001Y-24840999D01*
X7511001Y-24840999D01*
X7511001Y-24820999D01*
X7819001Y-24820999D01*
X7819001Y-24840999D01*
X8390001Y-24840999D01*
X8465001Y-24765999D01*
X8465947Y-24442989D01*
X12594462Y-24442989D01*
X12898549Y-24747077D01*
X12898549Y-25175000D01*
X12909145Y-25282583D01*
X12940526Y-25386031D01*
X12991485Y-25481370D01*
X13060065Y-25564935D01*
X13143630Y-25633515D01*
X13238969Y-25684474D01*
X13342417Y-25715855D01*
X13450000Y-25726451D01*
X13950000Y-25726451D01*
X14057583Y-25715855D01*
X14161031Y-25684474D01*
X14256370Y-25633515D01*
X14339935Y-25564935D01*
X14408515Y-25481370D01*
X14438644Y-25425000D01*
X14798548Y-25425000D01*
X14804340Y-25483810D01*
X14821495Y-25540361D01*
X14849352Y-25592478D01*
X14886841Y-25638159D01*
X14932522Y-25675648D01*
X14984639Y-25703505D01*
X15041190Y-25720660D01*
X15100000Y-25726452D01*
X15371000Y-25725000D01*
X15446000Y-25650000D01*
X15446000Y-24854000D01*
X15754000Y-24854000D01*
X15754000Y-25650000D01*
X15829000Y-25725000D01*
X16100000Y-25726452D01*
X16158810Y-25720660D01*
X16215361Y-25703505D01*
X16267478Y-25675648D01*
X16313159Y-25638159D01*
X16350648Y-25592478D01*
X16378505Y-25540361D01*
X16395660Y-25483810D01*
X16401452Y-25425000D01*
X16400000Y-24929000D01*
X16325000Y-24854000D01*
X15754000Y-24854000D01*
X15446000Y-24854000D01*
X14875000Y-24854000D01*
X14800000Y-24929000D01*
X14798548Y-25425000D01*
X14438644Y-25425000D01*
X14459474Y-25386031D01*
X14490855Y-25282583D01*
X14501451Y-25175000D01*
X14501451Y-24225000D01*
X14490855Y-24117417D01*
X14459474Y-24013969D01*
X14408515Y-23918630D01*
X14339935Y-23835065D01*
X14300000Y-23802291D01*
X14300000Y-23800000D01*
X14855525Y-23800000D01*
X14849352Y-23807522D01*
X14821495Y-23859639D01*
X14804340Y-23916190D01*
X14798548Y-23975000D01*
X14800000Y-24471000D01*
X14875000Y-24546000D01*
X15446000Y-24546000D01*
X15446000Y-24526000D01*
X15754000Y-24526000D01*
X15754000Y-24546000D01*
X16325000Y-24546000D01*
X16400000Y-24471000D01*
X16401452Y-23975000D01*
X16395660Y-23916190D01*
X16378505Y-23859639D01*
X16350648Y-23807522D01*
X16344475Y-23800000D01*
X19470526Y-23800000D01*
X19500000Y-23802903D01*
X19529474Y-23800000D01*
X19617621Y-23791318D01*
X19730721Y-23757010D01*
X19834955Y-23701296D01*
X19926317Y-23626317D01*
X19945113Y-23603414D01*
X21400000Y-22148528D01*
X21400000Y-22259095D01*
X21423058Y-22375014D01*
X21468287Y-22484207D01*
X21533950Y-22582478D01*
X21617522Y-22666050D01*
X21715793Y-22731713D01*
X21824986Y-22776942D01*
X21940905Y-22800000D01*
X22059095Y-22800000D01*
X22175014Y-22776942D01*
X22284207Y-22731713D01*
X22331669Y-22700000D01*
X26895440Y-22700000D01*
X26920000Y-22702419D01*
X26944560Y-22700000D01*
X27018017Y-22692765D01*
X27112267Y-22664175D01*
X27199129Y-22617746D01*
X27275264Y-22555264D01*
X27290929Y-22536176D01*
X30243655Y-19583451D01*
X31680950Y-19583451D01*
X31680950Y-31680950D01*
X319050Y-31680950D01*
X319050Y-30440905D01*
X1900000Y-30440905D01*
X1900000Y-30559095D01*
X1923058Y-30675014D01*
X1968287Y-30784207D01*
X2033950Y-30882478D01*
X2117522Y-30966050D01*
X2215793Y-31031713D01*
X2324986Y-31076942D01*
X2440905Y-31100000D01*
X2559095Y-31100000D01*
X2675014Y-31076942D01*
X2784207Y-31031713D01*
X2882478Y-30966050D01*
X2966050Y-30882478D01*
X3031713Y-30784207D01*
X3076942Y-30675014D01*
X3088079Y-30619026D01*
X6107105Y-27600000D01*
X17347097Y-27600000D01*
X17350000Y-27629474D01*
X17350000Y-27659095D01*
X17355779Y-27688149D01*
X17358682Y-27717620D01*
X17367278Y-27745958D01*
X17373058Y-27775014D01*
X17384395Y-27802384D01*
X17392991Y-27830721D01*
X17406949Y-27856834D01*
X17418287Y-27884207D01*
X17434748Y-27908843D01*
X17448705Y-27934954D01*
X17467489Y-27957842D01*
X17483950Y-27982478D01*
X17567522Y-28066050D01*
X17567525Y-28066052D01*
X18950000Y-29448528D01*
X18950000Y-29659095D01*
X18955779Y-29688149D01*
X18958682Y-29717620D01*
X18967279Y-29745960D01*
X18973058Y-29775014D01*
X18984393Y-29802380D01*
X18992990Y-29830720D01*
X19006951Y-29856839D01*
X19018287Y-29884207D01*
X19034744Y-29908836D01*
X19048704Y-29934954D01*
X19067494Y-29957849D01*
X19083950Y-29982478D01*
X19104892Y-30003420D01*
X19123683Y-30026317D01*
X19146581Y-30045109D01*
X19167522Y-30066050D01*
X19192147Y-30082504D01*
X19215045Y-30101296D01*
X19241168Y-30115259D01*
X19265793Y-30131713D01*
X19293156Y-30143047D01*
X19319279Y-30157010D01*
X19347623Y-30165608D01*
X19374986Y-30176942D01*
X19404037Y-30182721D01*
X19432379Y-30191318D01*
X19461852Y-30194221D01*
X19490905Y-30200000D01*
X19520526Y-30200000D01*
X19550000Y-30202903D01*
X19579474Y-30200000D01*
X19609095Y-30200000D01*
X19638149Y-30194221D01*
X19667620Y-30191318D01*
X19695960Y-30182721D01*
X19725014Y-30176942D01*
X19752380Y-30165607D01*
X19780720Y-30157010D01*
X19806839Y-30143049D01*
X19834207Y-30131713D01*
X19858836Y-30115256D01*
X19884954Y-30101296D01*
X19907849Y-30082506D01*
X19932478Y-30066050D01*
X19953420Y-30045108D01*
X19976317Y-30026317D01*
X19995109Y-30003419D01*
X20016050Y-29982478D01*
X20032504Y-29957853D01*
X20051296Y-29934955D01*
X20065259Y-29908832D01*
X20081713Y-29884207D01*
X20093047Y-29856844D01*
X20107010Y-29830721D01*
X20115608Y-29802377D01*
X20126942Y-29775014D01*
X20132721Y-29745963D01*
X20141318Y-29717621D01*
X20144221Y-29688148D01*
X20150000Y-29659095D01*
X20150000Y-29229474D01*
X20152903Y-29200000D01*
X20141318Y-29082379D01*
X20107010Y-28969279D01*
X20051296Y-28865045D01*
X19976317Y-28773683D01*
X19953419Y-28754891D01*
X18648528Y-27450000D01*
X21347097Y-27450000D01*
X21350000Y-27479474D01*
X21350000Y-27509095D01*
X21355779Y-27538148D01*
X21358682Y-27567621D01*
X21367279Y-27595963D01*
X21373058Y-27625014D01*
X21384392Y-27652377D01*
X21392990Y-27680721D01*
X21406953Y-27706844D01*
X21418287Y-27734207D01*
X21434741Y-27758832D01*
X21448704Y-27784955D01*
X21467496Y-27807853D01*
X21483950Y-27832478D01*
X21504891Y-27853419D01*
X21523683Y-27876317D01*
X21546581Y-27895109D01*
X21567522Y-27916050D01*
X21592147Y-27932504D01*
X21615045Y-27951296D01*
X21641168Y-27965259D01*
X21665793Y-27981713D01*
X21693156Y-27993047D01*
X21719279Y-28007010D01*
X21747623Y-28015608D01*
X21774986Y-28026942D01*
X21804037Y-28032721D01*
X21832379Y-28041318D01*
X21861852Y-28044221D01*
X21890905Y-28050000D01*
X22420526Y-28050000D01*
X22450000Y-28052903D01*
X22479474Y-28050000D01*
X22567621Y-28041318D01*
X22680721Y-28007010D01*
X22784955Y-27951296D01*
X22876317Y-27876317D01*
X22895113Y-27853414D01*
X23922077Y-26826451D01*
X24350000Y-26826451D01*
X24457583Y-26815855D01*
X24561031Y-26784474D01*
X24656370Y-26733515D01*
X24739935Y-26664935D01*
X24808515Y-26581370D01*
X24838644Y-26525000D01*
X25198548Y-26525000D01*
X25204340Y-26583810D01*
X25221495Y-26640361D01*
X25249352Y-26692478D01*
X25286841Y-26738159D01*
X25332522Y-26775648D01*
X25384639Y-26803505D01*
X25441190Y-26820660D01*
X25500000Y-26826452D01*
X25771000Y-26825000D01*
X25846000Y-26750000D01*
X25846000Y-25954000D01*
X26154000Y-25954000D01*
X26154000Y-26750000D01*
X26229000Y-26825000D01*
X26500000Y-26826452D01*
X26558810Y-26820660D01*
X26615361Y-26803505D01*
X26667478Y-26775648D01*
X26713159Y-26738159D01*
X26750648Y-26692478D01*
X26778505Y-26640361D01*
X26795660Y-26583810D01*
X26801452Y-26525000D01*
X26800000Y-26029000D01*
X26725000Y-25954000D01*
X26154000Y-25954000D01*
X25846000Y-25954000D01*
X25275000Y-25954000D01*
X25200000Y-26029000D01*
X25198548Y-26525000D01*
X24838644Y-26525000D01*
X24859474Y-26486031D01*
X24890855Y-26382583D01*
X24901451Y-26275000D01*
X24901451Y-25325000D01*
X24890855Y-25217417D01*
X24859474Y-25113969D01*
X24838645Y-25075000D01*
X25198548Y-25075000D01*
X25200000Y-25571000D01*
X25275000Y-25646000D01*
X25846000Y-25646000D01*
X25846000Y-24850000D01*
X26154000Y-24850000D01*
X26154000Y-25646000D01*
X26725000Y-25646000D01*
X26800000Y-25571000D01*
X26801452Y-25075000D01*
X26795660Y-25016190D01*
X26778505Y-24959639D01*
X26750648Y-24907522D01*
X26713159Y-24861841D01*
X26667478Y-24824352D01*
X26615361Y-24796495D01*
X26558810Y-24779340D01*
X26500000Y-24773548D01*
X26229000Y-24775000D01*
X26154000Y-24850000D01*
X25846000Y-24850000D01*
X25771000Y-24775000D01*
X25500000Y-24773548D01*
X25441190Y-24779340D01*
X25384639Y-24796495D01*
X25332522Y-24824352D01*
X25286841Y-24861841D01*
X25249352Y-24907522D01*
X25221495Y-24959639D01*
X25204340Y-25016190D01*
X25198548Y-25075000D01*
X24838645Y-25075000D01*
X24808515Y-25018630D01*
X24739935Y-24935065D01*
X24656370Y-24866485D01*
X24561031Y-24815526D01*
X24457583Y-24784145D01*
X24350000Y-24773549D01*
X23850000Y-24773549D01*
X23742417Y-24784145D01*
X23638969Y-24815526D01*
X23543630Y-24866485D01*
X23460065Y-24935065D01*
X23391485Y-25018630D01*
X23340526Y-25113969D01*
X23309145Y-25217417D01*
X23298549Y-25325000D01*
X23298549Y-25752922D01*
X22201473Y-26850000D01*
X21890905Y-26850000D01*
X21861852Y-26855779D01*
X21832379Y-26858682D01*
X21804037Y-26867279D01*
X21774986Y-26873058D01*
X21747623Y-26884392D01*
X21719279Y-26892990D01*
X21693156Y-26906953D01*
X21665793Y-26918287D01*
X21641168Y-26934741D01*
X21615045Y-26948704D01*
X21592147Y-26967496D01*
X21567522Y-26983950D01*
X21546581Y-27004891D01*
X21523683Y-27023683D01*
X21504894Y-27046578D01*
X21483950Y-27067522D01*
X21467496Y-27092147D01*
X21448704Y-27115045D01*
X21434741Y-27141168D01*
X21418287Y-27165793D01*
X21406953Y-27193156D01*
X21392990Y-27219279D01*
X21384392Y-27247623D01*
X21373058Y-27274986D01*
X21367279Y-27304037D01*
X21358682Y-27332379D01*
X21355779Y-27361852D01*
X21350000Y-27390905D01*
X21350000Y-27420526D01*
X21347097Y-27450000D01*
X18648528Y-27450000D01*
X18416052Y-27217525D01*
X18416050Y-27217522D01*
X18332478Y-27133950D01*
X18307842Y-27117489D01*
X18284954Y-27098705D01*
X18258843Y-27084748D01*
X18234207Y-27068287D01*
X18206834Y-27056949D01*
X18180721Y-27042991D01*
X18152384Y-27034395D01*
X18125014Y-27023058D01*
X18095958Y-27017278D01*
X18067620Y-27008682D01*
X18038149Y-27005779D01*
X18009095Y-27000000D01*
X17979474Y-27000000D01*
X17950000Y-26997097D01*
X17920526Y-27000000D01*
X17890905Y-27000000D01*
X17861851Y-27005779D01*
X17832380Y-27008682D01*
X17804042Y-27017278D01*
X17774986Y-27023058D01*
X17747616Y-27034395D01*
X17719279Y-27042991D01*
X17693166Y-27056949D01*
X17665793Y-27068287D01*
X17641157Y-27084748D01*
X17615046Y-27098705D01*
X17592159Y-27117488D01*
X17567522Y-27133950D01*
X17546571Y-27154901D01*
X17523684Y-27173684D01*
X17504901Y-27196571D01*
X17483950Y-27217522D01*
X17467488Y-27242159D01*
X17448705Y-27265046D01*
X17434748Y-27291157D01*
X17418287Y-27315793D01*
X17406949Y-27343166D01*
X17392991Y-27369279D01*
X17384395Y-27397616D01*
X17373058Y-27424986D01*
X17367278Y-27454042D01*
X17358682Y-27482380D01*
X17355779Y-27511851D01*
X17350000Y-27540905D01*
X17350000Y-27570526D01*
X17347097Y-27600000D01*
X6107105Y-27600000D01*
X6934107Y-26772999D01*
X20641330Y-26772999D01*
X20688792Y-26804712D01*
X20797985Y-26849941D01*
X20913904Y-26872999D01*
X21032094Y-26872999D01*
X21148013Y-26849941D01*
X21257206Y-26804712D01*
X21355477Y-26739049D01*
X21439049Y-26655477D01*
X21504712Y-26557206D01*
X21549941Y-26448013D01*
X21572999Y-26332094D01*
X21572999Y-26213904D01*
X21549941Y-26097985D01*
X21504712Y-25988792D01*
X21439049Y-25890521D01*
X21355477Y-25806949D01*
X21257206Y-25741286D01*
X21148013Y-25696057D01*
X21032094Y-25672999D01*
X20913904Y-25672999D01*
X20797985Y-25696057D01*
X20688792Y-25741286D01*
X20641330Y-25772999D01*
X8461233Y-25772999D01*
X8466453Y-25719999D01*
X8465001Y-25223999D01*
X8390001Y-25148999D01*
X7819001Y-25148999D01*
X7819001Y-25168999D01*
X7511001Y-25168999D01*
X7511001Y-25148999D01*
X6940001Y-25148999D01*
X6865001Y-25223999D01*
X6863549Y-25719999D01*
X6868769Y-25772999D01*
X6751558Y-25772999D01*
X6727000Y-25770580D01*
X6702442Y-25772999D01*
X6702441Y-25772999D01*
X6628984Y-25780234D01*
X6534734Y-25808824D01*
X6447872Y-25855253D01*
X6371737Y-25917735D01*
X6356076Y-25936818D01*
X2380974Y-29911921D01*
X2324986Y-29923058D01*
X2215793Y-29968287D01*
X2117522Y-30033950D01*
X2033950Y-30117522D01*
X1968287Y-30215793D01*
X1923058Y-30324986D01*
X1900000Y-30440905D01*
X319050Y-30440905D01*
X319050Y-19603451D01*
X800001Y-19603451D01*
X800001Y-19872517D01*
X797097Y-19902000D01*
X808682Y-20019620D01*
X832185Y-20097097D01*
X842991Y-20132721D01*
X898705Y-20236955D01*
X973684Y-20328317D01*
X996581Y-20347109D01*
X2252891Y-21603419D01*
X2271683Y-21626317D01*
X2361466Y-21700000D01*
X2140905Y-21700000D01*
X2111852Y-21705779D01*
X2082379Y-21708682D01*
X2054037Y-21717279D01*
X2024986Y-21723058D01*
X1997623Y-21734392D01*
X1969279Y-21742990D01*
X1943156Y-21756953D01*
X1915793Y-21768287D01*
X1891168Y-21784741D01*
X1865045Y-21798704D01*
X1842147Y-21817496D01*
X1817522Y-21833950D01*
X1796581Y-21854891D01*
X1773683Y-21873683D01*
X1754894Y-21896578D01*
X1733950Y-21917522D01*
X1717496Y-21942147D01*
X1698704Y-21965045D01*
X1684741Y-21991168D01*
X1668287Y-22015793D01*
X1656953Y-22043156D01*
X1642990Y-22069279D01*
X1634392Y-22097623D01*
X1623058Y-22124986D01*
X1617279Y-22154037D01*
X1608682Y-22182379D01*
X1605779Y-22211852D01*
X1600000Y-22240905D01*
X1600000Y-22270526D01*
X1597097Y-22300000D01*
X1600000Y-22329474D01*
X1600000Y-22359095D01*
X1605779Y-22388148D01*
X1608682Y-22417621D01*
X1617279Y-22445963D01*
X1623058Y-22475014D01*
X1634392Y-22502377D01*
X1642990Y-22530721D01*
X1656953Y-22556844D01*
X1668287Y-22584207D01*
X1684741Y-22608832D01*
X1698704Y-22634955D01*
X1717496Y-22657853D01*
X1733950Y-22682478D01*
X1754891Y-22703419D01*
X1773683Y-22726317D01*
X1796581Y-22745109D01*
X1817522Y-22766050D01*
X1842147Y-22782504D01*
X1865045Y-22801296D01*
X1891168Y-22815259D01*
X1915793Y-22831713D01*
X1943156Y-22843047D01*
X1969279Y-22857010D01*
X1997623Y-22865608D01*
X2024986Y-22876942D01*
X2054037Y-22882721D01*
X2082379Y-22891318D01*
X2111852Y-22894221D01*
X2140905Y-22900000D01*
X5370526Y-22900000D01*
X5400000Y-22902903D01*
X5429474Y-22900000D01*
X5517621Y-22891318D01*
X5630721Y-22857010D01*
X5734955Y-22801296D01*
X5826317Y-22726317D01*
X5845113Y-22703414D01*
X5982475Y-22566052D01*
X5982478Y-22566050D01*
X6066050Y-22482478D01*
X6082511Y-22457842D01*
X6101295Y-22434954D01*
X6115252Y-22408842D01*
X6131713Y-22384207D01*
X6143050Y-22356837D01*
X6157010Y-22330720D01*
X6165607Y-22302379D01*
X6176942Y-22275014D01*
X6182721Y-22245962D01*
X6191318Y-22217621D01*
X6194221Y-22188148D01*
X6200000Y-22159095D01*
X6200000Y-22129474D01*
X6202903Y-22100000D01*
X6200000Y-22070526D01*
X6200000Y-22040905D01*
X6194221Y-22011852D01*
X6191318Y-21982379D01*
X6182721Y-21954037D01*
X6176942Y-21924986D01*
X6165608Y-21897623D01*
X6157010Y-21869279D01*
X6143049Y-21843160D01*
X6131713Y-21815793D01*
X6121160Y-21800000D01*
X10370526Y-21800000D01*
X10400000Y-21802903D01*
X10429474Y-21800000D01*
X10517621Y-21791318D01*
X10630721Y-21757010D01*
X10734955Y-21701296D01*
X10826317Y-21626317D01*
X10845113Y-21603414D01*
X11648527Y-20800000D01*
X13397097Y-20800000D01*
X13400000Y-20829474D01*
X13400000Y-20859095D01*
X13405779Y-20888149D01*
X13408682Y-20917620D01*
X13417278Y-20945958D01*
X13423058Y-20975014D01*
X13434395Y-21002384D01*
X13442991Y-21030721D01*
X13456949Y-21056834D01*
X13468287Y-21084207D01*
X13484748Y-21108843D01*
X13498705Y-21134954D01*
X13517488Y-21157841D01*
X13533950Y-21182478D01*
X13554901Y-21203429D01*
X13573684Y-21226316D01*
X13596571Y-21245099D01*
X13617522Y-21266050D01*
X13642159Y-21282512D01*
X13665046Y-21301295D01*
X13691157Y-21315252D01*
X13715793Y-21331713D01*
X13743166Y-21343051D01*
X13769279Y-21357009D01*
X13797616Y-21365605D01*
X13824986Y-21376942D01*
X13854042Y-21382722D01*
X13882380Y-21391318D01*
X13911851Y-21394221D01*
X13940905Y-21400000D01*
X13970526Y-21400000D01*
X14000000Y-21402903D01*
X14029474Y-21400000D01*
X14059095Y-21400000D01*
X14088149Y-21394221D01*
X14117620Y-21391318D01*
X14145958Y-21382722D01*
X14175014Y-21376942D01*
X14202384Y-21365605D01*
X14230721Y-21357009D01*
X14256834Y-21343051D01*
X14284207Y-21331713D01*
X14308843Y-21315252D01*
X14334954Y-21301295D01*
X14357842Y-21282511D01*
X14382478Y-21266050D01*
X14466050Y-21182478D01*
X14466052Y-21182475D01*
X16395105Y-19253424D01*
X16395114Y-19253413D01*
X16487924Y-19160603D01*
X16510827Y-19141807D01*
X16529623Y-19118904D01*
X18445105Y-17203423D01*
X18466050Y-17182478D01*
X18482508Y-17157848D01*
X18501295Y-17134955D01*
X18515256Y-17108837D01*
X18531713Y-17084207D01*
X18543047Y-17056845D01*
X18557010Y-17030722D01*
X18565609Y-17002375D01*
X18576942Y-16975014D01*
X18582721Y-16945964D01*
X18591318Y-16917621D01*
X18594221Y-16888148D01*
X18600000Y-16859095D01*
X18600000Y-16829474D01*
X18602903Y-16800000D01*
X18600000Y-16770526D01*
X18600000Y-16740905D01*
X18594221Y-16711851D01*
X18591318Y-16682380D01*
X18582721Y-16654039D01*
X18576942Y-16624986D01*
X18565608Y-16597622D01*
X18557010Y-16569279D01*
X18543049Y-16543160D01*
X18531713Y-16515793D01*
X18515253Y-16491159D01*
X18501295Y-16465046D01*
X18482512Y-16442159D01*
X18466050Y-16417522D01*
X18445099Y-16396571D01*
X18426316Y-16373684D01*
X18403429Y-16354901D01*
X18382478Y-16333950D01*
X18357841Y-16317488D01*
X18334954Y-16298705D01*
X18308841Y-16284747D01*
X18284207Y-16268287D01*
X18256840Y-16256951D01*
X18230721Y-16242990D01*
X18202378Y-16234392D01*
X18175014Y-16223058D01*
X18145961Y-16217279D01*
X18117620Y-16208682D01*
X18088149Y-16205779D01*
X18059095Y-16200000D01*
X18029474Y-16200000D01*
X18000000Y-16197097D01*
X17970526Y-16200000D01*
X17940905Y-16200000D01*
X17911852Y-16205779D01*
X17882379Y-16208682D01*
X17854036Y-16217279D01*
X17824986Y-16223058D01*
X17797625Y-16234391D01*
X17769278Y-16242990D01*
X17743155Y-16256953D01*
X17715793Y-16268287D01*
X17691163Y-16284744D01*
X17665045Y-16298705D01*
X17642152Y-16317492D01*
X17632821Y-16323727D01*
X17632500Y-16213999D01*
X17557500Y-16138999D01*
X16986500Y-16138999D01*
X16986500Y-16934999D01*
X17001487Y-16949986D01*
X16684510Y-17266962D01*
X16684510Y-17166482D01*
X16687413Y-17137008D01*
X16675828Y-17019388D01*
X16670206Y-17000854D01*
X16656809Y-16956690D01*
X16678500Y-16934999D01*
X16678500Y-16138999D01*
X16107500Y-16138999D01*
X16032500Y-16213999D01*
X16032434Y-16236406D01*
X15733951Y-15937923D01*
X15733951Y-15509999D01*
X15723355Y-15402416D01*
X15691974Y-15298968D01*
X15671145Y-15259999D01*
X16031048Y-15259999D01*
X16032500Y-15755999D01*
X16107500Y-15830999D01*
X16678500Y-15830999D01*
X16678500Y-15034999D01*
X16986500Y-15034999D01*
X16986500Y-15830999D01*
X17557500Y-15830999D01*
X17632500Y-15755999D01*
X17633952Y-15259999D01*
X17628160Y-15201189D01*
X17611005Y-15144638D01*
X17583148Y-15092521D01*
X17545659Y-15046840D01*
X17499978Y-15009351D01*
X17447861Y-14981494D01*
X17391310Y-14964339D01*
X17332500Y-14958547D01*
X17061500Y-14959999D01*
X16986500Y-15034999D01*
X16678500Y-15034999D01*
X16603500Y-14959999D01*
X16332500Y-14958547D01*
X16273690Y-14964339D01*
X16217139Y-14981494D01*
X16165022Y-15009351D01*
X16119341Y-15046840D01*
X16081852Y-15092521D01*
X16053995Y-15144638D01*
X16036840Y-15201189D01*
X16031048Y-15259999D01*
X15671145Y-15259999D01*
X15641015Y-15203629D01*
X15572435Y-15120064D01*
X15488870Y-15051484D01*
X15393531Y-15000525D01*
X15290083Y-14969144D01*
X15182500Y-14958548D01*
X14682500Y-14958548D01*
X14574917Y-14969144D01*
X14471469Y-15000525D01*
X14376130Y-15051484D01*
X14292565Y-15120064D01*
X14223985Y-15203629D01*
X14173026Y-15298968D01*
X14141645Y-15402416D01*
X14131049Y-15509999D01*
X14131049Y-16459999D01*
X14141645Y-16567582D01*
X14173026Y-16671030D01*
X14223985Y-16766369D01*
X14292565Y-16849934D01*
X14376130Y-16918514D01*
X14471469Y-16969473D01*
X14574917Y-17000854D01*
X14682500Y-17011450D01*
X15110423Y-17011450D01*
X15484510Y-17385537D01*
X15484511Y-18466960D01*
X13617525Y-20333948D01*
X13617522Y-20333950D01*
X13533950Y-20417522D01*
X13517489Y-20442158D01*
X13498705Y-20465046D01*
X13484748Y-20491157D01*
X13468287Y-20515793D01*
X13456949Y-20543166D01*
X13442991Y-20569279D01*
X13434395Y-20597616D01*
X13423058Y-20624986D01*
X13417278Y-20654042D01*
X13408682Y-20682380D01*
X13405779Y-20711851D01*
X13400000Y-20740905D01*
X13400000Y-20770526D01*
X13397097Y-20800000D01*
X11648527Y-20800000D01*
X13745105Y-18703424D01*
X13745110Y-18703418D01*
X13766050Y-18682478D01*
X13782506Y-18657849D01*
X13801295Y-18634955D01*
X13815255Y-18608839D01*
X13831713Y-18584207D01*
X13843049Y-18556839D01*
X13857009Y-18530722D01*
X13865606Y-18502381D01*
X13876942Y-18475014D01*
X13882721Y-18445964D01*
X13891318Y-18417622D01*
X13894221Y-18388147D01*
X13900000Y-18359095D01*
X13900000Y-18329475D01*
X13902903Y-18300001D01*
X13900000Y-18270527D01*
X13900000Y-18240905D01*
X13894221Y-18211851D01*
X13891318Y-18182380D01*
X13882722Y-18154042D01*
X13876942Y-18124986D01*
X13865604Y-18097614D01*
X13857009Y-18069280D01*
X13843053Y-18043169D01*
X13831713Y-18015793D01*
X13815251Y-17991156D01*
X13801295Y-17965046D01*
X13782512Y-17942159D01*
X13766050Y-17917522D01*
X13745099Y-17896571D01*
X13726316Y-17873684D01*
X13703429Y-17854901D01*
X13682478Y-17833950D01*
X13657841Y-17817488D01*
X13634954Y-17798705D01*
X13608844Y-17784749D01*
X13584207Y-17768287D01*
X13556831Y-17756947D01*
X13530720Y-17742991D01*
X13502386Y-17734396D01*
X13475014Y-17723058D01*
X13445958Y-17717278D01*
X13417620Y-17708682D01*
X13388149Y-17705779D01*
X13359095Y-17700000D01*
X13329473Y-17700000D01*
X13299999Y-17697097D01*
X13270525Y-17700000D01*
X13240905Y-17700000D01*
X13211853Y-17705779D01*
X13182378Y-17708682D01*
X13154036Y-17717279D01*
X13124986Y-17723058D01*
X13097619Y-17734394D01*
X13069278Y-17742991D01*
X13043161Y-17756951D01*
X13015793Y-17768287D01*
X12991161Y-17784745D01*
X12965045Y-17798705D01*
X12942151Y-17817494D01*
X12917522Y-17833950D01*
X12896582Y-17854890D01*
X12896576Y-17854895D01*
X10151473Y-20600000D01*
X2946528Y-20600000D01*
X2000000Y-19653473D01*
X2000000Y-19603451D01*
X2670000Y-19603451D01*
X2728810Y-19597659D01*
X2785360Y-19580504D01*
X2837477Y-19552647D01*
X2883158Y-19515158D01*
X2920647Y-19469477D01*
X2948504Y-19417360D01*
X2965659Y-19360810D01*
X2971451Y-19302000D01*
X2971451Y-17778000D01*
X2965659Y-17719190D01*
X2948504Y-17662640D01*
X2920647Y-17610523D01*
X2883158Y-17564842D01*
X2837477Y-17527353D01*
X2785360Y-17499496D01*
X2728810Y-17482341D01*
X2670000Y-17476549D01*
X319050Y-17476549D01*
X319050Y-17063188D01*
X1171000Y-17062000D01*
X1246000Y-16987000D01*
X1246000Y-16154000D01*
X1554000Y-16154000D01*
X1554000Y-16987000D01*
X1629000Y-17062000D01*
X2670000Y-17063452D01*
X2728810Y-17057660D01*
X2785361Y-17040505D01*
X2837478Y-17012648D01*
X2883159Y-16975159D01*
X2920648Y-16929478D01*
X2948505Y-16877361D01*
X2965660Y-16820810D01*
X2971452Y-16762000D01*
X2970000Y-16229000D01*
X2895000Y-16154000D01*
X1554000Y-16154000D01*
X1246000Y-16154000D01*
X1226000Y-16154000D01*
X1226000Y-15846000D01*
X1246000Y-15846000D01*
X1246000Y-15013000D01*
X1171000Y-14938000D01*
X319050Y-14936812D01*
X319050Y-14523451D01*
X1400000Y-14523451D01*
X1400000Y-14759095D01*
X1405779Y-14788149D01*
X1408682Y-14817620D01*
X1417279Y-14845960D01*
X1423058Y-14875014D01*
X1434393Y-14902380D01*
X1442990Y-14930720D01*
X1456951Y-14956839D01*
X1468287Y-14984207D01*
X1484744Y-15008836D01*
X1498704Y-15034954D01*
X1517494Y-15057849D01*
X1533950Y-15082478D01*
X1554000Y-15102528D01*
X1554000Y-15846000D01*
X2895000Y-15846000D01*
X2970000Y-15771000D01*
X2971452Y-15238000D01*
X2965660Y-15179190D01*
X2948505Y-15122639D01*
X2920648Y-15070522D01*
X2883159Y-15024841D01*
X2837478Y-14987352D01*
X2785361Y-14959495D01*
X2728810Y-14942340D01*
X2670000Y-14936548D01*
X2553809Y-14936710D01*
X2557010Y-14930721D01*
X2565608Y-14902377D01*
X2576942Y-14875014D01*
X2582721Y-14845963D01*
X2591318Y-14817621D01*
X2594221Y-14788148D01*
X2600000Y-14759095D01*
X2600000Y-14600000D01*
X4851473Y-14600000D01*
X5300001Y-15048529D01*
X5300001Y-15402291D01*
X5260065Y-15435065D01*
X5191485Y-15518630D01*
X5140526Y-15613969D01*
X5109145Y-15717417D01*
X5098549Y-15825000D01*
X5098549Y-16775000D01*
X5109145Y-16882583D01*
X5140526Y-16986031D01*
X5191485Y-17081370D01*
X5260065Y-17164935D01*
X5343630Y-17233515D01*
X5438969Y-17284474D01*
X5542417Y-17315855D01*
X5650000Y-17326451D01*
X6150000Y-17326451D01*
X6257583Y-17315855D01*
X6361031Y-17284474D01*
X6456370Y-17233515D01*
X6539935Y-17164935D01*
X6608515Y-17081370D01*
X6638644Y-17025000D01*
X6998548Y-17025000D01*
X7004340Y-17083810D01*
X7021495Y-17140361D01*
X7049352Y-17192478D01*
X7086841Y-17238159D01*
X7132522Y-17275648D01*
X7184639Y-17303505D01*
X7241190Y-17320660D01*
X7300000Y-17326452D01*
X7571000Y-17325000D01*
X7646000Y-17250000D01*
X7646000Y-16454000D01*
X7954000Y-16454000D01*
X7954000Y-17250000D01*
X8029000Y-17325000D01*
X8300000Y-17326452D01*
X8358810Y-17320660D01*
X8415361Y-17303505D01*
X8467478Y-17275648D01*
X8513159Y-17238159D01*
X8550648Y-17192478D01*
X8578505Y-17140361D01*
X8595660Y-17083810D01*
X8601452Y-17025000D01*
X8600000Y-16529000D01*
X8525000Y-16454000D01*
X7954000Y-16454000D01*
X7646000Y-16454000D01*
X7075000Y-16454000D01*
X7000000Y-16529000D01*
X6998548Y-17025000D01*
X6638644Y-17025000D01*
X6659474Y-16986031D01*
X6690855Y-16882583D01*
X6701451Y-16775000D01*
X6701451Y-15825000D01*
X6690855Y-15717417D01*
X6659474Y-15613969D01*
X6608515Y-15518630D01*
X6593226Y-15500000D01*
X7009251Y-15500000D01*
X7004340Y-15516190D01*
X6998548Y-15575000D01*
X7000000Y-16071000D01*
X7075000Y-16146000D01*
X7646000Y-16146000D01*
X7646000Y-16126000D01*
X7954000Y-16126000D01*
X7954000Y-16146000D01*
X8525000Y-16146000D01*
X8600000Y-16071000D01*
X8600357Y-15948885D01*
X9617522Y-16966050D01*
X9642152Y-16982508D01*
X9665045Y-17001295D01*
X9691162Y-17015255D01*
X9715793Y-17031713D01*
X9743158Y-17043048D01*
X9769279Y-17057010D01*
X9797623Y-17065608D01*
X9824986Y-17076942D01*
X9854037Y-17082721D01*
X9882379Y-17091318D01*
X9911852Y-17094221D01*
X9940905Y-17100000D01*
X9970526Y-17100000D01*
X10000000Y-17102903D01*
X10029474Y-17100000D01*
X10059095Y-17100000D01*
X10088148Y-17094221D01*
X10117621Y-17091318D01*
X10145963Y-17082721D01*
X10175014Y-17076942D01*
X10202377Y-17065608D01*
X10230721Y-17057010D01*
X10256840Y-17043049D01*
X10284207Y-17031713D01*
X10308841Y-17015253D01*
X10334954Y-17001295D01*
X10357844Y-16982510D01*
X10382478Y-16966050D01*
X10403423Y-16945105D01*
X10426317Y-16926317D01*
X10445106Y-16903422D01*
X10466050Y-16882478D01*
X10482510Y-16857844D01*
X10501295Y-16834954D01*
X10515253Y-16808841D01*
X10531713Y-16784207D01*
X10543049Y-16756840D01*
X10557010Y-16730721D01*
X10565608Y-16702377D01*
X10576942Y-16675014D01*
X10582721Y-16645963D01*
X10591318Y-16617621D01*
X10594221Y-16588148D01*
X10600000Y-16559095D01*
X10600000Y-16529474D01*
X10602903Y-16500000D01*
X10600000Y-16470526D01*
X10600000Y-16440905D01*
X10594221Y-16411852D01*
X10591318Y-16382379D01*
X10582721Y-16354037D01*
X10576942Y-16324986D01*
X10565608Y-16297623D01*
X10557010Y-16269279D01*
X10543048Y-16243158D01*
X10531713Y-16215793D01*
X10515255Y-16191162D01*
X10501295Y-16165045D01*
X10482508Y-16142152D01*
X10466050Y-16117522D01*
X10382478Y-16033950D01*
X8845113Y-14496586D01*
X8826317Y-14473683D01*
X8734955Y-14398704D01*
X8630721Y-14342990D01*
X8517621Y-14308682D01*
X8429474Y-14300000D01*
X8400000Y-14297097D01*
X8370526Y-14300000D01*
X6600000Y-14300000D01*
X6600000Y-13800000D01*
X9197097Y-13800000D01*
X9200000Y-13829474D01*
X9200000Y-13859095D01*
X9205779Y-13888148D01*
X9208682Y-13917621D01*
X9217279Y-13945963D01*
X9223058Y-13975014D01*
X9234392Y-14002377D01*
X9242990Y-14030721D01*
X9256953Y-14056844D01*
X9268287Y-14084207D01*
X9284741Y-14108832D01*
X9298704Y-14134955D01*
X9317496Y-14157853D01*
X9333950Y-14182478D01*
X9354891Y-14203419D01*
X9373683Y-14226317D01*
X9396581Y-14245109D01*
X9417522Y-14266050D01*
X9442147Y-14282504D01*
X9465045Y-14301296D01*
X9491168Y-14315259D01*
X9515793Y-14331713D01*
X9543156Y-14343047D01*
X9569279Y-14357010D01*
X9597623Y-14365608D01*
X9624986Y-14376942D01*
X9654037Y-14382721D01*
X9682379Y-14391318D01*
X9711852Y-14394221D01*
X9740905Y-14400000D01*
X10170526Y-14400000D01*
X10200000Y-14402903D01*
X10229474Y-14400000D01*
X10317621Y-14391318D01*
X10430721Y-14357010D01*
X10534955Y-14301296D01*
X10626317Y-14226317D01*
X10645113Y-14203414D01*
X12445105Y-12403424D01*
X12445110Y-12403418D01*
X12466050Y-12382478D01*
X12482506Y-12357849D01*
X12501295Y-12334955D01*
X12515255Y-12308839D01*
X12531713Y-12284207D01*
X12543049Y-12256839D01*
X12557009Y-12230722D01*
X12565606Y-12202381D01*
X12576942Y-12175014D01*
X12582721Y-12145964D01*
X12591318Y-12117622D01*
X12594221Y-12088150D01*
X12600000Y-12059095D01*
X12600000Y-12029467D01*
X12602902Y-12000001D01*
X12600000Y-11970535D01*
X12600000Y-11940905D01*
X12594220Y-11911848D01*
X12591318Y-11882380D01*
X12582722Y-11854042D01*
X12576942Y-11824986D01*
X12565604Y-11797614D01*
X12557009Y-11769280D01*
X12543053Y-11743169D01*
X12531713Y-11715793D01*
X12515251Y-11691156D01*
X12501295Y-11665046D01*
X12482512Y-11642159D01*
X12466050Y-11617522D01*
X12445099Y-11596571D01*
X12426316Y-11573684D01*
X12403429Y-11554901D01*
X12382478Y-11533950D01*
X12357841Y-11517488D01*
X12334954Y-11498705D01*
X12308844Y-11484749D01*
X12284207Y-11468287D01*
X12256831Y-11456947D01*
X12230720Y-11442991D01*
X12202386Y-11434396D01*
X12175014Y-11423058D01*
X12145958Y-11417278D01*
X12117620Y-11408682D01*
X12088152Y-11405780D01*
X12059095Y-11400000D01*
X12029465Y-11400000D01*
X11999999Y-11397098D01*
X11970533Y-11400000D01*
X11940905Y-11400000D01*
X11911850Y-11405779D01*
X11882378Y-11408682D01*
X11854036Y-11417279D01*
X11824986Y-11423058D01*
X11797619Y-11434394D01*
X11769278Y-11442991D01*
X11743161Y-11456951D01*
X11715793Y-11468287D01*
X11691161Y-11484745D01*
X11665045Y-11498705D01*
X11642151Y-11517494D01*
X11617522Y-11533950D01*
X11596582Y-11554890D01*
X11596576Y-11554895D01*
X9951473Y-13200000D01*
X9740905Y-13200000D01*
X9711852Y-13205779D01*
X9682379Y-13208682D01*
X9654037Y-13217279D01*
X9624986Y-13223058D01*
X9597623Y-13234392D01*
X9569279Y-13242990D01*
X9543156Y-13256953D01*
X9515793Y-13268287D01*
X9491168Y-13284741D01*
X9465045Y-13298704D01*
X9442147Y-13317496D01*
X9417522Y-13333950D01*
X9396581Y-13354891D01*
X9373683Y-13373683D01*
X9354894Y-13396578D01*
X9333950Y-13417522D01*
X9317496Y-13442147D01*
X9298704Y-13465045D01*
X9284741Y-13491168D01*
X9268287Y-13515793D01*
X9256953Y-13543156D01*
X9242990Y-13569279D01*
X9234392Y-13597623D01*
X9223058Y-13624986D01*
X9217279Y-13654037D01*
X9208682Y-13682379D01*
X9205779Y-13711852D01*
X9200000Y-13740905D01*
X9200000Y-13770526D01*
X9197097Y-13800000D01*
X6600000Y-13800000D01*
X6600000Y-13129474D01*
X6602903Y-13100000D01*
X6600000Y-13070526D01*
X6600000Y-13040905D01*
X6594221Y-13011852D01*
X6591318Y-12982379D01*
X6582721Y-12954037D01*
X6576942Y-12924986D01*
X6565608Y-12897623D01*
X6557010Y-12869279D01*
X6551346Y-12858682D01*
X6543047Y-12843156D01*
X6531713Y-12815793D01*
X6515259Y-12791168D01*
X6501296Y-12765045D01*
X6482504Y-12742147D01*
X6466050Y-12717522D01*
X6445109Y-12696581D01*
X6426317Y-12673683D01*
X6403419Y-12654891D01*
X6382478Y-12633950D01*
X6357853Y-12617496D01*
X6334955Y-12598704D01*
X6308832Y-12584741D01*
X6284207Y-12568287D01*
X6256844Y-12556953D01*
X6230721Y-12542990D01*
X6202377Y-12534392D01*
X6175014Y-12523058D01*
X6145963Y-12517279D01*
X6117621Y-12508682D01*
X6088148Y-12505779D01*
X6059095Y-12500000D01*
X6029474Y-12500000D01*
X6000000Y-12497097D01*
X5970526Y-12500000D01*
X5940905Y-12500000D01*
X5911852Y-12505779D01*
X5882379Y-12508682D01*
X5854037Y-12517279D01*
X5824986Y-12523058D01*
X5797623Y-12534392D01*
X5769279Y-12542990D01*
X5743158Y-12556952D01*
X5715793Y-12568287D01*
X5691164Y-12584744D01*
X5665046Y-12598704D01*
X5642152Y-12617493D01*
X5617522Y-12633950D01*
X5596577Y-12654895D01*
X5573684Y-12673683D01*
X5554897Y-12696575D01*
X5533950Y-12717522D01*
X5533948Y-12717525D01*
X5391473Y-12860000D01*
X4589474Y-12860000D01*
X4560000Y-12857097D01*
X4530526Y-12860000D01*
X2971451Y-12860000D01*
X2971451Y-12698000D01*
X2965659Y-12639190D01*
X2948504Y-12582640D01*
X2920647Y-12530523D01*
X2883158Y-12484842D01*
X2837477Y-12447353D01*
X2785360Y-12419496D01*
X2728810Y-12402341D01*
X2670000Y-12396549D01*
X2200001Y-12396549D01*
X2200001Y-9548526D01*
X2382475Y-9366052D01*
X2382478Y-9366050D01*
X2466050Y-9282478D01*
X2482509Y-9257846D01*
X2501295Y-9234955D01*
X2515255Y-9208839D01*
X2531713Y-9184207D01*
X2543049Y-9156839D01*
X2557009Y-9130722D01*
X2565606Y-9102382D01*
X2576942Y-9075014D01*
X2582721Y-9045961D01*
X2591318Y-9017621D01*
X2594221Y-8988148D01*
X2600000Y-8959095D01*
X2600000Y-8929475D01*
X2602903Y-8900001D01*
X2600000Y-8870527D01*
X2600000Y-8840905D01*
X2594221Y-8811851D01*
X2591318Y-8782380D01*
X2582722Y-8754042D01*
X2576942Y-8724986D01*
X2565605Y-8697616D01*
X2557009Y-8669279D01*
X2543051Y-8643166D01*
X2531713Y-8615793D01*
X2515252Y-8591157D01*
X2501295Y-8565046D01*
X2482512Y-8542159D01*
X2466050Y-8517522D01*
X2445099Y-8496571D01*
X2426316Y-8473684D01*
X2403429Y-8454901D01*
X2382478Y-8433950D01*
X2357841Y-8417488D01*
X2334954Y-8398705D01*
X2308843Y-8384748D01*
X2284207Y-8368287D01*
X2256834Y-8356949D01*
X2230721Y-8342991D01*
X2202384Y-8334395D01*
X2175014Y-8323058D01*
X2145958Y-8317278D01*
X2117620Y-8308682D01*
X2088149Y-8305779D01*
X2059095Y-8300000D01*
X2029473Y-8300000D01*
X1999999Y-8297097D01*
X1970525Y-8300000D01*
X1940905Y-8300000D01*
X1911852Y-8305779D01*
X1882379Y-8308682D01*
X1854039Y-8317279D01*
X1824986Y-8323058D01*
X1797618Y-8334394D01*
X1769278Y-8342991D01*
X1743161Y-8356951D01*
X1715793Y-8368287D01*
X1691161Y-8384745D01*
X1665045Y-8398705D01*
X1642154Y-8417491D01*
X1617522Y-8433950D01*
X1533950Y-8517522D01*
X1533948Y-8517525D01*
X1196583Y-8854890D01*
X1173685Y-8873682D01*
X1098706Y-8965044D01*
X1070603Y-9017621D01*
X1042992Y-9069278D01*
X1008683Y-9182379D01*
X997098Y-9299999D01*
X1000002Y-9329483D01*
X1000001Y-12396549D01*
X319050Y-12396549D01*
X319050Y-3300000D01*
X997097Y-3300000D01*
X1008682Y-3417620D01*
X1039017Y-3517620D01*
X1042991Y-3530721D01*
X1098705Y-3634955D01*
X1173684Y-3726317D01*
X1196580Y-3745107D01*
X1233949Y-3782477D01*
X1317522Y-3866050D01*
X1342156Y-3882510D01*
X1365046Y-3901295D01*
X1391157Y-3915252D01*
X1415793Y-3931713D01*
X1443166Y-3943051D01*
X1469279Y-3957009D01*
X1497616Y-3965605D01*
X1524986Y-3976942D01*
X1554039Y-3982721D01*
X1582379Y-3991318D01*
X1611852Y-3994221D01*
X1640905Y-4000000D01*
X1670525Y-4000000D01*
X1699999Y-4002903D01*
X1729473Y-4000000D01*
X1759095Y-4000000D01*
X1788149Y-3994221D01*
X1817620Y-3991318D01*
X1845958Y-3982722D01*
X1875014Y-3976942D01*
X1902386Y-3965604D01*
X1930720Y-3957009D01*
X1956831Y-3943053D01*
X1984207Y-3931713D01*
X2008844Y-3915251D01*
X2034954Y-3901295D01*
X2057841Y-3882512D01*
X2082478Y-3866050D01*
X2103429Y-3845099D01*
X2126316Y-3826316D01*
X2145099Y-3803429D01*
X2166050Y-3782478D01*
X2182512Y-3757841D01*
X2201295Y-3734954D01*
X2215251Y-3708844D01*
X2231713Y-3684207D01*
X2243053Y-3656831D01*
X2257009Y-3630720D01*
X2265604Y-3602386D01*
X2276942Y-3575014D01*
X2282722Y-3545958D01*
X2291318Y-3517620D01*
X2294221Y-3488149D01*
X2300000Y-3459095D01*
X2300000Y-3429473D01*
X2302903Y-3399999D01*
X2300000Y-3370525D01*
X2300000Y-3340905D01*
X2294221Y-3311852D01*
X2291318Y-3282379D01*
X2282721Y-3254039D01*
X2276942Y-3224986D01*
X2265605Y-3197616D01*
X2257009Y-3169279D01*
X2243051Y-3143166D01*
X2231713Y-3115793D01*
X2215252Y-3091157D01*
X2201295Y-3065046D01*
X2200000Y-3063468D01*
X2200000Y-1748527D01*
X2627002Y-2175530D01*
X2627001Y-6973489D01*
X2624098Y-7002963D01*
X2627001Y-7032436D01*
X2635683Y-7120583D01*
X2669991Y-7233683D01*
X2725705Y-7337917D01*
X2800684Y-7429280D01*
X2823587Y-7448076D01*
X6278928Y-10903418D01*
X6297720Y-10926316D01*
X6389082Y-11001295D01*
X6444133Y-11030720D01*
X6493316Y-11057009D01*
X6606416Y-11091317D01*
X6724037Y-11102902D01*
X6753511Y-11099999D01*
X12670527Y-11099999D01*
X12700001Y-11102902D01*
X12729475Y-11099999D01*
X12817622Y-11091317D01*
X12930722Y-11057009D01*
X13034956Y-11001295D01*
X13126318Y-10926316D01*
X13145114Y-10903413D01*
X13382475Y-10666052D01*
X13382478Y-10666050D01*
X13466050Y-10582478D01*
X13482511Y-10557842D01*
X13501295Y-10534954D01*
X13515253Y-10508841D01*
X13531713Y-10484207D01*
X13543049Y-10456840D01*
X13557010Y-10430721D01*
X13565608Y-10402377D01*
X13576942Y-10375014D01*
X13582721Y-10345963D01*
X13591318Y-10317621D01*
X13594221Y-10288148D01*
X13600000Y-10259095D01*
X13600000Y-10229474D01*
X13602903Y-10200000D01*
X13600000Y-10170526D01*
X13600000Y-10140905D01*
X13594221Y-10111852D01*
X13591318Y-10082379D01*
X13582721Y-10054037D01*
X13576942Y-10024986D01*
X13565608Y-9997623D01*
X13557010Y-9969279D01*
X13543049Y-9943160D01*
X13531713Y-9915793D01*
X13515253Y-9891159D01*
X13501295Y-9865046D01*
X13482510Y-9842156D01*
X13466050Y-9817522D01*
X13445106Y-9796578D01*
X13426317Y-9773683D01*
X13403422Y-9754894D01*
X13382478Y-9733950D01*
X13357844Y-9717490D01*
X13334954Y-9698705D01*
X13308841Y-9684747D01*
X13284207Y-9668287D01*
X13256840Y-9656951D01*
X13230721Y-9642990D01*
X13202377Y-9634392D01*
X13175014Y-9623058D01*
X13145963Y-9617279D01*
X13117621Y-9608682D01*
X13088148Y-9605779D01*
X13059095Y-9600000D01*
X13029474Y-9600000D01*
X13000000Y-9597097D01*
X12970526Y-9600000D01*
X12940905Y-9600000D01*
X12911852Y-9605779D01*
X12882379Y-9608682D01*
X12854037Y-9617279D01*
X12824986Y-9623058D01*
X12797623Y-9634392D01*
X12769279Y-9642990D01*
X12743160Y-9656951D01*
X12715793Y-9668287D01*
X12691159Y-9684747D01*
X12665046Y-9698705D01*
X12642158Y-9717489D01*
X12617522Y-9733950D01*
X12533950Y-9817522D01*
X12533948Y-9817525D01*
X12451474Y-9899999D01*
X6972565Y-9899999D01*
X3827001Y-6754436D01*
X3827001Y-6499999D01*
X4963550Y-6499999D01*
X4963550Y-7449999D01*
X4974146Y-7557582D01*
X5005527Y-7661030D01*
X5056486Y-7756369D01*
X5125066Y-7839934D01*
X5208631Y-7908514D01*
X5303970Y-7959473D01*
X5407418Y-7990854D01*
X5515001Y-8001450D01*
X5942924Y-8001450D01*
X6471902Y-8530428D01*
X6490694Y-8553326D01*
X6582056Y-8628305D01*
X6686290Y-8684019D01*
X6799390Y-8718327D01*
X6917010Y-8729912D01*
X6946484Y-8727009D01*
X13726016Y-8727009D01*
X13755490Y-8729912D01*
X13784964Y-8727009D01*
X13873111Y-8718327D01*
X13986211Y-8684019D01*
X14090445Y-8628305D01*
X14181807Y-8553326D01*
X14200603Y-8530423D01*
X14729576Y-8001450D01*
X15157500Y-8001450D01*
X15265083Y-7990854D01*
X15368531Y-7959473D01*
X15463870Y-7908514D01*
X15547435Y-7839934D01*
X15616015Y-7756369D01*
X15646144Y-7699999D01*
X16006048Y-7699999D01*
X16011840Y-7758809D01*
X16028995Y-7815360D01*
X16056852Y-7867477D01*
X16094341Y-7913158D01*
X16140022Y-7950647D01*
X16192139Y-7978504D01*
X16248690Y-7995659D01*
X16307500Y-8001451D01*
X16578500Y-7999999D01*
X16653500Y-7924999D01*
X16653500Y-7128999D01*
X16961500Y-7128999D01*
X16961500Y-7924999D01*
X17036500Y-7999999D01*
X17307500Y-8001451D01*
X17366310Y-7995659D01*
X17422861Y-7978504D01*
X17474978Y-7950647D01*
X17520659Y-7913158D01*
X17558148Y-7867477D01*
X17586005Y-7815360D01*
X17603160Y-7758809D01*
X17608952Y-7699999D01*
X17607500Y-7203999D01*
X17532500Y-7128999D01*
X16961500Y-7128999D01*
X16653500Y-7128999D01*
X16082500Y-7128999D01*
X16007500Y-7203999D01*
X16006048Y-7699999D01*
X15646144Y-7699999D01*
X15666974Y-7661030D01*
X15698355Y-7557582D01*
X15708951Y-7449999D01*
X15708951Y-6499999D01*
X15698355Y-6392416D01*
X15666974Y-6288968D01*
X15646145Y-6249999D01*
X16006048Y-6249999D01*
X16007500Y-6745999D01*
X16082500Y-6820999D01*
X16653500Y-6820999D01*
X16653500Y-6024999D01*
X16961500Y-6024999D01*
X16961500Y-6820999D01*
X17532500Y-6820999D01*
X17607500Y-6745999D01*
X17608952Y-6249999D01*
X17603160Y-6191189D01*
X17586005Y-6134638D01*
X17558148Y-6082521D01*
X17520659Y-6036840D01*
X17474978Y-5999351D01*
X17422861Y-5971494D01*
X17366310Y-5954339D01*
X17307500Y-5948547D01*
X17036500Y-5949999D01*
X16961500Y-6024999D01*
X16653500Y-6024999D01*
X16578500Y-5949999D01*
X16307500Y-5948547D01*
X16248690Y-5954339D01*
X16192139Y-5971494D01*
X16140022Y-5999351D01*
X16094341Y-6036840D01*
X16056852Y-6082521D01*
X16028995Y-6134638D01*
X16011840Y-6191189D01*
X16006048Y-6249999D01*
X15646145Y-6249999D01*
X15616015Y-6193629D01*
X15547435Y-6110064D01*
X15490856Y-6063631D01*
X15464510Y-5976778D01*
X15439225Y-5929474D01*
X15408796Y-5872545D01*
X15333817Y-5781183D01*
X15310919Y-5762391D01*
X14466052Y-4917525D01*
X14466050Y-4917522D01*
X14445109Y-4896581D01*
X14426317Y-4873683D01*
X14403419Y-4854891D01*
X14382478Y-4833950D01*
X14357853Y-4817496D01*
X14334955Y-4798704D01*
X14308832Y-4784741D01*
X14284207Y-4768287D01*
X14256844Y-4756953D01*
X14230721Y-4742990D01*
X14202377Y-4734392D01*
X14175014Y-4723058D01*
X14145963Y-4717279D01*
X14117621Y-4708682D01*
X14088148Y-4705779D01*
X14059095Y-4700000D01*
X14029474Y-4700000D01*
X14000000Y-4697097D01*
X13970526Y-4700000D01*
X13940905Y-4700000D01*
X13911852Y-4705779D01*
X13882379Y-4708682D01*
X13854037Y-4717279D01*
X13824986Y-4723058D01*
X13797623Y-4734392D01*
X13769279Y-4742990D01*
X13743156Y-4756953D01*
X13715793Y-4768287D01*
X13691168Y-4784741D01*
X13665045Y-4798704D01*
X13642147Y-4817496D01*
X13617522Y-4833950D01*
X13596581Y-4854891D01*
X13573683Y-4873683D01*
X13554891Y-4896581D01*
X13533950Y-4917522D01*
X13517496Y-4942147D01*
X13498704Y-4965045D01*
X13484741Y-4991168D01*
X13468287Y-5015793D01*
X13456953Y-5043156D01*
X13442990Y-5069279D01*
X13434392Y-5097623D01*
X13423058Y-5124986D01*
X13417279Y-5154037D01*
X13408682Y-5182379D01*
X13405779Y-5211852D01*
X13400000Y-5240905D01*
X13400000Y-5270526D01*
X13397097Y-5300000D01*
X13400000Y-5329474D01*
X13400000Y-5359095D01*
X13405779Y-5388148D01*
X13408682Y-5417621D01*
X13417279Y-5445963D01*
X13423058Y-5475014D01*
X13434392Y-5502377D01*
X13442990Y-5530721D01*
X13456953Y-5556844D01*
X13468287Y-5584207D01*
X13484741Y-5608832D01*
X13498704Y-5634955D01*
X13517496Y-5657853D01*
X13533950Y-5682478D01*
X13554891Y-5703419D01*
X13573683Y-5726317D01*
X13596581Y-5745109D01*
X13617522Y-5766050D01*
X13617525Y-5766052D01*
X14146260Y-6294788D01*
X14116645Y-6392416D01*
X14106049Y-6499999D01*
X14106049Y-6927922D01*
X13506963Y-7527009D01*
X8465947Y-7527009D01*
X8465001Y-7203999D01*
X8390001Y-7128999D01*
X7819001Y-7128999D01*
X7819001Y-7148999D01*
X7511001Y-7148999D01*
X7511001Y-7128999D01*
X6940001Y-7128999D01*
X6865001Y-7203999D01*
X6864935Y-7226406D01*
X6566452Y-6927923D01*
X6566452Y-6499999D01*
X6555856Y-6392416D01*
X6524475Y-6288968D01*
X6503646Y-6249999D01*
X6863549Y-6249999D01*
X6865001Y-6745999D01*
X6940001Y-6820999D01*
X7511001Y-6820999D01*
X7511001Y-6024999D01*
X7819001Y-6024999D01*
X7819001Y-6820999D01*
X8390001Y-6820999D01*
X8465001Y-6745999D01*
X8466453Y-6249999D01*
X8460661Y-6191189D01*
X8443506Y-6134638D01*
X8415649Y-6082521D01*
X8378160Y-6036840D01*
X8332479Y-5999351D01*
X8280362Y-5971494D01*
X8223811Y-5954339D01*
X8165001Y-5948547D01*
X7894001Y-5949999D01*
X7819001Y-6024999D01*
X7511001Y-6024999D01*
X7436001Y-5949999D01*
X7165001Y-5948547D01*
X7106191Y-5954339D01*
X7049640Y-5971494D01*
X6997523Y-5999351D01*
X6951842Y-6036840D01*
X6914353Y-6082521D01*
X6886496Y-6134638D01*
X6869341Y-6191189D01*
X6863549Y-6249999D01*
X6503646Y-6249999D01*
X6473516Y-6193629D01*
X6404936Y-6110064D01*
X6365001Y-6077290D01*
X6365001Y-5494475D01*
X6367904Y-5465001D01*
X6365001Y-5435527D01*
X6365001Y-5405906D01*
X6359222Y-5376853D01*
X6356319Y-5347380D01*
X6347722Y-5319038D01*
X6341943Y-5289987D01*
X6330609Y-5262624D01*
X6322011Y-5234280D01*
X6308048Y-5208157D01*
X6296714Y-5180794D01*
X6280260Y-5156169D01*
X6266297Y-5130046D01*
X6247505Y-5107148D01*
X6231051Y-5082523D01*
X6210110Y-5061582D01*
X6191318Y-5038684D01*
X6168420Y-5019892D01*
X6148528Y-5000000D01*
X9197097Y-5000000D01*
X9200000Y-5029474D01*
X9200000Y-5959095D01*
X9205779Y-5988149D01*
X9208682Y-6017620D01*
X9217279Y-6045960D01*
X9223058Y-6075014D01*
X9234393Y-6102380D01*
X9242990Y-6130720D01*
X9256951Y-6156839D01*
X9268287Y-6184207D01*
X9284744Y-6208836D01*
X9298704Y-6234954D01*
X9317494Y-6257849D01*
X9333950Y-6282478D01*
X9354892Y-6303420D01*
X9373683Y-6326317D01*
X9396581Y-6345109D01*
X9417522Y-6366050D01*
X9442147Y-6382504D01*
X9465045Y-6401296D01*
X9491168Y-6415259D01*
X9515793Y-6431713D01*
X9543156Y-6443047D01*
X9569279Y-6457010D01*
X9597623Y-6465608D01*
X9624986Y-6476942D01*
X9654037Y-6482721D01*
X9682379Y-6491318D01*
X9711852Y-6494221D01*
X9740905Y-6500000D01*
X9770526Y-6500000D01*
X9800000Y-6502903D01*
X9829474Y-6500000D01*
X9859095Y-6500000D01*
X9888149Y-6494221D01*
X9917620Y-6491318D01*
X9945960Y-6482721D01*
X9975014Y-6476942D01*
X10002380Y-6465607D01*
X10030720Y-6457010D01*
X10056839Y-6443049D01*
X10084207Y-6431713D01*
X10108836Y-6415256D01*
X10134954Y-6401296D01*
X10157849Y-6382506D01*
X10182478Y-6366050D01*
X10203420Y-6345108D01*
X10226317Y-6326317D01*
X10245109Y-6303419D01*
X10266050Y-6282478D01*
X10282504Y-6257853D01*
X10301296Y-6234955D01*
X10315259Y-6208832D01*
X10331713Y-6184207D01*
X10343047Y-6156844D01*
X10357010Y-6130721D01*
X10365608Y-6102377D01*
X10376942Y-6075014D01*
X10382721Y-6045963D01*
X10391318Y-6017621D01*
X10394221Y-5988148D01*
X10400000Y-5959095D01*
X10400000Y-5248527D01*
X12248528Y-3400000D01*
X17097097Y-3400000D01*
X17100000Y-3429474D01*
X17100000Y-3459095D01*
X17105779Y-3488149D01*
X17108682Y-3517620D01*
X17117278Y-3545958D01*
X17123058Y-3575014D01*
X17134395Y-3602384D01*
X17142991Y-3630721D01*
X17156949Y-3656834D01*
X17168287Y-3684207D01*
X17184748Y-3708843D01*
X17198705Y-3734954D01*
X17217489Y-3757842D01*
X17233950Y-3782478D01*
X17317522Y-3866050D01*
X17317525Y-3866052D01*
X20554891Y-7103419D01*
X20573683Y-7126317D01*
X20665045Y-7201296D01*
X20769279Y-7257010D01*
X20882379Y-7291318D01*
X21000000Y-7302903D01*
X21029474Y-7300000D01*
X21751473Y-7300000D01*
X21854887Y-7403414D01*
X21873683Y-7426317D01*
X21965045Y-7501296D01*
X22069279Y-7557010D01*
X22182379Y-7591318D01*
X22299999Y-7602903D01*
X22329473Y-7600000D01*
X23264428Y-7600000D01*
X23290526Y-7686031D01*
X23341485Y-7781370D01*
X23410065Y-7864935D01*
X23493630Y-7933515D01*
X23588969Y-7984474D01*
X23692417Y-8015855D01*
X23800000Y-8026451D01*
X24300000Y-8026451D01*
X24407583Y-8015855D01*
X24511031Y-7984474D01*
X24606370Y-7933515D01*
X24689935Y-7864935D01*
X24758515Y-7781370D01*
X24788644Y-7725000D01*
X25148548Y-7725000D01*
X25154340Y-7783810D01*
X25171495Y-7840361D01*
X25199352Y-7892478D01*
X25236841Y-7938159D01*
X25282522Y-7975648D01*
X25334639Y-8003505D01*
X25391190Y-8020660D01*
X25450000Y-8026452D01*
X25721000Y-8025000D01*
X25796000Y-7950000D01*
X25796000Y-7154000D01*
X26104000Y-7154000D01*
X26104000Y-7950000D01*
X26179000Y-8025000D01*
X26450000Y-8026452D01*
X26508810Y-8020660D01*
X26565361Y-8003505D01*
X26617478Y-7975648D01*
X26663159Y-7938159D01*
X26700648Y-7892478D01*
X26728505Y-7840361D01*
X26745660Y-7783810D01*
X26751452Y-7725000D01*
X26750000Y-7229000D01*
X26675000Y-7154000D01*
X26104000Y-7154000D01*
X25796000Y-7154000D01*
X25225000Y-7154000D01*
X25150000Y-7229000D01*
X25148548Y-7725000D01*
X24788644Y-7725000D01*
X24809474Y-7686031D01*
X24840855Y-7582583D01*
X24851451Y-7475000D01*
X24851451Y-6525000D01*
X24840855Y-6417417D01*
X24809474Y-6313969D01*
X24788645Y-6275000D01*
X25148548Y-6275000D01*
X25150000Y-6771000D01*
X25225000Y-6846000D01*
X25796000Y-6846000D01*
X25796000Y-6050000D01*
X26104000Y-6050000D01*
X26104000Y-6846000D01*
X26675000Y-6846000D01*
X26750000Y-6771000D01*
X26751452Y-6275000D01*
X26745660Y-6216190D01*
X26728505Y-6159639D01*
X26700648Y-6107522D01*
X26663159Y-6061841D01*
X26617478Y-6024352D01*
X26565361Y-5996495D01*
X26508810Y-5979340D01*
X26450000Y-5973548D01*
X26179000Y-5975000D01*
X26104000Y-6050000D01*
X25796000Y-6050000D01*
X25721000Y-5975000D01*
X25450000Y-5973548D01*
X25391190Y-5979340D01*
X25334639Y-5996495D01*
X25282522Y-6024352D01*
X25236841Y-6061841D01*
X25199352Y-6107522D01*
X25171495Y-6159639D01*
X25154340Y-6216190D01*
X25148548Y-6275000D01*
X24788645Y-6275000D01*
X24758515Y-6218630D01*
X24689935Y-6135065D01*
X24606370Y-6066485D01*
X24511031Y-6015526D01*
X24407583Y-5984145D01*
X24300000Y-5973549D01*
X23800000Y-5973549D01*
X23692417Y-5984145D01*
X23588969Y-6015526D01*
X23493630Y-6066485D01*
X23410065Y-6135065D01*
X23341485Y-6218630D01*
X23290526Y-6313969D01*
X23264428Y-6400000D01*
X22548527Y-6400000D01*
X22466052Y-6317525D01*
X22466050Y-6317522D01*
X22445109Y-6296581D01*
X22426317Y-6273683D01*
X22403419Y-6254891D01*
X22382478Y-6233950D01*
X22357853Y-6217496D01*
X22334955Y-6198704D01*
X22308832Y-6184741D01*
X22284207Y-6168287D01*
X22256844Y-6156953D01*
X22230721Y-6142990D01*
X22202377Y-6134392D01*
X22175014Y-6123058D01*
X22145963Y-6117279D01*
X22117621Y-6108682D01*
X22088148Y-6105779D01*
X22059095Y-6100000D01*
X22029474Y-6100000D01*
X22000000Y-6097097D01*
X21970526Y-6100000D01*
X21248528Y-6100000D01*
X18166052Y-3017525D01*
X18166050Y-3017522D01*
X18082478Y-2933950D01*
X18057842Y-2917489D01*
X18034954Y-2898705D01*
X18008843Y-2884748D01*
X17984207Y-2868287D01*
X17956834Y-2856949D01*
X17930721Y-2842991D01*
X17902384Y-2834395D01*
X17875014Y-2823058D01*
X17845958Y-2817278D01*
X17817620Y-2808682D01*
X17788149Y-2805779D01*
X17759095Y-2800000D01*
X17729474Y-2800000D01*
X17700000Y-2797097D01*
X17670526Y-2800000D01*
X17640905Y-2800000D01*
X17611851Y-2805779D01*
X17582380Y-2808682D01*
X17554042Y-2817278D01*
X17524986Y-2823058D01*
X17497616Y-2834395D01*
X17469279Y-2842991D01*
X17443166Y-2856949D01*
X17415793Y-2868287D01*
X17391157Y-2884748D01*
X17365046Y-2898705D01*
X17342159Y-2917488D01*
X17317522Y-2933950D01*
X17296571Y-2954901D01*
X17273684Y-2973684D01*
X17254901Y-2996571D01*
X17233950Y-3017522D01*
X17217488Y-3042159D01*
X17198705Y-3065046D01*
X17184748Y-3091157D01*
X17168287Y-3115793D01*
X17156949Y-3143166D01*
X17142991Y-3169279D01*
X17134395Y-3197616D01*
X17123058Y-3224986D01*
X17117278Y-3254042D01*
X17108682Y-3282380D01*
X17105779Y-3311851D01*
X17100000Y-3340905D01*
X17100000Y-3370526D01*
X17097097Y-3400000D01*
X12248528Y-3400000D01*
X13145105Y-2503424D01*
X13145110Y-2503418D01*
X13166050Y-2482478D01*
X13182506Y-2457849D01*
X13201295Y-2434955D01*
X13215255Y-2408839D01*
X13231713Y-2384207D01*
X13243049Y-2356839D01*
X13257009Y-2330722D01*
X13265606Y-2302381D01*
X13276942Y-2275014D01*
X13282721Y-2245964D01*
X13291318Y-2217622D01*
X13294221Y-2188147D01*
X13300000Y-2159095D01*
X13300000Y-2129475D01*
X13302903Y-2100001D01*
X13300000Y-2070526D01*
X13300000Y-2040905D01*
X13294221Y-2011851D01*
X13291318Y-1982380D01*
X13282722Y-1954042D01*
X13276942Y-1924986D01*
X13265604Y-1897614D01*
X13257009Y-1869280D01*
X13243053Y-1843169D01*
X13231713Y-1815793D01*
X13215251Y-1791156D01*
X13201295Y-1765046D01*
X13182512Y-1742159D01*
X13166050Y-1717522D01*
X13145099Y-1696571D01*
X13126316Y-1673684D01*
X13103429Y-1654901D01*
X13082478Y-1633950D01*
X13057841Y-1617488D01*
X13034954Y-1598705D01*
X13008844Y-1584749D01*
X12984207Y-1568287D01*
X12956831Y-1556947D01*
X12930720Y-1542991D01*
X12902386Y-1534396D01*
X12875014Y-1523058D01*
X12845958Y-1517278D01*
X12817620Y-1508682D01*
X12788149Y-1505779D01*
X12759095Y-1500000D01*
X12729473Y-1500000D01*
X12699999Y-1497097D01*
X12670525Y-1500000D01*
X12640905Y-1500000D01*
X12611853Y-1505779D01*
X12582378Y-1508682D01*
X12554036Y-1517279D01*
X12524986Y-1523058D01*
X12497619Y-1534394D01*
X12469278Y-1542991D01*
X12443161Y-1556951D01*
X12415793Y-1568287D01*
X12391161Y-1584745D01*
X12365045Y-1598705D01*
X12342151Y-1617494D01*
X12317522Y-1633950D01*
X12296582Y-1654890D01*
X12296576Y-1654895D01*
X9396582Y-4554891D01*
X9373684Y-4573683D01*
X9298705Y-4665045D01*
X9275381Y-4708682D01*
X9242991Y-4769279D01*
X9208682Y-4882380D01*
X9197097Y-5000000D01*
X6148528Y-5000000D01*
X6147479Y-4998951D01*
X6122854Y-4982497D01*
X6099956Y-4963705D01*
X6073833Y-4949742D01*
X6049208Y-4933288D01*
X6021845Y-4921954D01*
X5995722Y-4907991D01*
X5967378Y-4899393D01*
X5940015Y-4888059D01*
X5910964Y-4882280D01*
X5882622Y-4873683D01*
X5853149Y-4870780D01*
X5824096Y-4865001D01*
X5794475Y-4865001D01*
X5765001Y-4862098D01*
X5735527Y-4865001D01*
X5705906Y-4865001D01*
X5676853Y-4870780D01*
X5647380Y-4873683D01*
X5619038Y-4882280D01*
X5589987Y-4888059D01*
X5562624Y-4899393D01*
X5534280Y-4907991D01*
X5508157Y-4921954D01*
X5480794Y-4933288D01*
X5456169Y-4949742D01*
X5430046Y-4963705D01*
X5407148Y-4982497D01*
X5382523Y-4998951D01*
X5361582Y-5019892D01*
X5338684Y-5038684D01*
X5319892Y-5061582D01*
X5298951Y-5082523D01*
X5282497Y-5107148D01*
X5263705Y-5130046D01*
X5249742Y-5156169D01*
X5233288Y-5180794D01*
X5221954Y-5208157D01*
X5207991Y-5234280D01*
X5199393Y-5262624D01*
X5188059Y-5289987D01*
X5182280Y-5319038D01*
X5173683Y-5347380D01*
X5170780Y-5376853D01*
X5165001Y-5405906D01*
X5165001Y-5435527D01*
X5162098Y-5465001D01*
X5165001Y-5494475D01*
X5165001Y-5524096D01*
X5165002Y-5524101D01*
X5165002Y-6077290D01*
X5125066Y-6110064D01*
X5056486Y-6193629D01*
X5005527Y-6288968D01*
X4974146Y-6392416D01*
X4963550Y-6499999D01*
X3827001Y-6499999D01*
X3827001Y-1956474D01*
X3829904Y-1927000D01*
X3818319Y-1809380D01*
X3784011Y-1696280D01*
X3728297Y-1592046D01*
X3653318Y-1500684D01*
X3630420Y-1481892D01*
X2866052Y-717525D01*
X2866050Y-717522D01*
X2782478Y-633950D01*
X2757842Y-617489D01*
X2734954Y-598705D01*
X2708843Y-584748D01*
X2684207Y-568287D01*
X2656834Y-556949D01*
X2630721Y-542991D01*
X2602384Y-534395D01*
X2575014Y-523058D01*
X2545958Y-517278D01*
X2517620Y-508682D01*
X2488149Y-505779D01*
X2459095Y-500000D01*
X2429474Y-500000D01*
X2400000Y-497097D01*
X2370526Y-500000D01*
X2340905Y-500000D01*
X2311851Y-505779D01*
X2282380Y-508682D01*
X2254042Y-517278D01*
X2224986Y-523058D01*
X2197616Y-534395D01*
X2169279Y-542991D01*
X2143166Y-556949D01*
X2115793Y-568287D01*
X2091157Y-584748D01*
X2065046Y-598705D01*
X2042159Y-617488D01*
X2017522Y-633950D01*
X2000000Y-651472D01*
X1982478Y-633950D01*
X1957849Y-617494D01*
X1934954Y-598704D01*
X1908836Y-584744D01*
X1884207Y-568287D01*
X1856839Y-556951D01*
X1830720Y-542990D01*
X1802380Y-534393D01*
X1775014Y-523058D01*
X1745960Y-517279D01*
X1717620Y-508682D01*
X1688149Y-505779D01*
X1659095Y-500000D01*
X1629474Y-500000D01*
X1600000Y-497097D01*
X1570526Y-500000D01*
X1540905Y-500000D01*
X1511852Y-505779D01*
X1482379Y-508682D01*
X1454037Y-517279D01*
X1424986Y-523058D01*
X1397623Y-534392D01*
X1369279Y-542990D01*
X1343156Y-556953D01*
X1315793Y-568287D01*
X1291168Y-584741D01*
X1265045Y-598704D01*
X1242147Y-617496D01*
X1217522Y-633950D01*
X1196581Y-654891D01*
X1173683Y-673683D01*
X1154892Y-696580D01*
X1133950Y-717522D01*
X1117494Y-742151D01*
X1098704Y-765046D01*
X1084744Y-791164D01*
X1068287Y-815793D01*
X1056951Y-843161D01*
X1042990Y-869280D01*
X1034393Y-897620D01*
X1023058Y-924986D01*
X1017279Y-954040D01*
X1008682Y-982380D01*
X1005779Y-1011851D01*
X1000000Y-1040905D01*
X1000000Y-1070527D01*
X1000001Y-3270517D01*
X997097Y-3300000D01*
X319050Y-3300000D01*
X319050Y-319050D01*
X9639821Y-319050D01*
X9617522Y-333950D01*
G04 #@! TA.AperFunction,Conductor*
D15*
G36*
X9617522Y-333950D02*
G01*
X9596577Y-354895D01*
X8249472Y-1702001D01*
X6350528Y-1702001D01*
X6266052Y-1617525D01*
X6266050Y-1617522D01*
X6182478Y-1533950D01*
X6157842Y-1517489D01*
X6134954Y-1498705D01*
X6108843Y-1484748D01*
X6084207Y-1468287D01*
X6056834Y-1456949D01*
X6030721Y-1442991D01*
X6002384Y-1434395D01*
X5975014Y-1423058D01*
X5945958Y-1417278D01*
X5917620Y-1408682D01*
X5888149Y-1405779D01*
X5859095Y-1400000D01*
X5829474Y-1400000D01*
X5800000Y-1397097D01*
X5770526Y-1400000D01*
X5740905Y-1400000D01*
X5711851Y-1405779D01*
X5682380Y-1408682D01*
X5654042Y-1417278D01*
X5624986Y-1423058D01*
X5597616Y-1434395D01*
X5569279Y-1442991D01*
X5543166Y-1456949D01*
X5515793Y-1468287D01*
X5491157Y-1484748D01*
X5465046Y-1498705D01*
X5442159Y-1517488D01*
X5417522Y-1533950D01*
X5396571Y-1554901D01*
X5373684Y-1573684D01*
X5354901Y-1596571D01*
X5333950Y-1617522D01*
X5317488Y-1642159D01*
X5298705Y-1665046D01*
X5284748Y-1691157D01*
X5268287Y-1715793D01*
X5256949Y-1743166D01*
X5242991Y-1769279D01*
X5234395Y-1797616D01*
X5223058Y-1824986D01*
X5217278Y-1854042D01*
X5208682Y-1882380D01*
X5205779Y-1911851D01*
X5200000Y-1940905D01*
X5200000Y-1970526D01*
X5197097Y-2000000D01*
X5200000Y-2029474D01*
X5200000Y-2059095D01*
X5205779Y-2088149D01*
X5208682Y-2117620D01*
X5217278Y-2145958D01*
X5223058Y-2175014D01*
X5234395Y-2202384D01*
X5242991Y-2230721D01*
X5256949Y-2256834D01*
X5268287Y-2284207D01*
X5284748Y-2308843D01*
X5298705Y-2334954D01*
X5317489Y-2357842D01*
X5333950Y-2382478D01*
X5417522Y-2466050D01*
X5417525Y-2466052D01*
X5656888Y-2705415D01*
X5675684Y-2728318D01*
X5767046Y-2803297D01*
X5871280Y-2859011D01*
X5984380Y-2893319D01*
X6102001Y-2904904D01*
X6131475Y-2902001D01*
X8468525Y-2902001D01*
X8497999Y-2904904D01*
X8527473Y-2902001D01*
X8615620Y-2893319D01*
X8728720Y-2859011D01*
X8832954Y-2803297D01*
X8924316Y-2728318D01*
X8943112Y-2705415D01*
X10445105Y-1203423D01*
X10466050Y-1182478D01*
X10482508Y-1157848D01*
X10501295Y-1134955D01*
X10515255Y-1108839D01*
X10531713Y-1084207D01*
X10543049Y-1056839D01*
X10557009Y-1030722D01*
X10565606Y-1002382D01*
X10576942Y-975014D01*
X10582721Y-945961D01*
X10591318Y-917621D01*
X10594221Y-888148D01*
X10600000Y-859095D01*
X10600000Y-829475D01*
X10602903Y-800001D01*
X10600000Y-770527D01*
X10600000Y-740905D01*
X10594221Y-711851D01*
X10591318Y-682380D01*
X10582722Y-654042D01*
X10576942Y-624986D01*
X10565605Y-597616D01*
X10557009Y-569279D01*
X10543051Y-543166D01*
X10531713Y-515793D01*
X10515252Y-491157D01*
X10501295Y-465046D01*
X10482512Y-442159D01*
X10466050Y-417522D01*
X10445099Y-396571D01*
X10426316Y-373684D01*
X10403429Y-354901D01*
X10382478Y-333950D01*
X10360179Y-319050D01*
X17432929Y-319050D01*
X17417494Y-342151D01*
X17398704Y-365046D01*
X17384744Y-391164D01*
X17368287Y-415793D01*
X17356951Y-443161D01*
X17342990Y-469280D01*
X17334393Y-497620D01*
X17323058Y-524986D01*
X17317279Y-554040D01*
X17308682Y-582380D01*
X17305779Y-611851D01*
X17300000Y-640905D01*
X17300000Y-870526D01*
X17297097Y-900000D01*
X17300000Y-929473D01*
X17300000Y-929474D01*
X17308682Y-1017621D01*
X17342990Y-1130721D01*
X17398705Y-1234955D01*
X17473684Y-1326317D01*
X17496582Y-1345109D01*
X21533950Y-5382478D01*
X21617522Y-5466050D01*
X21642152Y-5482508D01*
X21665045Y-5501295D01*
X21691162Y-5515255D01*
X21715793Y-5531713D01*
X21743158Y-5543048D01*
X21769279Y-5557010D01*
X21797625Y-5565609D01*
X21824986Y-5576942D01*
X21854030Y-5582719D01*
X21882379Y-5591319D01*
X21911859Y-5594222D01*
X21940905Y-5600000D01*
X21970524Y-5600000D01*
X22000000Y-5602903D01*
X22029476Y-5600000D01*
X22059095Y-5600000D01*
X22088141Y-5594222D01*
X22117621Y-5591319D01*
X22145970Y-5582719D01*
X22175014Y-5576942D01*
X22202375Y-5565609D01*
X22230721Y-5557010D01*
X22256840Y-5543049D01*
X22284207Y-5531713D01*
X22308841Y-5515253D01*
X22334954Y-5501295D01*
X22357844Y-5482510D01*
X22382478Y-5466050D01*
X22403423Y-5445105D01*
X22426317Y-5426317D01*
X22445106Y-5403422D01*
X22466050Y-5382478D01*
X22482510Y-5357844D01*
X22501295Y-5334954D01*
X22515253Y-5308841D01*
X22531713Y-5284207D01*
X22543049Y-5256840D01*
X22557010Y-5230721D01*
X22565609Y-5202375D01*
X22576942Y-5175014D01*
X22582719Y-5145970D01*
X22591319Y-5117621D01*
X22594222Y-5088141D01*
X22600000Y-5059095D01*
X22600000Y-5029476D01*
X22602903Y-5000000D01*
X22600000Y-4970524D01*
X22600000Y-4940905D01*
X22594222Y-4911859D01*
X22591319Y-4882379D01*
X22582719Y-4854030D01*
X22576942Y-4824986D01*
X22565609Y-4797625D01*
X22557010Y-4769279D01*
X22543048Y-4743158D01*
X22531713Y-4715793D01*
X22515255Y-4691162D01*
X22501295Y-4665045D01*
X22482508Y-4642152D01*
X22466050Y-4617522D01*
X22382478Y-4533950D01*
X18500000Y-651473D01*
X18500000Y-640905D01*
X18494221Y-611852D01*
X18491318Y-582379D01*
X18482721Y-554037D01*
X18476942Y-524986D01*
X18465608Y-497623D01*
X18457010Y-469279D01*
X18443047Y-443156D01*
X18431713Y-415793D01*
X18415259Y-391168D01*
X18401296Y-365045D01*
X18382504Y-342147D01*
X18367071Y-319050D01*
X25632929Y-319050D01*
X25617496Y-342147D01*
X25598704Y-365045D01*
X25584741Y-391168D01*
X25568287Y-415793D01*
X25556953Y-443156D01*
X25542990Y-469279D01*
X25534392Y-497623D01*
X25523058Y-524986D01*
X25517279Y-554037D01*
X25508682Y-582379D01*
X25505779Y-611852D01*
X25500000Y-640905D01*
X25500000Y-670526D01*
X25497097Y-700000D01*
X25500000Y-729474D01*
X25500000Y-759095D01*
X25505779Y-788148D01*
X25508682Y-817621D01*
X25517279Y-845963D01*
X25523058Y-875014D01*
X25534392Y-902377D01*
X25542990Y-930721D01*
X25556953Y-956844D01*
X25568287Y-984207D01*
X25584741Y-1008832D01*
X25598704Y-1034955D01*
X25617496Y-1057853D01*
X25633950Y-1082478D01*
X25654891Y-1103419D01*
X25673683Y-1126317D01*
X25696581Y-1145109D01*
X25717522Y-1166050D01*
X25742147Y-1182504D01*
X25765045Y-1201296D01*
X25791168Y-1215259D01*
X25815793Y-1231713D01*
X25843156Y-1243047D01*
X25869279Y-1257010D01*
X25897623Y-1265608D01*
X25924986Y-1276942D01*
X25954037Y-1282721D01*
X25982379Y-1291318D01*
X26011852Y-1294221D01*
X26040905Y-1300000D01*
X28151473Y-1300000D01*
X29200000Y-2348528D01*
X29200001Y-4770517D01*
X29197097Y-4800000D01*
X29208682Y-4917620D01*
X29223069Y-4965046D01*
X29242991Y-5030721D01*
X29298705Y-5134955D01*
X29373684Y-5226317D01*
X29396580Y-5245107D01*
X29433949Y-5282477D01*
X29517522Y-5366050D01*
X29542156Y-5382510D01*
X29565046Y-5401295D01*
X29591157Y-5415252D01*
X29615793Y-5431713D01*
X29643166Y-5443051D01*
X29669279Y-5457009D01*
X29697616Y-5465605D01*
X29724986Y-5476942D01*
X29754039Y-5482721D01*
X29782379Y-5491318D01*
X29811852Y-5494221D01*
X29840905Y-5500000D01*
X29870525Y-5500000D01*
X29899999Y-5502903D01*
X29929473Y-5500000D01*
X29959095Y-5500000D01*
X29988149Y-5494221D01*
X30017620Y-5491318D01*
X30045958Y-5482722D01*
X30075014Y-5476942D01*
X30102386Y-5465604D01*
X30130720Y-5457009D01*
X30156831Y-5443053D01*
X30184207Y-5431713D01*
X30208844Y-5415251D01*
X30234954Y-5401295D01*
X30257841Y-5382512D01*
X30282478Y-5366050D01*
X30303429Y-5345099D01*
X30326316Y-5326316D01*
X30345099Y-5303429D01*
X30366050Y-5282478D01*
X30382512Y-5257841D01*
X30401295Y-5234954D01*
X30415251Y-5208844D01*
X30431713Y-5184207D01*
X30443053Y-5156831D01*
X30457009Y-5130720D01*
X30465604Y-5102386D01*
X30476942Y-5075014D01*
X30482722Y-5045958D01*
X30491318Y-5017620D01*
X30494221Y-4988149D01*
X30500000Y-4959095D01*
X30500000Y-4929473D01*
X30502903Y-4899999D01*
X30500000Y-4870525D01*
X30500000Y-4840905D01*
X30494221Y-4811852D01*
X30491318Y-4782379D01*
X30482721Y-4754039D01*
X30476942Y-4724986D01*
X30465605Y-4697616D01*
X30457009Y-4669279D01*
X30443051Y-4643166D01*
X30431713Y-4615793D01*
X30415252Y-4591157D01*
X30401295Y-4565046D01*
X30400000Y-4563468D01*
X30400000Y-2129474D01*
X30402903Y-2100000D01*
X30400000Y-2070526D01*
X30400000Y-2040905D01*
X30394221Y-2011852D01*
X30391318Y-1982379D01*
X30382721Y-1954039D01*
X30376942Y-1924986D01*
X30365608Y-1897623D01*
X30357010Y-1869279D01*
X30343047Y-1843156D01*
X30331713Y-1815793D01*
X30315259Y-1791168D01*
X30301296Y-1765045D01*
X30282504Y-1742147D01*
X30266050Y-1717522D01*
X30245109Y-1696581D01*
X30226317Y-1673683D01*
X30203420Y-1654892D01*
X30182478Y-1633950D01*
X28867577Y-319050D01*
X31680951Y-319050D01*
X31680951Y-12376549D01*
X31200000Y-12376549D01*
X31200000Y-10829465D01*
X31202902Y-10799999D01*
X31200000Y-10770533D01*
X31200000Y-10770526D01*
X31191318Y-10682379D01*
X31157010Y-10569279D01*
X31101296Y-10465045D01*
X31026317Y-10373683D01*
X31003419Y-10354891D01*
X30366052Y-9717525D01*
X30366050Y-9717522D01*
X30282478Y-9633950D01*
X30257842Y-9617489D01*
X30234954Y-9598705D01*
X30208843Y-9584748D01*
X30184207Y-9568287D01*
X30156834Y-9556949D01*
X30130721Y-9542991D01*
X30102384Y-9534395D01*
X30075014Y-9523058D01*
X30045958Y-9517278D01*
X30017620Y-9508682D01*
X29988149Y-9505779D01*
X29959095Y-9500000D01*
X29929474Y-9500000D01*
X29900000Y-9497097D01*
X29870526Y-9500000D01*
X29840905Y-9500000D01*
X29811851Y-9505779D01*
X29782380Y-9508682D01*
X29754042Y-9517278D01*
X29724986Y-9523058D01*
X29697616Y-9534395D01*
X29669279Y-9542991D01*
X29643166Y-9556949D01*
X29615793Y-9568287D01*
X29591157Y-9584748D01*
X29565046Y-9598705D01*
X29542159Y-9617488D01*
X29517522Y-9633950D01*
X29496571Y-9654901D01*
X29473684Y-9673684D01*
X29454901Y-9696571D01*
X29433950Y-9717522D01*
X29417488Y-9742159D01*
X29398705Y-9765046D01*
X29384748Y-9791157D01*
X29368287Y-9815793D01*
X29356949Y-9843166D01*
X29342991Y-9869279D01*
X29334395Y-9897616D01*
X29323058Y-9924986D01*
X29317278Y-9954042D01*
X29308682Y-9982380D01*
X29305779Y-10011851D01*
X29300000Y-10040905D01*
X29300000Y-10070526D01*
X29297097Y-10100000D01*
X29300000Y-10129474D01*
X29300000Y-10159095D01*
X29305779Y-10188149D01*
X29308682Y-10217620D01*
X29317278Y-10245958D01*
X29323058Y-10275014D01*
X29334395Y-10302384D01*
X29342991Y-10330721D01*
X29356949Y-10356834D01*
X29368287Y-10384207D01*
X29384748Y-10408843D01*
X29398705Y-10434954D01*
X29417489Y-10457842D01*
X29433950Y-10482478D01*
X29517522Y-10566050D01*
X29517525Y-10566052D01*
X30000001Y-11048529D01*
X30000000Y-12376549D01*
X29330000Y-12376549D01*
X29271190Y-12382341D01*
X29214640Y-12399496D01*
X29162523Y-12427353D01*
X29116842Y-12464842D01*
X29079353Y-12510523D01*
X29051496Y-12562640D01*
X29034341Y-12619190D01*
X29028549Y-12678000D01*
X29028549Y-12840000D01*
X28759474Y-12840000D01*
X28730000Y-12837097D01*
X28612379Y-12848682D01*
X28499278Y-12882990D01*
X28462971Y-12902397D01*
X28395045Y-12938704D01*
X28303683Y-13013683D01*
X28284891Y-13036581D01*
X27751473Y-13570000D01*
X24859465Y-13570000D01*
X24829999Y-13567098D01*
X24800533Y-13570000D01*
X24800526Y-13570000D01*
X24723640Y-13577573D01*
X24712378Y-13578682D01*
X24678070Y-13589089D01*
X24599279Y-13612990D01*
X24495045Y-13668704D01*
X24403683Y-13743683D01*
X24384887Y-13766586D01*
X24117525Y-14033948D01*
X24117522Y-14033950D01*
X24096581Y-14054891D01*
X24073683Y-14073683D01*
X24054894Y-14096578D01*
X23696581Y-14454892D01*
X23673684Y-14473683D01*
X23598705Y-14565045D01*
X23571580Y-14615793D01*
X23542991Y-14669279D01*
X23508682Y-14782380D01*
X23497097Y-14900000D01*
X23500001Y-14929483D01*
X23500001Y-15102291D01*
X23460065Y-15135065D01*
X23391485Y-15218630D01*
X23340526Y-15313969D01*
X23309145Y-15417417D01*
X23298549Y-15525000D01*
X23298549Y-16475000D01*
X23309145Y-16582583D01*
X23340526Y-16686031D01*
X23391485Y-16781370D01*
X23460065Y-16864935D01*
X23543630Y-16933515D01*
X23638969Y-16984474D01*
X23742417Y-17015855D01*
X23850000Y-17026451D01*
X24350000Y-17026451D01*
X24457583Y-17015855D01*
X24561031Y-16984474D01*
X24656370Y-16933515D01*
X24739935Y-16864935D01*
X24808515Y-16781370D01*
X24838644Y-16725000D01*
X25198548Y-16725000D01*
X25204340Y-16783810D01*
X25221495Y-16840361D01*
X25249352Y-16892478D01*
X25286841Y-16938159D01*
X25332522Y-16975648D01*
X25384639Y-17003505D01*
X25441190Y-17020660D01*
X25500000Y-17026452D01*
X25771000Y-17025000D01*
X25846000Y-16950000D01*
X25846000Y-16154000D01*
X26154000Y-16154000D01*
X26154000Y-16950000D01*
X26229000Y-17025000D01*
X26500000Y-17026452D01*
X26558810Y-17020660D01*
X26615361Y-17003505D01*
X26667478Y-16975648D01*
X26713159Y-16938159D01*
X26750648Y-16892478D01*
X26778505Y-16840361D01*
X26795660Y-16783810D01*
X26799777Y-16742000D01*
X29028548Y-16742000D01*
X29034340Y-16800810D01*
X29051495Y-16857361D01*
X29079352Y-16909478D01*
X29116841Y-16955159D01*
X29162522Y-16992648D01*
X29214639Y-17020505D01*
X29271190Y-17037660D01*
X29330000Y-17043452D01*
X30371000Y-17042000D01*
X30446000Y-16967000D01*
X30446000Y-16134000D01*
X29105000Y-16134000D01*
X29030000Y-16209000D01*
X29028548Y-16742000D01*
X26799777Y-16742000D01*
X26801452Y-16725000D01*
X26800000Y-16229000D01*
X26725000Y-16154000D01*
X26154000Y-16154000D01*
X25846000Y-16154000D01*
X25275000Y-16154000D01*
X25200000Y-16229000D01*
X25198548Y-16725000D01*
X24838644Y-16725000D01*
X24859474Y-16686031D01*
X24890855Y-16582583D01*
X24901451Y-16475000D01*
X24901451Y-15525000D01*
X24890855Y-15417417D01*
X24859474Y-15313969D01*
X24838645Y-15275000D01*
X25198548Y-15275000D01*
X25200000Y-15771000D01*
X25275000Y-15846000D01*
X25846000Y-15846000D01*
X25846000Y-15050000D01*
X26154000Y-15050000D01*
X26154000Y-15846000D01*
X26725000Y-15846000D01*
X26800000Y-15771000D01*
X26801452Y-15275000D01*
X26795660Y-15216190D01*
X26778505Y-15159639D01*
X26750648Y-15107522D01*
X26713159Y-15061841D01*
X26667478Y-15024352D01*
X26615361Y-14996495D01*
X26558810Y-14979340D01*
X26500000Y-14973548D01*
X26229000Y-14975000D01*
X26154000Y-15050000D01*
X25846000Y-15050000D01*
X25771000Y-14975000D01*
X25500000Y-14973548D01*
X25441190Y-14979340D01*
X25384639Y-14996495D01*
X25332522Y-15024352D01*
X25286841Y-15061841D01*
X25249352Y-15107522D01*
X25221495Y-15159639D01*
X25204340Y-15216190D01*
X25198548Y-15275000D01*
X24838645Y-15275000D01*
X24808515Y-15218630D01*
X24739935Y-15135065D01*
X24725395Y-15123132D01*
X24903419Y-14945109D01*
X24926317Y-14926317D01*
X24945109Y-14903419D01*
X24966050Y-14882478D01*
X24966052Y-14882475D01*
X25078527Y-14770000D01*
X27970526Y-14770000D01*
X28000000Y-14772903D01*
X28029474Y-14770000D01*
X28117621Y-14761318D01*
X28230721Y-14727010D01*
X28334955Y-14671296D01*
X28426317Y-14596317D01*
X28445113Y-14573414D01*
X28978528Y-14040000D01*
X29028549Y-14040000D01*
X29028549Y-14202000D01*
X29032630Y-14243433D01*
X29008682Y-14322379D01*
X29006652Y-14342990D01*
X28997097Y-14440000D01*
X29000000Y-14469474D01*
X29000000Y-14659095D01*
X29005779Y-14688149D01*
X29008682Y-14717620D01*
X29017279Y-14745960D01*
X29023058Y-14775014D01*
X29034393Y-14802380D01*
X29042990Y-14830720D01*
X29056951Y-14856839D01*
X29068287Y-14884207D01*
X29084744Y-14908836D01*
X29098704Y-14934954D01*
X29117494Y-14957849D01*
X29133950Y-14982478D01*
X29138521Y-14987049D01*
X29116841Y-15004841D01*
X29079352Y-15050522D01*
X29051495Y-15102639D01*
X29034340Y-15159190D01*
X29028548Y-15218000D01*
X29030000Y-15751000D01*
X29105000Y-15826000D01*
X30446000Y-15826000D01*
X30446000Y-14993000D01*
X30371000Y-14918000D01*
X30110553Y-14917637D01*
X30115259Y-14908832D01*
X30131713Y-14884207D01*
X30143047Y-14856844D01*
X30157010Y-14830721D01*
X30165608Y-14802377D01*
X30176942Y-14775014D01*
X30182721Y-14745963D01*
X30191318Y-14717621D01*
X30193548Y-14694979D01*
X30385076Y-14503451D01*
X31680951Y-14503451D01*
X31680951Y-14916812D01*
X30829000Y-14918000D01*
X30754000Y-14993000D01*
X30754000Y-15826000D01*
X30774000Y-15826000D01*
X30774000Y-16134000D01*
X30754000Y-16134000D01*
X30754000Y-16967000D01*
X30829000Y-17042000D01*
X31680950Y-17043188D01*
X31680950Y-17456549D01*
X29330000Y-17456549D01*
X29271190Y-17462341D01*
X29214640Y-17479496D01*
X29162523Y-17507353D01*
X29116842Y-17544842D01*
X29079353Y-17590523D01*
X29051496Y-17642640D01*
X29034341Y-17699190D01*
X29028549Y-17758000D01*
X29028549Y-19282000D01*
X29034341Y-19340810D01*
X29043126Y-19369768D01*
X26712895Y-21700000D01*
X22331669Y-21700000D01*
X22284207Y-21668287D01*
X22175014Y-21623058D01*
X22059095Y-21600000D01*
X21948528Y-21600000D01*
X22466050Y-21082478D01*
X22482508Y-21057848D01*
X22501295Y-21034955D01*
X22515255Y-21008839D01*
X22531713Y-20984207D01*
X22543049Y-20956839D01*
X22557009Y-20930722D01*
X22565606Y-20902382D01*
X22576942Y-20875014D01*
X22582721Y-20845961D01*
X22591318Y-20817621D01*
X22594221Y-20788148D01*
X22600000Y-20759095D01*
X22600000Y-20729474D01*
X22602903Y-20700000D01*
X22600000Y-20670526D01*
X22600000Y-20640905D01*
X22594221Y-20611851D01*
X22591318Y-20582380D01*
X22582722Y-20554042D01*
X22576942Y-20524986D01*
X22565605Y-20497616D01*
X22557009Y-20469279D01*
X22543051Y-20443166D01*
X22531713Y-20415793D01*
X22515252Y-20391157D01*
X22501295Y-20365046D01*
X22482512Y-20342159D01*
X22466050Y-20317522D01*
X22445099Y-20296571D01*
X22426316Y-20273684D01*
X22403429Y-20254901D01*
X22382478Y-20233950D01*
X22357841Y-20217488D01*
X22334954Y-20198705D01*
X22308843Y-20184748D01*
X22284207Y-20168287D01*
X22256834Y-20156949D01*
X22230721Y-20142991D01*
X22202384Y-20134395D01*
X22175014Y-20123058D01*
X22145958Y-20117278D01*
X22117620Y-20108682D01*
X22088149Y-20105779D01*
X22059095Y-20100000D01*
X22029474Y-20100000D01*
X22000000Y-20097097D01*
X21970526Y-20100000D01*
X21940905Y-20100000D01*
X21911852Y-20105779D01*
X21882379Y-20108682D01*
X21854039Y-20117279D01*
X21824986Y-20123058D01*
X21797618Y-20134394D01*
X21769278Y-20142991D01*
X21743161Y-20156951D01*
X21715793Y-20168287D01*
X21691161Y-20184745D01*
X21665045Y-20198705D01*
X21642152Y-20217492D01*
X21617522Y-20233950D01*
X21596577Y-20254895D01*
X19251473Y-22600000D01*
X14029473Y-22600000D01*
X13999999Y-22597097D01*
X13970525Y-22600000D01*
X13940905Y-22600000D01*
X13911852Y-22605779D01*
X13882379Y-22608682D01*
X13854037Y-22617279D01*
X13824986Y-22623058D01*
X13797623Y-22634392D01*
X13769279Y-22642990D01*
X13743156Y-22656953D01*
X13715793Y-22668287D01*
X13691168Y-22684741D01*
X13665045Y-22698704D01*
X13642147Y-22717496D01*
X13617522Y-22733950D01*
X13596581Y-22754891D01*
X13573683Y-22773683D01*
X13554894Y-22796578D01*
X13533950Y-22817522D01*
X13533948Y-22817525D01*
X13296582Y-23054891D01*
X13273684Y-23073683D01*
X13198705Y-23165045D01*
X13180021Y-23200001D01*
X13142991Y-23269279D01*
X13128966Y-23315514D01*
X13073710Y-23285979D01*
X12960610Y-23251671D01*
X12872463Y-23242989D01*
X12842989Y-23240086D01*
X12813515Y-23242989D01*
X6946484Y-23242989D01*
X6917010Y-23240086D01*
X6799390Y-23251671D01*
X6686290Y-23285979D01*
X6582056Y-23341693D01*
X6490694Y-23416672D01*
X6471902Y-23439570D01*
X5942924Y-23968548D01*
X5515001Y-23968548D01*
X5407418Y-23979144D01*
X5303970Y-24010525D01*
X5208631Y-24061484D01*
X5125066Y-24130064D01*
X5056486Y-24213629D01*
X5005527Y-24308968D01*
X4979429Y-24394999D01*
X2034466Y-24394999D01*
X2005000Y-24392097D01*
X1975534Y-24394999D01*
X1975527Y-24394999D01*
X1887380Y-24403681D01*
X1774280Y-24437989D01*
X1723805Y-24464968D01*
X1715793Y-24468287D01*
X1708583Y-24473105D01*
X1670046Y-24493703D01*
X1636266Y-24521426D01*
X1617522Y-24533950D01*
X1601582Y-24549890D01*
X1578684Y-24568682D01*
X1559895Y-24591577D01*
X1533950Y-24617522D01*
X1517489Y-24642158D01*
X1498705Y-24665046D01*
X1484748Y-24691157D01*
X1468287Y-24715793D01*
X1456949Y-24743166D01*
X1442991Y-24769279D01*
X1434395Y-24797616D01*
X1423058Y-24824986D01*
X1417278Y-24854042D01*
X1408682Y-24882380D01*
X1408482Y-24884413D01*
X1363820Y-24929075D01*
X1344737Y-24944736D01*
X1282255Y-25020871D01*
X1274727Y-25034955D01*
X1235826Y-25107733D01*
X1207235Y-25201983D01*
X1197581Y-25300000D01*
X1200001Y-25324570D01*
X1200000Y-26568331D01*
X1168287Y-26615793D01*
X1123058Y-26724986D01*
X1100000Y-26840905D01*
X1100000Y-26959095D01*
X1123058Y-27075014D01*
X1168287Y-27184207D01*
X1233950Y-27282478D01*
X1317522Y-27366050D01*
X1415793Y-27431713D01*
X1524986Y-27476942D01*
X1640905Y-27500000D01*
X1759095Y-27500000D01*
X1875014Y-27476942D01*
X1984207Y-27431713D01*
X2082478Y-27366050D01*
X2166050Y-27282478D01*
X2231713Y-27184207D01*
X2276942Y-27075014D01*
X2300000Y-26959095D01*
X2300000Y-26840905D01*
X2276942Y-26724986D01*
X2231713Y-26615793D01*
X2200000Y-26568331D01*
X2200000Y-25594999D01*
X4979429Y-25594999D01*
X5005527Y-25681030D01*
X5056486Y-25776369D01*
X5125066Y-25859934D01*
X5208631Y-25928514D01*
X5303970Y-25979473D01*
X5407418Y-26010854D01*
X5515001Y-26021450D01*
X6015001Y-26021450D01*
X6122584Y-26010854D01*
X6226032Y-25979473D01*
X6321371Y-25928514D01*
X6404936Y-25859934D01*
X6473516Y-25776369D01*
X6524475Y-25681030D01*
X6555856Y-25577582D01*
X6566452Y-25469999D01*
X6566452Y-25042075D01*
X6864935Y-24743592D01*
X6865001Y-24765999D01*
X6940001Y-24840999D01*
X7511001Y-24840999D01*
X7511001Y-24820999D01*
X7819001Y-24820999D01*
X7819001Y-24840999D01*
X8390001Y-24840999D01*
X8465001Y-24765999D01*
X8465947Y-24442989D01*
X12594462Y-24442989D01*
X12898549Y-24747077D01*
X12898549Y-25175000D01*
X12909145Y-25282583D01*
X12940526Y-25386031D01*
X12991485Y-25481370D01*
X13060065Y-25564935D01*
X13143630Y-25633515D01*
X13238969Y-25684474D01*
X13342417Y-25715855D01*
X13450000Y-25726451D01*
X13950000Y-25726451D01*
X14057583Y-25715855D01*
X14161031Y-25684474D01*
X14256370Y-25633515D01*
X14339935Y-25564935D01*
X14408515Y-25481370D01*
X14438644Y-25425000D01*
X14798548Y-25425000D01*
X14804340Y-25483810D01*
X14821495Y-25540361D01*
X14849352Y-25592478D01*
X14886841Y-25638159D01*
X14932522Y-25675648D01*
X14984639Y-25703505D01*
X15041190Y-25720660D01*
X15100000Y-25726452D01*
X15371000Y-25725000D01*
X15446000Y-25650000D01*
X15446000Y-24854000D01*
X15754000Y-24854000D01*
X15754000Y-25650000D01*
X15829000Y-25725000D01*
X16100000Y-25726452D01*
X16158810Y-25720660D01*
X16215361Y-25703505D01*
X16267478Y-25675648D01*
X16313159Y-25638159D01*
X16350648Y-25592478D01*
X16378505Y-25540361D01*
X16395660Y-25483810D01*
X16401452Y-25425000D01*
X16400000Y-24929000D01*
X16325000Y-24854000D01*
X15754000Y-24854000D01*
X15446000Y-24854000D01*
X14875000Y-24854000D01*
X14800000Y-24929000D01*
X14798548Y-25425000D01*
X14438644Y-25425000D01*
X14459474Y-25386031D01*
X14490855Y-25282583D01*
X14501451Y-25175000D01*
X14501451Y-24225000D01*
X14490855Y-24117417D01*
X14459474Y-24013969D01*
X14408515Y-23918630D01*
X14339935Y-23835065D01*
X14300000Y-23802291D01*
X14300000Y-23800000D01*
X14855525Y-23800000D01*
X14849352Y-23807522D01*
X14821495Y-23859639D01*
X14804340Y-23916190D01*
X14798548Y-23975000D01*
X14800000Y-24471000D01*
X14875000Y-24546000D01*
X15446000Y-24546000D01*
X15446000Y-24526000D01*
X15754000Y-24526000D01*
X15754000Y-24546000D01*
X16325000Y-24546000D01*
X16400000Y-24471000D01*
X16401452Y-23975000D01*
X16395660Y-23916190D01*
X16378505Y-23859639D01*
X16350648Y-23807522D01*
X16344475Y-23800000D01*
X19470526Y-23800000D01*
X19500000Y-23802903D01*
X19529474Y-23800000D01*
X19617621Y-23791318D01*
X19730721Y-23757010D01*
X19834955Y-23701296D01*
X19926317Y-23626317D01*
X19945113Y-23603414D01*
X21400000Y-22148528D01*
X21400000Y-22259095D01*
X21423058Y-22375014D01*
X21468287Y-22484207D01*
X21533950Y-22582478D01*
X21617522Y-22666050D01*
X21715793Y-22731713D01*
X21824986Y-22776942D01*
X21940905Y-22800000D01*
X22059095Y-22800000D01*
X22175014Y-22776942D01*
X22284207Y-22731713D01*
X22331669Y-22700000D01*
X26895440Y-22700000D01*
X26920000Y-22702419D01*
X26944560Y-22700000D01*
X27018017Y-22692765D01*
X27112267Y-22664175D01*
X27199129Y-22617746D01*
X27275264Y-22555264D01*
X27290929Y-22536176D01*
X30243655Y-19583451D01*
X31680950Y-19583451D01*
X31680950Y-31680950D01*
X319050Y-31680950D01*
X319050Y-30440905D01*
X1900000Y-30440905D01*
X1900000Y-30559095D01*
X1923058Y-30675014D01*
X1968287Y-30784207D01*
X2033950Y-30882478D01*
X2117522Y-30966050D01*
X2215793Y-31031713D01*
X2324986Y-31076942D01*
X2440905Y-31100000D01*
X2559095Y-31100000D01*
X2675014Y-31076942D01*
X2784207Y-31031713D01*
X2882478Y-30966050D01*
X2966050Y-30882478D01*
X3031713Y-30784207D01*
X3076942Y-30675014D01*
X3088079Y-30619026D01*
X6107105Y-27600000D01*
X17347097Y-27600000D01*
X17350000Y-27629474D01*
X17350000Y-27659095D01*
X17355779Y-27688149D01*
X17358682Y-27717620D01*
X17367278Y-27745958D01*
X17373058Y-27775014D01*
X17384395Y-27802384D01*
X17392991Y-27830721D01*
X17406949Y-27856834D01*
X17418287Y-27884207D01*
X17434748Y-27908843D01*
X17448705Y-27934954D01*
X17467489Y-27957842D01*
X17483950Y-27982478D01*
X17567522Y-28066050D01*
X17567525Y-28066052D01*
X18950000Y-29448528D01*
X18950000Y-29659095D01*
X18955779Y-29688149D01*
X18958682Y-29717620D01*
X18967279Y-29745960D01*
X18973058Y-29775014D01*
X18984393Y-29802380D01*
X18992990Y-29830720D01*
X19006951Y-29856839D01*
X19018287Y-29884207D01*
X19034744Y-29908836D01*
X19048704Y-29934954D01*
X19067494Y-29957849D01*
X19083950Y-29982478D01*
X19104892Y-30003420D01*
X19123683Y-30026317D01*
X19146581Y-30045109D01*
X19167522Y-30066050D01*
X19192147Y-30082504D01*
X19215045Y-30101296D01*
X19241168Y-30115259D01*
X19265793Y-30131713D01*
X19293156Y-30143047D01*
X19319279Y-30157010D01*
X19347623Y-30165608D01*
X19374986Y-30176942D01*
X19404037Y-30182721D01*
X19432379Y-30191318D01*
X19461852Y-30194221D01*
X19490905Y-30200000D01*
X19520526Y-30200000D01*
X19550000Y-30202903D01*
X19579474Y-30200000D01*
X19609095Y-30200000D01*
X19638149Y-30194221D01*
X19667620Y-30191318D01*
X19695960Y-30182721D01*
X19725014Y-30176942D01*
X19752380Y-30165607D01*
X19780720Y-30157010D01*
X19806839Y-30143049D01*
X19834207Y-30131713D01*
X19858836Y-30115256D01*
X19884954Y-30101296D01*
X19907849Y-30082506D01*
X19932478Y-30066050D01*
X19953420Y-30045108D01*
X19976317Y-30026317D01*
X19995109Y-30003419D01*
X20016050Y-29982478D01*
X20032504Y-29957853D01*
X20051296Y-29934955D01*
X20065259Y-29908832D01*
X20081713Y-29884207D01*
X20093047Y-29856844D01*
X20107010Y-29830721D01*
X20115608Y-29802377D01*
X20126942Y-29775014D01*
X20132721Y-29745963D01*
X20141318Y-29717621D01*
X20144221Y-29688148D01*
X20150000Y-29659095D01*
X20150000Y-29229474D01*
X20152903Y-29200000D01*
X20141318Y-29082379D01*
X20107010Y-28969279D01*
X20051296Y-28865045D01*
X19976317Y-28773683D01*
X19953419Y-28754891D01*
X18648528Y-27450000D01*
X21347097Y-27450000D01*
X21350000Y-27479474D01*
X21350000Y-27509095D01*
X21355779Y-27538148D01*
X21358682Y-27567621D01*
X21367279Y-27595963D01*
X21373058Y-27625014D01*
X21384392Y-27652377D01*
X21392990Y-27680721D01*
X21406953Y-27706844D01*
X21418287Y-27734207D01*
X21434741Y-27758832D01*
X21448704Y-27784955D01*
X21467496Y-27807853D01*
X21483950Y-27832478D01*
X21504891Y-27853419D01*
X21523683Y-27876317D01*
X21546581Y-27895109D01*
X21567522Y-27916050D01*
X21592147Y-27932504D01*
X21615045Y-27951296D01*
X21641168Y-27965259D01*
X21665793Y-27981713D01*
X21693156Y-27993047D01*
X21719279Y-28007010D01*
X21747623Y-28015608D01*
X21774986Y-28026942D01*
X21804037Y-28032721D01*
X21832379Y-28041318D01*
X21861852Y-28044221D01*
X21890905Y-28050000D01*
X22420526Y-28050000D01*
X22450000Y-28052903D01*
X22479474Y-28050000D01*
X22567621Y-28041318D01*
X22680721Y-28007010D01*
X22784955Y-27951296D01*
X22876317Y-27876317D01*
X22895113Y-27853414D01*
X23922077Y-26826451D01*
X24350000Y-26826451D01*
X24457583Y-26815855D01*
X24561031Y-26784474D01*
X24656370Y-26733515D01*
X24739935Y-26664935D01*
X24808515Y-26581370D01*
X24838644Y-26525000D01*
X25198548Y-26525000D01*
X25204340Y-26583810D01*
X25221495Y-26640361D01*
X25249352Y-26692478D01*
X25286841Y-26738159D01*
X25332522Y-26775648D01*
X25384639Y-26803505D01*
X25441190Y-26820660D01*
X25500000Y-26826452D01*
X25771000Y-26825000D01*
X25846000Y-26750000D01*
X25846000Y-25954000D01*
X26154000Y-25954000D01*
X26154000Y-26750000D01*
X26229000Y-26825000D01*
X26500000Y-26826452D01*
X26558810Y-26820660D01*
X26615361Y-26803505D01*
X26667478Y-26775648D01*
X26713159Y-26738159D01*
X26750648Y-26692478D01*
X26778505Y-26640361D01*
X26795660Y-26583810D01*
X26801452Y-26525000D01*
X26800000Y-26029000D01*
X26725000Y-25954000D01*
X26154000Y-25954000D01*
X25846000Y-25954000D01*
X25275000Y-25954000D01*
X25200000Y-26029000D01*
X25198548Y-26525000D01*
X24838644Y-26525000D01*
X24859474Y-26486031D01*
X24890855Y-26382583D01*
X24901451Y-26275000D01*
X24901451Y-25325000D01*
X24890855Y-25217417D01*
X24859474Y-25113969D01*
X24838645Y-25075000D01*
X25198548Y-25075000D01*
X25200000Y-25571000D01*
X25275000Y-25646000D01*
X25846000Y-25646000D01*
X25846000Y-24850000D01*
X26154000Y-24850000D01*
X26154000Y-25646000D01*
X26725000Y-25646000D01*
X26800000Y-25571000D01*
X26801452Y-25075000D01*
X26795660Y-25016190D01*
X26778505Y-24959639D01*
X26750648Y-24907522D01*
X26713159Y-24861841D01*
X26667478Y-24824352D01*
X26615361Y-24796495D01*
X26558810Y-24779340D01*
X26500000Y-24773548D01*
X26229000Y-24775000D01*
X26154000Y-24850000D01*
X25846000Y-24850000D01*
X25771000Y-24775000D01*
X25500000Y-24773548D01*
X25441190Y-24779340D01*
X25384639Y-24796495D01*
X25332522Y-24824352D01*
X25286841Y-24861841D01*
X25249352Y-24907522D01*
X25221495Y-24959639D01*
X25204340Y-25016190D01*
X25198548Y-25075000D01*
X24838645Y-25075000D01*
X24808515Y-25018630D01*
X24739935Y-24935065D01*
X24656370Y-24866485D01*
X24561031Y-24815526D01*
X24457583Y-24784145D01*
X24350000Y-24773549D01*
X23850000Y-24773549D01*
X23742417Y-24784145D01*
X23638969Y-24815526D01*
X23543630Y-24866485D01*
X23460065Y-24935065D01*
X23391485Y-25018630D01*
X23340526Y-25113969D01*
X23309145Y-25217417D01*
X23298549Y-25325000D01*
X23298549Y-25752922D01*
X22201473Y-26850000D01*
X21890905Y-26850000D01*
X21861852Y-26855779D01*
X21832379Y-26858682D01*
X21804037Y-26867279D01*
X21774986Y-26873058D01*
X21747623Y-26884392D01*
X21719279Y-26892990D01*
X21693156Y-26906953D01*
X21665793Y-26918287D01*
X21641168Y-26934741D01*
X21615045Y-26948704D01*
X21592147Y-26967496D01*
X21567522Y-26983950D01*
X21546581Y-27004891D01*
X21523683Y-27023683D01*
X21504894Y-27046578D01*
X21483950Y-27067522D01*
X21467496Y-27092147D01*
X21448704Y-27115045D01*
X21434741Y-27141168D01*
X21418287Y-27165793D01*
X21406953Y-27193156D01*
X21392990Y-27219279D01*
X21384392Y-27247623D01*
X21373058Y-27274986D01*
X21367279Y-27304037D01*
X21358682Y-27332379D01*
X21355779Y-27361852D01*
X21350000Y-27390905D01*
X21350000Y-27420526D01*
X21347097Y-27450000D01*
X18648528Y-27450000D01*
X18416052Y-27217525D01*
X18416050Y-27217522D01*
X18332478Y-27133950D01*
X18307842Y-27117489D01*
X18284954Y-27098705D01*
X18258843Y-27084748D01*
X18234207Y-27068287D01*
X18206834Y-27056949D01*
X18180721Y-27042991D01*
X18152384Y-27034395D01*
X18125014Y-27023058D01*
X18095958Y-27017278D01*
X18067620Y-27008682D01*
X18038149Y-27005779D01*
X18009095Y-27000000D01*
X17979474Y-27000000D01*
X17950000Y-26997097D01*
X17920526Y-27000000D01*
X17890905Y-27000000D01*
X17861851Y-27005779D01*
X17832380Y-27008682D01*
X17804042Y-27017278D01*
X17774986Y-27023058D01*
X17747616Y-27034395D01*
X17719279Y-27042991D01*
X17693166Y-27056949D01*
X17665793Y-27068287D01*
X17641157Y-27084748D01*
X17615046Y-27098705D01*
X17592159Y-27117488D01*
X17567522Y-27133950D01*
X17546571Y-27154901D01*
X17523684Y-27173684D01*
X17504901Y-27196571D01*
X17483950Y-27217522D01*
X17467488Y-27242159D01*
X17448705Y-27265046D01*
X17434748Y-27291157D01*
X17418287Y-27315793D01*
X17406949Y-27343166D01*
X17392991Y-27369279D01*
X17384395Y-27397616D01*
X17373058Y-27424986D01*
X17367278Y-27454042D01*
X17358682Y-27482380D01*
X17355779Y-27511851D01*
X17350000Y-27540905D01*
X17350000Y-27570526D01*
X17347097Y-27600000D01*
X6107105Y-27600000D01*
X6934107Y-26772999D01*
X20641330Y-26772999D01*
X20688792Y-26804712D01*
X20797985Y-26849941D01*
X20913904Y-26872999D01*
X21032094Y-26872999D01*
X21148013Y-26849941D01*
X21257206Y-26804712D01*
X21355477Y-26739049D01*
X21439049Y-26655477D01*
X21504712Y-26557206D01*
X21549941Y-26448013D01*
X21572999Y-26332094D01*
X21572999Y-26213904D01*
X21549941Y-26097985D01*
X21504712Y-25988792D01*
X21439049Y-25890521D01*
X21355477Y-25806949D01*
X21257206Y-25741286D01*
X21148013Y-25696057D01*
X21032094Y-25672999D01*
X20913904Y-25672999D01*
X20797985Y-25696057D01*
X20688792Y-25741286D01*
X20641330Y-25772999D01*
X8461233Y-25772999D01*
X8466453Y-25719999D01*
X8465001Y-25223999D01*
X8390001Y-25148999D01*
X7819001Y-25148999D01*
X7819001Y-25168999D01*
X7511001Y-25168999D01*
X7511001Y-25148999D01*
X6940001Y-25148999D01*
X6865001Y-25223999D01*
X6863549Y-25719999D01*
X6868769Y-25772999D01*
X6751558Y-25772999D01*
X6727000Y-25770580D01*
X6702442Y-25772999D01*
X6702441Y-25772999D01*
X6628984Y-25780234D01*
X6534734Y-25808824D01*
X6447872Y-25855253D01*
X6371737Y-25917735D01*
X6356076Y-25936818D01*
X2380974Y-29911921D01*
X2324986Y-29923058D01*
X2215793Y-29968287D01*
X2117522Y-30033950D01*
X2033950Y-30117522D01*
X1968287Y-30215793D01*
X1923058Y-30324986D01*
X1900000Y-30440905D01*
X319050Y-30440905D01*
X319050Y-19603451D01*
X800001Y-19603451D01*
X800001Y-19872517D01*
X797097Y-19902000D01*
X808682Y-20019620D01*
X832185Y-20097097D01*
X842991Y-20132721D01*
X898705Y-20236955D01*
X973684Y-20328317D01*
X996581Y-20347109D01*
X2252891Y-21603419D01*
X2271683Y-21626317D01*
X2361466Y-21700000D01*
X2140905Y-21700000D01*
X2111852Y-21705779D01*
X2082379Y-21708682D01*
X2054037Y-21717279D01*
X2024986Y-21723058D01*
X1997623Y-21734392D01*
X1969279Y-21742990D01*
X1943156Y-21756953D01*
X1915793Y-21768287D01*
X1891168Y-21784741D01*
X1865045Y-21798704D01*
X1842147Y-21817496D01*
X1817522Y-21833950D01*
X1796581Y-21854891D01*
X1773683Y-21873683D01*
X1754894Y-21896578D01*
X1733950Y-21917522D01*
X1717496Y-21942147D01*
X1698704Y-21965045D01*
X1684741Y-21991168D01*
X1668287Y-22015793D01*
X1656953Y-22043156D01*
X1642990Y-22069279D01*
X1634392Y-22097623D01*
X1623058Y-22124986D01*
X1617279Y-22154037D01*
X1608682Y-22182379D01*
X1605779Y-22211852D01*
X1600000Y-22240905D01*
X1600000Y-22270526D01*
X1597097Y-22300000D01*
X1600000Y-22329474D01*
X1600000Y-22359095D01*
X1605779Y-22388148D01*
X1608682Y-22417621D01*
X1617279Y-22445963D01*
X1623058Y-22475014D01*
X1634392Y-22502377D01*
X1642990Y-22530721D01*
X1656953Y-22556844D01*
X1668287Y-22584207D01*
X1684741Y-22608832D01*
X1698704Y-22634955D01*
X1717496Y-22657853D01*
X1733950Y-22682478D01*
X1754891Y-22703419D01*
X1773683Y-22726317D01*
X1796581Y-22745109D01*
X1817522Y-22766050D01*
X1842147Y-22782504D01*
X1865045Y-22801296D01*
X1891168Y-22815259D01*
X1915793Y-22831713D01*
X1943156Y-22843047D01*
X1969279Y-22857010D01*
X1997623Y-22865608D01*
X2024986Y-22876942D01*
X2054037Y-22882721D01*
X2082379Y-22891318D01*
X2111852Y-22894221D01*
X2140905Y-22900000D01*
X5370526Y-22900000D01*
X5400000Y-22902903D01*
X5429474Y-22900000D01*
X5517621Y-22891318D01*
X5630721Y-22857010D01*
X5734955Y-22801296D01*
X5826317Y-22726317D01*
X5845113Y-22703414D01*
X5982475Y-22566052D01*
X5982478Y-22566050D01*
X6066050Y-22482478D01*
X6082511Y-22457842D01*
X6101295Y-22434954D01*
X6115252Y-22408842D01*
X6131713Y-22384207D01*
X6143050Y-22356837D01*
X6157010Y-22330720D01*
X6165607Y-22302379D01*
X6176942Y-22275014D01*
X6182721Y-22245962D01*
X6191318Y-22217621D01*
X6194221Y-22188148D01*
X6200000Y-22159095D01*
X6200000Y-22129474D01*
X6202903Y-22100000D01*
X6200000Y-22070526D01*
X6200000Y-22040905D01*
X6194221Y-22011852D01*
X6191318Y-21982379D01*
X6182721Y-21954037D01*
X6176942Y-21924986D01*
X6165608Y-21897623D01*
X6157010Y-21869279D01*
X6143049Y-21843160D01*
X6131713Y-21815793D01*
X6121160Y-21800000D01*
X10370526Y-21800000D01*
X10400000Y-21802903D01*
X10429474Y-21800000D01*
X10517621Y-21791318D01*
X10630721Y-21757010D01*
X10734955Y-21701296D01*
X10826317Y-21626317D01*
X10845113Y-21603414D01*
X11648527Y-20800000D01*
X13397097Y-20800000D01*
X13400000Y-20829474D01*
X13400000Y-20859095D01*
X13405779Y-20888149D01*
X13408682Y-20917620D01*
X13417278Y-20945958D01*
X13423058Y-20975014D01*
X13434395Y-21002384D01*
X13442991Y-21030721D01*
X13456949Y-21056834D01*
X13468287Y-21084207D01*
X13484748Y-21108843D01*
X13498705Y-21134954D01*
X13517488Y-21157841D01*
X13533950Y-21182478D01*
X13554901Y-21203429D01*
X13573684Y-21226316D01*
X13596571Y-21245099D01*
X13617522Y-21266050D01*
X13642159Y-21282512D01*
X13665046Y-21301295D01*
X13691157Y-21315252D01*
X13715793Y-21331713D01*
X13743166Y-21343051D01*
X13769279Y-21357009D01*
X13797616Y-21365605D01*
X13824986Y-21376942D01*
X13854042Y-21382722D01*
X13882380Y-21391318D01*
X13911851Y-21394221D01*
X13940905Y-21400000D01*
X13970526Y-21400000D01*
X14000000Y-21402903D01*
X14029474Y-21400000D01*
X14059095Y-21400000D01*
X14088149Y-21394221D01*
X14117620Y-21391318D01*
X14145958Y-21382722D01*
X14175014Y-21376942D01*
X14202384Y-21365605D01*
X14230721Y-21357009D01*
X14256834Y-21343051D01*
X14284207Y-21331713D01*
X14308843Y-21315252D01*
X14334954Y-21301295D01*
X14357842Y-21282511D01*
X14382478Y-21266050D01*
X14466050Y-21182478D01*
X14466052Y-21182475D01*
X16395105Y-19253424D01*
X16395114Y-19253413D01*
X16487924Y-19160603D01*
X16510827Y-19141807D01*
X16529623Y-19118904D01*
X18445105Y-17203423D01*
X18466050Y-17182478D01*
X18482508Y-17157848D01*
X18501295Y-17134955D01*
X18515256Y-17108837D01*
X18531713Y-17084207D01*
X18543047Y-17056845D01*
X18557010Y-17030722D01*
X18565609Y-17002375D01*
X18576942Y-16975014D01*
X18582721Y-16945964D01*
X18591318Y-16917621D01*
X18594221Y-16888148D01*
X18600000Y-16859095D01*
X18600000Y-16829474D01*
X18602903Y-16800000D01*
X18600000Y-16770526D01*
X18600000Y-16740905D01*
X18594221Y-16711851D01*
X18591318Y-16682380D01*
X18582721Y-16654039D01*
X18576942Y-16624986D01*
X18565608Y-16597622D01*
X18557010Y-16569279D01*
X18543049Y-16543160D01*
X18531713Y-16515793D01*
X18515253Y-16491159D01*
X18501295Y-16465046D01*
X18482512Y-16442159D01*
X18466050Y-16417522D01*
X18445099Y-16396571D01*
X18426316Y-16373684D01*
X18403429Y-16354901D01*
X18382478Y-16333950D01*
X18357841Y-16317488D01*
X18334954Y-16298705D01*
X18308841Y-16284747D01*
X18284207Y-16268287D01*
X18256840Y-16256951D01*
X18230721Y-16242990D01*
X18202378Y-16234392D01*
X18175014Y-16223058D01*
X18145961Y-16217279D01*
X18117620Y-16208682D01*
X18088149Y-16205779D01*
X18059095Y-16200000D01*
X18029474Y-16200000D01*
X18000000Y-16197097D01*
X17970526Y-16200000D01*
X17940905Y-16200000D01*
X17911852Y-16205779D01*
X17882379Y-16208682D01*
X17854036Y-16217279D01*
X17824986Y-16223058D01*
X17797625Y-16234391D01*
X17769278Y-16242990D01*
X17743155Y-16256953D01*
X17715793Y-16268287D01*
X17691163Y-16284744D01*
X17665045Y-16298705D01*
X17642152Y-16317492D01*
X17632821Y-16323727D01*
X17632500Y-16213999D01*
X17557500Y-16138999D01*
X16986500Y-16138999D01*
X16986500Y-16934999D01*
X17001487Y-16949986D01*
X16684510Y-17266962D01*
X16684510Y-17166482D01*
X16687413Y-17137008D01*
X16675828Y-17019388D01*
X16670206Y-17000854D01*
X16656809Y-16956690D01*
X16678500Y-16934999D01*
X16678500Y-16138999D01*
X16107500Y-16138999D01*
X16032500Y-16213999D01*
X16032434Y-16236406D01*
X15733951Y-15937923D01*
X15733951Y-15509999D01*
X15723355Y-15402416D01*
X15691974Y-15298968D01*
X15671145Y-15259999D01*
X16031048Y-15259999D01*
X16032500Y-15755999D01*
X16107500Y-15830999D01*
X16678500Y-15830999D01*
X16678500Y-15034999D01*
X16986500Y-15034999D01*
X16986500Y-15830999D01*
X17557500Y-15830999D01*
X17632500Y-15755999D01*
X17633952Y-15259999D01*
X17628160Y-15201189D01*
X17611005Y-15144638D01*
X17583148Y-15092521D01*
X17545659Y-15046840D01*
X17499978Y-15009351D01*
X17447861Y-14981494D01*
X17391310Y-14964339D01*
X17332500Y-14958547D01*
X17061500Y-14959999D01*
X16986500Y-15034999D01*
X16678500Y-15034999D01*
X16603500Y-14959999D01*
X16332500Y-14958547D01*
X16273690Y-14964339D01*
X16217139Y-14981494D01*
X16165022Y-15009351D01*
X16119341Y-15046840D01*
X16081852Y-15092521D01*
X16053995Y-15144638D01*
X16036840Y-15201189D01*
X16031048Y-15259999D01*
X15671145Y-15259999D01*
X15641015Y-15203629D01*
X15572435Y-15120064D01*
X15488870Y-15051484D01*
X15393531Y-15000525D01*
X15290083Y-14969144D01*
X15182500Y-14958548D01*
X14682500Y-14958548D01*
X14574917Y-14969144D01*
X14471469Y-15000525D01*
X14376130Y-15051484D01*
X14292565Y-15120064D01*
X14223985Y-15203629D01*
X14173026Y-15298968D01*
X14141645Y-15402416D01*
X14131049Y-15509999D01*
X14131049Y-16459999D01*
X14141645Y-16567582D01*
X14173026Y-16671030D01*
X14223985Y-16766369D01*
X14292565Y-16849934D01*
X14376130Y-16918514D01*
X14471469Y-16969473D01*
X14574917Y-17000854D01*
X14682500Y-17011450D01*
X15110423Y-17011450D01*
X15484510Y-17385537D01*
X15484511Y-18466960D01*
X13617525Y-20333948D01*
X13617522Y-20333950D01*
X13533950Y-20417522D01*
X13517489Y-20442158D01*
X13498705Y-20465046D01*
X13484748Y-20491157D01*
X13468287Y-20515793D01*
X13456949Y-20543166D01*
X13442991Y-20569279D01*
X13434395Y-20597616D01*
X13423058Y-20624986D01*
X13417278Y-20654042D01*
X13408682Y-20682380D01*
X13405779Y-20711851D01*
X13400000Y-20740905D01*
X13400000Y-20770526D01*
X13397097Y-20800000D01*
X11648527Y-20800000D01*
X13745105Y-18703424D01*
X13745110Y-18703418D01*
X13766050Y-18682478D01*
X13782506Y-18657849D01*
X13801295Y-18634955D01*
X13815255Y-18608839D01*
X13831713Y-18584207D01*
X13843049Y-18556839D01*
X13857009Y-18530722D01*
X13865606Y-18502381D01*
X13876942Y-18475014D01*
X13882721Y-18445964D01*
X13891318Y-18417622D01*
X13894221Y-18388147D01*
X13900000Y-18359095D01*
X13900000Y-18329475D01*
X13902903Y-18300001D01*
X13900000Y-18270527D01*
X13900000Y-18240905D01*
X13894221Y-18211851D01*
X13891318Y-18182380D01*
X13882722Y-18154042D01*
X13876942Y-18124986D01*
X13865604Y-18097614D01*
X13857009Y-18069280D01*
X13843053Y-18043169D01*
X13831713Y-18015793D01*
X13815251Y-17991156D01*
X13801295Y-17965046D01*
X13782512Y-17942159D01*
X13766050Y-17917522D01*
X13745099Y-17896571D01*
X13726316Y-17873684D01*
X13703429Y-17854901D01*
X13682478Y-17833950D01*
X13657841Y-17817488D01*
X13634954Y-17798705D01*
X13608844Y-17784749D01*
X13584207Y-17768287D01*
X13556831Y-17756947D01*
X13530720Y-17742991D01*
X13502386Y-17734396D01*
X13475014Y-17723058D01*
X13445958Y-17717278D01*
X13417620Y-17708682D01*
X13388149Y-17705779D01*
X13359095Y-17700000D01*
X13329473Y-17700000D01*
X13299999Y-17697097D01*
X13270525Y-17700000D01*
X13240905Y-17700000D01*
X13211853Y-17705779D01*
X13182378Y-17708682D01*
X13154036Y-17717279D01*
X13124986Y-17723058D01*
X13097619Y-17734394D01*
X13069278Y-17742991D01*
X13043161Y-17756951D01*
X13015793Y-17768287D01*
X12991161Y-17784745D01*
X12965045Y-17798705D01*
X12942151Y-17817494D01*
X12917522Y-17833950D01*
X12896582Y-17854890D01*
X12896576Y-17854895D01*
X10151473Y-20600000D01*
X2946528Y-20600000D01*
X2000000Y-19653473D01*
X2000000Y-19603451D01*
X2670000Y-19603451D01*
X2728810Y-19597659D01*
X2785360Y-19580504D01*
X2837477Y-19552647D01*
X2883158Y-19515158D01*
X2920647Y-19469477D01*
X2948504Y-19417360D01*
X2965659Y-19360810D01*
X2971451Y-19302000D01*
X2971451Y-17778000D01*
X2965659Y-17719190D01*
X2948504Y-17662640D01*
X2920647Y-17610523D01*
X2883158Y-17564842D01*
X2837477Y-17527353D01*
X2785360Y-17499496D01*
X2728810Y-17482341D01*
X2670000Y-17476549D01*
X319050Y-17476549D01*
X319050Y-17063188D01*
X1171000Y-17062000D01*
X1246000Y-16987000D01*
X1246000Y-16154000D01*
X1554000Y-16154000D01*
X1554000Y-16987000D01*
X1629000Y-17062000D01*
X2670000Y-17063452D01*
X2728810Y-17057660D01*
X2785361Y-17040505D01*
X2837478Y-17012648D01*
X2883159Y-16975159D01*
X2920648Y-16929478D01*
X2948505Y-16877361D01*
X2965660Y-16820810D01*
X2971452Y-16762000D01*
X2970000Y-16229000D01*
X2895000Y-16154000D01*
X1554000Y-16154000D01*
X1246000Y-16154000D01*
X1226000Y-16154000D01*
X1226000Y-15846000D01*
X1246000Y-15846000D01*
X1246000Y-15013000D01*
X1171000Y-14938000D01*
X319050Y-14936812D01*
X319050Y-14523451D01*
X1400000Y-14523451D01*
X1400000Y-14759095D01*
X1405779Y-14788149D01*
X1408682Y-14817620D01*
X1417279Y-14845960D01*
X1423058Y-14875014D01*
X1434393Y-14902380D01*
X1442990Y-14930720D01*
X1456951Y-14956839D01*
X1468287Y-14984207D01*
X1484744Y-15008836D01*
X1498704Y-15034954D01*
X1517494Y-15057849D01*
X1533950Y-15082478D01*
X1554000Y-15102528D01*
X1554000Y-15846000D01*
X2895000Y-15846000D01*
X2970000Y-15771000D01*
X2971452Y-15238000D01*
X2965660Y-15179190D01*
X2948505Y-15122639D01*
X2920648Y-15070522D01*
X2883159Y-15024841D01*
X2837478Y-14987352D01*
X2785361Y-14959495D01*
X2728810Y-14942340D01*
X2670000Y-14936548D01*
X2553809Y-14936710D01*
X2557010Y-14930721D01*
X2565608Y-14902377D01*
X2576942Y-14875014D01*
X2582721Y-14845963D01*
X2591318Y-14817621D01*
X2594221Y-14788148D01*
X2600000Y-14759095D01*
X2600000Y-14600000D01*
X4851473Y-14600000D01*
X5300001Y-15048529D01*
X5300001Y-15402291D01*
X5260065Y-15435065D01*
X5191485Y-15518630D01*
X5140526Y-15613969D01*
X5109145Y-15717417D01*
X5098549Y-15825000D01*
X5098549Y-16775000D01*
X5109145Y-16882583D01*
X5140526Y-16986031D01*
X5191485Y-17081370D01*
X5260065Y-17164935D01*
X5343630Y-17233515D01*
X5438969Y-17284474D01*
X5542417Y-17315855D01*
X5650000Y-17326451D01*
X6150000Y-17326451D01*
X6257583Y-17315855D01*
X6361031Y-17284474D01*
X6456370Y-17233515D01*
X6539935Y-17164935D01*
X6608515Y-17081370D01*
X6638644Y-17025000D01*
X6998548Y-17025000D01*
X7004340Y-17083810D01*
X7021495Y-17140361D01*
X7049352Y-17192478D01*
X7086841Y-17238159D01*
X7132522Y-17275648D01*
X7184639Y-17303505D01*
X7241190Y-17320660D01*
X7300000Y-17326452D01*
X7571000Y-17325000D01*
X7646000Y-17250000D01*
X7646000Y-16454000D01*
X7954000Y-16454000D01*
X7954000Y-17250000D01*
X8029000Y-17325000D01*
X8300000Y-17326452D01*
X8358810Y-17320660D01*
X8415361Y-17303505D01*
X8467478Y-17275648D01*
X8513159Y-17238159D01*
X8550648Y-17192478D01*
X8578505Y-17140361D01*
X8595660Y-17083810D01*
X8601452Y-17025000D01*
X8600000Y-16529000D01*
X8525000Y-16454000D01*
X7954000Y-16454000D01*
X7646000Y-16454000D01*
X7075000Y-16454000D01*
X7000000Y-16529000D01*
X6998548Y-17025000D01*
X6638644Y-17025000D01*
X6659474Y-16986031D01*
X6690855Y-16882583D01*
X6701451Y-16775000D01*
X6701451Y-15825000D01*
X6690855Y-15717417D01*
X6659474Y-15613969D01*
X6608515Y-15518630D01*
X6593226Y-15500000D01*
X7009251Y-15500000D01*
X7004340Y-15516190D01*
X6998548Y-15575000D01*
X7000000Y-16071000D01*
X7075000Y-16146000D01*
X7646000Y-16146000D01*
X7646000Y-16126000D01*
X7954000Y-16126000D01*
X7954000Y-16146000D01*
X8525000Y-16146000D01*
X8600000Y-16071000D01*
X8600357Y-15948885D01*
X9617522Y-16966050D01*
X9642152Y-16982508D01*
X9665045Y-17001295D01*
X9691162Y-17015255D01*
X9715793Y-17031713D01*
X9743158Y-17043048D01*
X9769279Y-17057010D01*
X9797623Y-17065608D01*
X9824986Y-17076942D01*
X9854037Y-17082721D01*
X9882379Y-17091318D01*
X9911852Y-17094221D01*
X9940905Y-17100000D01*
X9970526Y-17100000D01*
X10000000Y-17102903D01*
X10029474Y-17100000D01*
X10059095Y-17100000D01*
X10088148Y-17094221D01*
X10117621Y-17091318D01*
X10145963Y-17082721D01*
X10175014Y-17076942D01*
X10202377Y-17065608D01*
X10230721Y-17057010D01*
X10256840Y-17043049D01*
X10284207Y-17031713D01*
X10308841Y-17015253D01*
X10334954Y-17001295D01*
X10357844Y-16982510D01*
X10382478Y-16966050D01*
X10403423Y-16945105D01*
X10426317Y-16926317D01*
X10445106Y-16903422D01*
X10466050Y-16882478D01*
X10482510Y-16857844D01*
X10501295Y-16834954D01*
X10515253Y-16808841D01*
X10531713Y-16784207D01*
X10543049Y-16756840D01*
X10557010Y-16730721D01*
X10565608Y-16702377D01*
X10576942Y-16675014D01*
X10582721Y-16645963D01*
X10591318Y-16617621D01*
X10594221Y-16588148D01*
X10600000Y-16559095D01*
X10600000Y-16529474D01*
X10602903Y-16500000D01*
X10600000Y-16470526D01*
X10600000Y-16440905D01*
X10594221Y-16411852D01*
X10591318Y-16382379D01*
X10582721Y-16354037D01*
X10576942Y-16324986D01*
X10565608Y-16297623D01*
X10557010Y-16269279D01*
X10543048Y-16243158D01*
X10531713Y-16215793D01*
X10515255Y-16191162D01*
X10501295Y-16165045D01*
X10482508Y-16142152D01*
X10466050Y-16117522D01*
X10382478Y-16033950D01*
X8845113Y-14496586D01*
X8826317Y-14473683D01*
X8734955Y-14398704D01*
X8630721Y-14342990D01*
X8517621Y-14308682D01*
X8429474Y-14300000D01*
X8400000Y-14297097D01*
X8370526Y-14300000D01*
X6600000Y-14300000D01*
X6600000Y-13800000D01*
X9197097Y-13800000D01*
X9200000Y-13829474D01*
X9200000Y-13859095D01*
X9205779Y-13888148D01*
X9208682Y-13917621D01*
X9217279Y-13945963D01*
X9223058Y-13975014D01*
X9234392Y-14002377D01*
X9242990Y-14030721D01*
X9256953Y-14056844D01*
X9268287Y-14084207D01*
X9284741Y-14108832D01*
X9298704Y-14134955D01*
X9317496Y-14157853D01*
X9333950Y-14182478D01*
X9354891Y-14203419D01*
X9373683Y-14226317D01*
X9396581Y-14245109D01*
X9417522Y-14266050D01*
X9442147Y-14282504D01*
X9465045Y-14301296D01*
X9491168Y-14315259D01*
X9515793Y-14331713D01*
X9543156Y-14343047D01*
X9569279Y-14357010D01*
X9597623Y-14365608D01*
X9624986Y-14376942D01*
X9654037Y-14382721D01*
X9682379Y-14391318D01*
X9711852Y-14394221D01*
X9740905Y-14400000D01*
X10170526Y-14400000D01*
X10200000Y-14402903D01*
X10229474Y-14400000D01*
X10317621Y-14391318D01*
X10430721Y-14357010D01*
X10534955Y-14301296D01*
X10626317Y-14226317D01*
X10645113Y-14203414D01*
X12445105Y-12403424D01*
X12445110Y-12403418D01*
X12466050Y-12382478D01*
X12482506Y-12357849D01*
X12501295Y-12334955D01*
X12515255Y-12308839D01*
X12531713Y-12284207D01*
X12543049Y-12256839D01*
X12557009Y-12230722D01*
X12565606Y-12202381D01*
X12576942Y-12175014D01*
X12582721Y-12145964D01*
X12591318Y-12117622D01*
X12594221Y-12088150D01*
X12600000Y-12059095D01*
X12600000Y-12029467D01*
X12602902Y-12000001D01*
X12600000Y-11970535D01*
X12600000Y-11940905D01*
X12594220Y-11911848D01*
X12591318Y-11882380D01*
X12582722Y-11854042D01*
X12576942Y-11824986D01*
X12565604Y-11797614D01*
X12557009Y-11769280D01*
X12543053Y-11743169D01*
X12531713Y-11715793D01*
X12515251Y-11691156D01*
X12501295Y-11665046D01*
X12482512Y-11642159D01*
X12466050Y-11617522D01*
X12445099Y-11596571D01*
X12426316Y-11573684D01*
X12403429Y-11554901D01*
X12382478Y-11533950D01*
X12357841Y-11517488D01*
X12334954Y-11498705D01*
X12308844Y-11484749D01*
X12284207Y-11468287D01*
X12256831Y-11456947D01*
X12230720Y-11442991D01*
X12202386Y-11434396D01*
X12175014Y-11423058D01*
X12145958Y-11417278D01*
X12117620Y-11408682D01*
X12088152Y-11405780D01*
X12059095Y-11400000D01*
X12029465Y-11400000D01*
X11999999Y-11397098D01*
X11970533Y-11400000D01*
X11940905Y-11400000D01*
X11911850Y-11405779D01*
X11882378Y-11408682D01*
X11854036Y-11417279D01*
X11824986Y-11423058D01*
X11797619Y-11434394D01*
X11769278Y-11442991D01*
X11743161Y-11456951D01*
X11715793Y-11468287D01*
X11691161Y-11484745D01*
X11665045Y-11498705D01*
X11642151Y-11517494D01*
X11617522Y-11533950D01*
X11596582Y-11554890D01*
X11596576Y-11554895D01*
X9951473Y-13200000D01*
X9740905Y-13200000D01*
X9711852Y-13205779D01*
X9682379Y-13208682D01*
X9654037Y-13217279D01*
X9624986Y-13223058D01*
X9597623Y-13234392D01*
X9569279Y-13242990D01*
X9543156Y-13256953D01*
X9515793Y-13268287D01*
X9491168Y-13284741D01*
X9465045Y-13298704D01*
X9442147Y-13317496D01*
X9417522Y-13333950D01*
X9396581Y-13354891D01*
X9373683Y-13373683D01*
X9354894Y-13396578D01*
X9333950Y-13417522D01*
X9317496Y-13442147D01*
X9298704Y-13465045D01*
X9284741Y-13491168D01*
X9268287Y-13515793D01*
X9256953Y-13543156D01*
X9242990Y-13569279D01*
X9234392Y-13597623D01*
X9223058Y-13624986D01*
X9217279Y-13654037D01*
X9208682Y-13682379D01*
X9205779Y-13711852D01*
X9200000Y-13740905D01*
X9200000Y-13770526D01*
X9197097Y-13800000D01*
X6600000Y-13800000D01*
X6600000Y-13129474D01*
X6602903Y-13100000D01*
X6600000Y-13070526D01*
X6600000Y-13040905D01*
X6594221Y-13011852D01*
X6591318Y-12982379D01*
X6582721Y-12954037D01*
X6576942Y-12924986D01*
X6565608Y-12897623D01*
X6557010Y-12869279D01*
X6551346Y-12858682D01*
X6543047Y-12843156D01*
X6531713Y-12815793D01*
X6515259Y-12791168D01*
X6501296Y-12765045D01*
X6482504Y-12742147D01*
X6466050Y-12717522D01*
X6445109Y-12696581D01*
X6426317Y-12673683D01*
X6403419Y-12654891D01*
X6382478Y-12633950D01*
X6357853Y-12617496D01*
X6334955Y-12598704D01*
X6308832Y-12584741D01*
X6284207Y-12568287D01*
X6256844Y-12556953D01*
X6230721Y-12542990D01*
X6202377Y-12534392D01*
X6175014Y-12523058D01*
X6145963Y-12517279D01*
X6117621Y-12508682D01*
X6088148Y-12505779D01*
X6059095Y-12500000D01*
X6029474Y-12500000D01*
X6000000Y-12497097D01*
X5970526Y-12500000D01*
X5940905Y-12500000D01*
X5911852Y-12505779D01*
X5882379Y-12508682D01*
X5854037Y-12517279D01*
X5824986Y-12523058D01*
X5797623Y-12534392D01*
X5769279Y-12542990D01*
X5743158Y-12556952D01*
X5715793Y-12568287D01*
X5691164Y-12584744D01*
X5665046Y-12598704D01*
X5642152Y-12617493D01*
X5617522Y-12633950D01*
X5596577Y-12654895D01*
X5573684Y-12673683D01*
X5554897Y-12696575D01*
X5533950Y-12717522D01*
X5533948Y-12717525D01*
X5391473Y-12860000D01*
X4589474Y-12860000D01*
X4560000Y-12857097D01*
X4530526Y-12860000D01*
X2971451Y-12860000D01*
X2971451Y-12698000D01*
X2965659Y-12639190D01*
X2948504Y-12582640D01*
X2920647Y-12530523D01*
X2883158Y-12484842D01*
X2837477Y-12447353D01*
X2785360Y-12419496D01*
X2728810Y-12402341D01*
X2670000Y-12396549D01*
X2200001Y-12396549D01*
X2200001Y-9548526D01*
X2382475Y-9366052D01*
X2382478Y-9366050D01*
X2466050Y-9282478D01*
X2482509Y-9257846D01*
X2501295Y-9234955D01*
X2515255Y-9208839D01*
X2531713Y-9184207D01*
X2543049Y-9156839D01*
X2557009Y-9130722D01*
X2565606Y-9102382D01*
X2576942Y-9075014D01*
X2582721Y-9045961D01*
X2591318Y-9017621D01*
X2594221Y-8988148D01*
X2600000Y-8959095D01*
X2600000Y-8929475D01*
X2602903Y-8900001D01*
X2600000Y-8870527D01*
X2600000Y-8840905D01*
X2594221Y-8811851D01*
X2591318Y-8782380D01*
X2582722Y-8754042D01*
X2576942Y-8724986D01*
X2565605Y-8697616D01*
X2557009Y-8669279D01*
X2543051Y-8643166D01*
X2531713Y-8615793D01*
X2515252Y-8591157D01*
X2501295Y-8565046D01*
X2482512Y-8542159D01*
X2466050Y-8517522D01*
X2445099Y-8496571D01*
X2426316Y-8473684D01*
X2403429Y-8454901D01*
X2382478Y-8433950D01*
X2357841Y-8417488D01*
X2334954Y-8398705D01*
X2308843Y-8384748D01*
X2284207Y-8368287D01*
X2256834Y-8356949D01*
X2230721Y-8342991D01*
X2202384Y-8334395D01*
X2175014Y-8323058D01*
X2145958Y-8317278D01*
X2117620Y-8308682D01*
X2088149Y-8305779D01*
X2059095Y-8300000D01*
X2029473Y-8300000D01*
X1999999Y-8297097D01*
X1970525Y-8300000D01*
X1940905Y-8300000D01*
X1911852Y-8305779D01*
X1882379Y-8308682D01*
X1854039Y-8317279D01*
X1824986Y-8323058D01*
X1797618Y-8334394D01*
X1769278Y-8342991D01*
X1743161Y-8356951D01*
X1715793Y-8368287D01*
X1691161Y-8384745D01*
X1665045Y-8398705D01*
X1642154Y-8417491D01*
X1617522Y-8433950D01*
X1533950Y-8517522D01*
X1533948Y-8517525D01*
X1196583Y-8854890D01*
X1173685Y-8873682D01*
X1098706Y-8965044D01*
X1070603Y-9017621D01*
X1042992Y-9069278D01*
X1008683Y-9182379D01*
X997098Y-9299999D01*
X1000002Y-9329483D01*
X1000001Y-12396549D01*
X319050Y-12396549D01*
X319050Y-3300000D01*
X997097Y-3300000D01*
X1008682Y-3417620D01*
X1039017Y-3517620D01*
X1042991Y-3530721D01*
X1098705Y-3634955D01*
X1173684Y-3726317D01*
X1196580Y-3745107D01*
X1233949Y-3782477D01*
X1317522Y-3866050D01*
X1342156Y-3882510D01*
X1365046Y-3901295D01*
X1391157Y-3915252D01*
X1415793Y-3931713D01*
X1443166Y-3943051D01*
X1469279Y-3957009D01*
X1497616Y-3965605D01*
X1524986Y-3976942D01*
X1554039Y-3982721D01*
X1582379Y-3991318D01*
X1611852Y-3994221D01*
X1640905Y-4000000D01*
X1670525Y-4000000D01*
X1699999Y-4002903D01*
X1729473Y-4000000D01*
X1759095Y-4000000D01*
X1788149Y-3994221D01*
X1817620Y-3991318D01*
X1845958Y-3982722D01*
X1875014Y-3976942D01*
X1902386Y-3965604D01*
X1930720Y-3957009D01*
X1956831Y-3943053D01*
X1984207Y-3931713D01*
X2008844Y-3915251D01*
X2034954Y-3901295D01*
X2057841Y-3882512D01*
X2082478Y-3866050D01*
X2103429Y-3845099D01*
X2126316Y-3826316D01*
X2145099Y-3803429D01*
X2166050Y-3782478D01*
X2182512Y-3757841D01*
X2201295Y-3734954D01*
X2215251Y-3708844D01*
X2231713Y-3684207D01*
X2243053Y-3656831D01*
X2257009Y-3630720D01*
X2265604Y-3602386D01*
X2276942Y-3575014D01*
X2282722Y-3545958D01*
X2291318Y-3517620D01*
X2294221Y-3488149D01*
X2300000Y-3459095D01*
X2300000Y-3429473D01*
X2302903Y-3399999D01*
X2300000Y-3370525D01*
X2300000Y-3340905D01*
X2294221Y-3311852D01*
X2291318Y-3282379D01*
X2282721Y-3254039D01*
X2276942Y-3224986D01*
X2265605Y-3197616D01*
X2257009Y-3169279D01*
X2243051Y-3143166D01*
X2231713Y-3115793D01*
X2215252Y-3091157D01*
X2201295Y-3065046D01*
X2200000Y-3063468D01*
X2200000Y-1748527D01*
X2627002Y-2175530D01*
X2627001Y-6973489D01*
X2624098Y-7002963D01*
X2627001Y-7032436D01*
X2635683Y-7120583D01*
X2669991Y-7233683D01*
X2725705Y-7337917D01*
X2800684Y-7429280D01*
X2823587Y-7448076D01*
X6278928Y-10903418D01*
X6297720Y-10926316D01*
X6389082Y-11001295D01*
X6444133Y-11030720D01*
X6493316Y-11057009D01*
X6606416Y-11091317D01*
X6724037Y-11102902D01*
X6753511Y-11099999D01*
X12670527Y-11099999D01*
X12700001Y-11102902D01*
X12729475Y-11099999D01*
X12817622Y-11091317D01*
X12930722Y-11057009D01*
X13034956Y-11001295D01*
X13126318Y-10926316D01*
X13145114Y-10903413D01*
X13382475Y-10666052D01*
X13382478Y-10666050D01*
X13466050Y-10582478D01*
X13482511Y-10557842D01*
X13501295Y-10534954D01*
X13515253Y-10508841D01*
X13531713Y-10484207D01*
X13543049Y-10456840D01*
X13557010Y-10430721D01*
X13565608Y-10402377D01*
X13576942Y-10375014D01*
X13582721Y-10345963D01*
X13591318Y-10317621D01*
X13594221Y-10288148D01*
X13600000Y-10259095D01*
X13600000Y-10229474D01*
X13602903Y-10200000D01*
X13600000Y-10170526D01*
X13600000Y-10140905D01*
X13594221Y-10111852D01*
X13591318Y-10082379D01*
X13582721Y-10054037D01*
X13576942Y-10024986D01*
X13565608Y-9997623D01*
X13557010Y-9969279D01*
X13543049Y-9943160D01*
X13531713Y-9915793D01*
X13515253Y-9891159D01*
X13501295Y-9865046D01*
X13482510Y-9842156D01*
X13466050Y-9817522D01*
X13445106Y-9796578D01*
X13426317Y-9773683D01*
X13403422Y-9754894D01*
X13382478Y-9733950D01*
X13357844Y-9717490D01*
X13334954Y-9698705D01*
X13308841Y-9684747D01*
X13284207Y-9668287D01*
X13256840Y-9656951D01*
X13230721Y-9642990D01*
X13202377Y-9634392D01*
X13175014Y-9623058D01*
X13145963Y-9617279D01*
X13117621Y-9608682D01*
X13088148Y-9605779D01*
X13059095Y-9600000D01*
X13029474Y-9600000D01*
X13000000Y-9597097D01*
X12970526Y-9600000D01*
X12940905Y-9600000D01*
X12911852Y-9605779D01*
X12882379Y-9608682D01*
X12854037Y-9617279D01*
X12824986Y-9623058D01*
X12797623Y-9634392D01*
X12769279Y-9642990D01*
X12743160Y-9656951D01*
X12715793Y-9668287D01*
X12691159Y-9684747D01*
X12665046Y-9698705D01*
X12642158Y-9717489D01*
X12617522Y-9733950D01*
X12533950Y-9817522D01*
X12533948Y-9817525D01*
X12451474Y-9899999D01*
X6972565Y-9899999D01*
X3827001Y-6754436D01*
X3827001Y-6499999D01*
X4963550Y-6499999D01*
X4963550Y-7449999D01*
X4974146Y-7557582D01*
X5005527Y-7661030D01*
X5056486Y-7756369D01*
X5125066Y-7839934D01*
X5208631Y-7908514D01*
X5303970Y-7959473D01*
X5407418Y-7990854D01*
X5515001Y-8001450D01*
X5942924Y-8001450D01*
X6471902Y-8530428D01*
X6490694Y-8553326D01*
X6582056Y-8628305D01*
X6686290Y-8684019D01*
X6799390Y-8718327D01*
X6917010Y-8729912D01*
X6946484Y-8727009D01*
X13726016Y-8727009D01*
X13755490Y-8729912D01*
X13784964Y-8727009D01*
X13873111Y-8718327D01*
X13986211Y-8684019D01*
X14090445Y-8628305D01*
X14181807Y-8553326D01*
X14200603Y-8530423D01*
X14729576Y-8001450D01*
X15157500Y-8001450D01*
X15265083Y-7990854D01*
X15368531Y-7959473D01*
X15463870Y-7908514D01*
X15547435Y-7839934D01*
X15616015Y-7756369D01*
X15646144Y-7699999D01*
X16006048Y-7699999D01*
X16011840Y-7758809D01*
X16028995Y-7815360D01*
X16056852Y-7867477D01*
X16094341Y-7913158D01*
X16140022Y-7950647D01*
X16192139Y-7978504D01*
X16248690Y-7995659D01*
X16307500Y-8001451D01*
X16578500Y-7999999D01*
X16653500Y-7924999D01*
X16653500Y-7128999D01*
X16961500Y-7128999D01*
X16961500Y-7924999D01*
X17036500Y-7999999D01*
X17307500Y-8001451D01*
X17366310Y-7995659D01*
X17422861Y-7978504D01*
X17474978Y-7950647D01*
X17520659Y-7913158D01*
X17558148Y-7867477D01*
X17586005Y-7815360D01*
X17603160Y-7758809D01*
X17608952Y-7699999D01*
X17607500Y-7203999D01*
X17532500Y-7128999D01*
X16961500Y-7128999D01*
X16653500Y-7128999D01*
X16082500Y-7128999D01*
X16007500Y-7203999D01*
X16006048Y-7699999D01*
X15646144Y-7699999D01*
X15666974Y-7661030D01*
X15698355Y-7557582D01*
X15708951Y-7449999D01*
X15708951Y-6499999D01*
X15698355Y-6392416D01*
X15666974Y-6288968D01*
X15646145Y-6249999D01*
X16006048Y-6249999D01*
X16007500Y-6745999D01*
X16082500Y-6820999D01*
X16653500Y-6820999D01*
X16653500Y-6024999D01*
X16961500Y-6024999D01*
X16961500Y-6820999D01*
X17532500Y-6820999D01*
X17607500Y-6745999D01*
X17608952Y-6249999D01*
X17603160Y-6191189D01*
X17586005Y-6134638D01*
X17558148Y-6082521D01*
X17520659Y-6036840D01*
X17474978Y-5999351D01*
X17422861Y-5971494D01*
X17366310Y-5954339D01*
X17307500Y-5948547D01*
X17036500Y-5949999D01*
X16961500Y-6024999D01*
X16653500Y-6024999D01*
X16578500Y-5949999D01*
X16307500Y-5948547D01*
X16248690Y-5954339D01*
X16192139Y-5971494D01*
X16140022Y-5999351D01*
X16094341Y-6036840D01*
X16056852Y-6082521D01*
X16028995Y-6134638D01*
X16011840Y-6191189D01*
X16006048Y-6249999D01*
X15646145Y-6249999D01*
X15616015Y-6193629D01*
X15547435Y-6110064D01*
X15490856Y-6063631D01*
X15464510Y-5976778D01*
X15439225Y-5929474D01*
X15408796Y-5872545D01*
X15333817Y-5781183D01*
X15310919Y-5762391D01*
X14466052Y-4917525D01*
X14466050Y-4917522D01*
X14445109Y-4896581D01*
X14426317Y-4873683D01*
X14403419Y-4854891D01*
X14382478Y-4833950D01*
X14357853Y-4817496D01*
X14334955Y-4798704D01*
X14308832Y-4784741D01*
X14284207Y-4768287D01*
X14256844Y-4756953D01*
X14230721Y-4742990D01*
X14202377Y-4734392D01*
X14175014Y-4723058D01*
X14145963Y-4717279D01*
X14117621Y-4708682D01*
X14088148Y-4705779D01*
X14059095Y-4700000D01*
X14029474Y-4700000D01*
X14000000Y-4697097D01*
X13970526Y-4700000D01*
X13940905Y-4700000D01*
X13911852Y-4705779D01*
X13882379Y-4708682D01*
X13854037Y-4717279D01*
X13824986Y-4723058D01*
X13797623Y-4734392D01*
X13769279Y-4742990D01*
X13743156Y-4756953D01*
X13715793Y-4768287D01*
X13691168Y-4784741D01*
X13665045Y-4798704D01*
X13642147Y-4817496D01*
X13617522Y-4833950D01*
X13596581Y-4854891D01*
X13573683Y-4873683D01*
X13554891Y-4896581D01*
X13533950Y-4917522D01*
X13517496Y-4942147D01*
X13498704Y-4965045D01*
X13484741Y-4991168D01*
X13468287Y-5015793D01*
X13456953Y-5043156D01*
X13442990Y-5069279D01*
X13434392Y-5097623D01*
X13423058Y-5124986D01*
X13417279Y-5154037D01*
X13408682Y-5182379D01*
X13405779Y-5211852D01*
X13400000Y-5240905D01*
X13400000Y-5270526D01*
X13397097Y-5300000D01*
X13400000Y-5329474D01*
X13400000Y-5359095D01*
X13405779Y-5388148D01*
X13408682Y-5417621D01*
X13417279Y-5445963D01*
X13423058Y-5475014D01*
X13434392Y-5502377D01*
X13442990Y-5530721D01*
X13456953Y-5556844D01*
X13468287Y-5584207D01*
X13484741Y-5608832D01*
X13498704Y-5634955D01*
X13517496Y-5657853D01*
X13533950Y-5682478D01*
X13554891Y-5703419D01*
X13573683Y-5726317D01*
X13596581Y-5745109D01*
X13617522Y-5766050D01*
X13617525Y-5766052D01*
X14146260Y-6294788D01*
X14116645Y-6392416D01*
X14106049Y-6499999D01*
X14106049Y-6927922D01*
X13506963Y-7527009D01*
X8465947Y-7527009D01*
X8465001Y-7203999D01*
X8390001Y-7128999D01*
X7819001Y-7128999D01*
X7819001Y-7148999D01*
X7511001Y-7148999D01*
X7511001Y-7128999D01*
X6940001Y-7128999D01*
X6865001Y-7203999D01*
X6864935Y-7226406D01*
X6566452Y-6927923D01*
X6566452Y-6499999D01*
X6555856Y-6392416D01*
X6524475Y-6288968D01*
X6503646Y-6249999D01*
X6863549Y-6249999D01*
X6865001Y-6745999D01*
X6940001Y-6820999D01*
X7511001Y-6820999D01*
X7511001Y-6024999D01*
X7819001Y-6024999D01*
X7819001Y-6820999D01*
X8390001Y-6820999D01*
X8465001Y-6745999D01*
X8466453Y-6249999D01*
X8460661Y-6191189D01*
X8443506Y-6134638D01*
X8415649Y-6082521D01*
X8378160Y-6036840D01*
X8332479Y-5999351D01*
X8280362Y-5971494D01*
X8223811Y-5954339D01*
X8165001Y-5948547D01*
X7894001Y-5949999D01*
X7819001Y-6024999D01*
X7511001Y-6024999D01*
X7436001Y-5949999D01*
X7165001Y-5948547D01*
X7106191Y-5954339D01*
X7049640Y-5971494D01*
X6997523Y-5999351D01*
X6951842Y-6036840D01*
X6914353Y-6082521D01*
X6886496Y-6134638D01*
X6869341Y-6191189D01*
X6863549Y-6249999D01*
X6503646Y-6249999D01*
X6473516Y-6193629D01*
X6404936Y-6110064D01*
X6365001Y-6077290D01*
X6365001Y-5494475D01*
X6367904Y-5465001D01*
X6365001Y-5435527D01*
X6365001Y-5405906D01*
X6359222Y-5376853D01*
X6356319Y-5347380D01*
X6347722Y-5319038D01*
X6341943Y-5289987D01*
X6330609Y-5262624D01*
X6322011Y-5234280D01*
X6308048Y-5208157D01*
X6296714Y-5180794D01*
X6280260Y-5156169D01*
X6266297Y-5130046D01*
X6247505Y-5107148D01*
X6231051Y-5082523D01*
X6210110Y-5061582D01*
X6191318Y-5038684D01*
X6168420Y-5019892D01*
X6148528Y-5000000D01*
X9197097Y-5000000D01*
X9200000Y-5029474D01*
X9200000Y-5959095D01*
X9205779Y-5988149D01*
X9208682Y-6017620D01*
X9217279Y-6045960D01*
X9223058Y-6075014D01*
X9234393Y-6102380D01*
X9242990Y-6130720D01*
X9256951Y-6156839D01*
X9268287Y-6184207D01*
X9284744Y-6208836D01*
X9298704Y-6234954D01*
X9317494Y-6257849D01*
X9333950Y-6282478D01*
X9354892Y-6303420D01*
X9373683Y-6326317D01*
X9396581Y-6345109D01*
X9417522Y-6366050D01*
X9442147Y-6382504D01*
X9465045Y-6401296D01*
X9491168Y-6415259D01*
X9515793Y-6431713D01*
X9543156Y-6443047D01*
X9569279Y-6457010D01*
X9597623Y-6465608D01*
X9624986Y-6476942D01*
X9654037Y-6482721D01*
X9682379Y-6491318D01*
X9711852Y-6494221D01*
X9740905Y-6500000D01*
X9770526Y-6500000D01*
X9800000Y-6502903D01*
X9829474Y-6500000D01*
X9859095Y-6500000D01*
X9888149Y-6494221D01*
X9917620Y-6491318D01*
X9945960Y-6482721D01*
X9975014Y-6476942D01*
X10002380Y-6465607D01*
X10030720Y-6457010D01*
X10056839Y-6443049D01*
X10084207Y-6431713D01*
X10108836Y-6415256D01*
X10134954Y-6401296D01*
X10157849Y-6382506D01*
X10182478Y-6366050D01*
X10203420Y-6345108D01*
X10226317Y-6326317D01*
X10245109Y-6303419D01*
X10266050Y-6282478D01*
X10282504Y-6257853D01*
X10301296Y-6234955D01*
X10315259Y-6208832D01*
X10331713Y-6184207D01*
X10343047Y-6156844D01*
X10357010Y-6130721D01*
X10365608Y-6102377D01*
X10376942Y-6075014D01*
X10382721Y-6045963D01*
X10391318Y-6017621D01*
X10394221Y-5988148D01*
X10400000Y-5959095D01*
X10400000Y-5248527D01*
X12248528Y-3400000D01*
X17097097Y-3400000D01*
X17100000Y-3429474D01*
X17100000Y-3459095D01*
X17105779Y-3488149D01*
X17108682Y-3517620D01*
X17117278Y-3545958D01*
X17123058Y-3575014D01*
X17134395Y-3602384D01*
X17142991Y-3630721D01*
X17156949Y-3656834D01*
X17168287Y-3684207D01*
X17184748Y-3708843D01*
X17198705Y-3734954D01*
X17217489Y-3757842D01*
X17233950Y-3782478D01*
X17317522Y-3866050D01*
X17317525Y-3866052D01*
X20554891Y-7103419D01*
X20573683Y-7126317D01*
X20665045Y-7201296D01*
X20769279Y-7257010D01*
X20882379Y-7291318D01*
X21000000Y-7302903D01*
X21029474Y-7300000D01*
X21751473Y-7300000D01*
X21854887Y-7403414D01*
X21873683Y-7426317D01*
X21965045Y-7501296D01*
X22069279Y-7557010D01*
X22182379Y-7591318D01*
X22299999Y-7602903D01*
X22329473Y-7600000D01*
X23264428Y-7600000D01*
X23290526Y-7686031D01*
X23341485Y-7781370D01*
X23410065Y-7864935D01*
X23493630Y-7933515D01*
X23588969Y-7984474D01*
X23692417Y-8015855D01*
X23800000Y-8026451D01*
X24300000Y-8026451D01*
X24407583Y-8015855D01*
X24511031Y-7984474D01*
X24606370Y-7933515D01*
X24689935Y-7864935D01*
X24758515Y-7781370D01*
X24788644Y-7725000D01*
X25148548Y-7725000D01*
X25154340Y-7783810D01*
X25171495Y-7840361D01*
X25199352Y-7892478D01*
X25236841Y-7938159D01*
X25282522Y-7975648D01*
X25334639Y-8003505D01*
X25391190Y-8020660D01*
X25450000Y-8026452D01*
X25721000Y-8025000D01*
X25796000Y-7950000D01*
X25796000Y-7154000D01*
X26104000Y-7154000D01*
X26104000Y-7950000D01*
X26179000Y-8025000D01*
X26450000Y-8026452D01*
X26508810Y-8020660D01*
X26565361Y-8003505D01*
X26617478Y-7975648D01*
X26663159Y-7938159D01*
X26700648Y-7892478D01*
X26728505Y-7840361D01*
X26745660Y-7783810D01*
X26751452Y-7725000D01*
X26750000Y-7229000D01*
X26675000Y-7154000D01*
X26104000Y-7154000D01*
X25796000Y-7154000D01*
X25225000Y-7154000D01*
X25150000Y-7229000D01*
X25148548Y-7725000D01*
X24788644Y-7725000D01*
X24809474Y-7686031D01*
X24840855Y-7582583D01*
X24851451Y-7475000D01*
X24851451Y-6525000D01*
X24840855Y-6417417D01*
X24809474Y-6313969D01*
X24788645Y-6275000D01*
X25148548Y-6275000D01*
X25150000Y-6771000D01*
X25225000Y-6846000D01*
X25796000Y-6846000D01*
X25796000Y-6050000D01*
X26104000Y-6050000D01*
X26104000Y-6846000D01*
X26675000Y-6846000D01*
X26750000Y-6771000D01*
X26751452Y-6275000D01*
X26745660Y-6216190D01*
X26728505Y-6159639D01*
X26700648Y-6107522D01*
X26663159Y-6061841D01*
X26617478Y-6024352D01*
X26565361Y-5996495D01*
X26508810Y-5979340D01*
X26450000Y-5973548D01*
X26179000Y-5975000D01*
X26104000Y-6050000D01*
X25796000Y-6050000D01*
X25721000Y-5975000D01*
X25450000Y-5973548D01*
X25391190Y-5979340D01*
X25334639Y-5996495D01*
X25282522Y-6024352D01*
X25236841Y-6061841D01*
X25199352Y-6107522D01*
X25171495Y-6159639D01*
X25154340Y-6216190D01*
X25148548Y-6275000D01*
X24788645Y-6275000D01*
X24758515Y-6218630D01*
X24689935Y-6135065D01*
X24606370Y-6066485D01*
X24511031Y-6015526D01*
X24407583Y-5984145D01*
X24300000Y-5973549D01*
X23800000Y-5973549D01*
X23692417Y-5984145D01*
X23588969Y-6015526D01*
X23493630Y-6066485D01*
X23410065Y-6135065D01*
X23341485Y-6218630D01*
X23290526Y-6313969D01*
X23264428Y-6400000D01*
X22548527Y-6400000D01*
X22466052Y-6317525D01*
X22466050Y-6317522D01*
X22445109Y-6296581D01*
X22426317Y-6273683D01*
X22403419Y-6254891D01*
X22382478Y-6233950D01*
X22357853Y-6217496D01*
X22334955Y-6198704D01*
X22308832Y-6184741D01*
X22284207Y-6168287D01*
X22256844Y-6156953D01*
X22230721Y-6142990D01*
X22202377Y-6134392D01*
X22175014Y-6123058D01*
X22145963Y-6117279D01*
X22117621Y-6108682D01*
X22088148Y-6105779D01*
X22059095Y-6100000D01*
X22029474Y-6100000D01*
X22000000Y-6097097D01*
X21970526Y-6100000D01*
X21248528Y-6100000D01*
X18166052Y-3017525D01*
X18166050Y-3017522D01*
X18082478Y-2933950D01*
X18057842Y-2917489D01*
X18034954Y-2898705D01*
X18008843Y-2884748D01*
X17984207Y-2868287D01*
X17956834Y-2856949D01*
X17930721Y-2842991D01*
X17902384Y-2834395D01*
X17875014Y-2823058D01*
X17845958Y-2817278D01*
X17817620Y-2808682D01*
X17788149Y-2805779D01*
X17759095Y-2800000D01*
X17729474Y-2800000D01*
X17700000Y-2797097D01*
X17670526Y-2800000D01*
X17640905Y-2800000D01*
X17611851Y-2805779D01*
X17582380Y-2808682D01*
X17554042Y-2817278D01*
X17524986Y-2823058D01*
X17497616Y-2834395D01*
X17469279Y-2842991D01*
X17443166Y-2856949D01*
X17415793Y-2868287D01*
X17391157Y-2884748D01*
X17365046Y-2898705D01*
X17342159Y-2917488D01*
X17317522Y-2933950D01*
X17296571Y-2954901D01*
X17273684Y-2973684D01*
X17254901Y-2996571D01*
X17233950Y-3017522D01*
X17217488Y-3042159D01*
X17198705Y-3065046D01*
X17184748Y-3091157D01*
X17168287Y-3115793D01*
X17156949Y-3143166D01*
X17142991Y-3169279D01*
X17134395Y-3197616D01*
X17123058Y-3224986D01*
X17117278Y-3254042D01*
X17108682Y-3282380D01*
X17105779Y-3311851D01*
X17100000Y-3340905D01*
X17100000Y-3370526D01*
X17097097Y-3400000D01*
X12248528Y-3400000D01*
X13145105Y-2503424D01*
X13145110Y-2503418D01*
X13166050Y-2482478D01*
X13182506Y-2457849D01*
X13201295Y-2434955D01*
X13215255Y-2408839D01*
X13231713Y-2384207D01*
X13243049Y-2356839D01*
X13257009Y-2330722D01*
X13265606Y-2302381D01*
X13276942Y-2275014D01*
X13282721Y-2245964D01*
X13291318Y-2217622D01*
X13294221Y-2188147D01*
X13300000Y-2159095D01*
X13300000Y-2129475D01*
X13302903Y-2100001D01*
X13300000Y-2070526D01*
X13300000Y-2040905D01*
X13294221Y-2011851D01*
X13291318Y-1982380D01*
X13282722Y-1954042D01*
X13276942Y-1924986D01*
X13265604Y-1897614D01*
X13257009Y-1869280D01*
X13243053Y-1843169D01*
X13231713Y-1815793D01*
X13215251Y-1791156D01*
X13201295Y-1765046D01*
X13182512Y-1742159D01*
X13166050Y-1717522D01*
X13145099Y-1696571D01*
X13126316Y-1673684D01*
X13103429Y-1654901D01*
X13082478Y-1633950D01*
X13057841Y-1617488D01*
X13034954Y-1598705D01*
X13008844Y-1584749D01*
X12984207Y-1568287D01*
X12956831Y-1556947D01*
X12930720Y-1542991D01*
X12902386Y-1534396D01*
X12875014Y-1523058D01*
X12845958Y-1517278D01*
X12817620Y-1508682D01*
X12788149Y-1505779D01*
X12759095Y-1500000D01*
X12729473Y-1500000D01*
X12699999Y-1497097D01*
X12670525Y-1500000D01*
X12640905Y-1500000D01*
X12611853Y-1505779D01*
X12582378Y-1508682D01*
X12554036Y-1517279D01*
X12524986Y-1523058D01*
X12497619Y-1534394D01*
X12469278Y-1542991D01*
X12443161Y-1556951D01*
X12415793Y-1568287D01*
X12391161Y-1584745D01*
X12365045Y-1598705D01*
X12342151Y-1617494D01*
X12317522Y-1633950D01*
X12296582Y-1654890D01*
X12296576Y-1654895D01*
X9396582Y-4554891D01*
X9373684Y-4573683D01*
X9298705Y-4665045D01*
X9275381Y-4708682D01*
X9242991Y-4769279D01*
X9208682Y-4882380D01*
X9197097Y-5000000D01*
X6148528Y-5000000D01*
X6147479Y-4998951D01*
X6122854Y-4982497D01*
X6099956Y-4963705D01*
X6073833Y-4949742D01*
X6049208Y-4933288D01*
X6021845Y-4921954D01*
X5995722Y-4907991D01*
X5967378Y-4899393D01*
X5940015Y-4888059D01*
X5910964Y-4882280D01*
X5882622Y-4873683D01*
X5853149Y-4870780D01*
X5824096Y-4865001D01*
X5794475Y-4865001D01*
X5765001Y-4862098D01*
X5735527Y-4865001D01*
X5705906Y-4865001D01*
X5676853Y-4870780D01*
X5647380Y-4873683D01*
X5619038Y-4882280D01*
X5589987Y-4888059D01*
X5562624Y-4899393D01*
X5534280Y-4907991D01*
X5508157Y-4921954D01*
X5480794Y-4933288D01*
X5456169Y-4949742D01*
X5430046Y-4963705D01*
X5407148Y-4982497D01*
X5382523Y-4998951D01*
X5361582Y-5019892D01*
X5338684Y-5038684D01*
X5319892Y-5061582D01*
X5298951Y-5082523D01*
X5282497Y-5107148D01*
X5263705Y-5130046D01*
X5249742Y-5156169D01*
X5233288Y-5180794D01*
X5221954Y-5208157D01*
X5207991Y-5234280D01*
X5199393Y-5262624D01*
X5188059Y-5289987D01*
X5182280Y-5319038D01*
X5173683Y-5347380D01*
X5170780Y-5376853D01*
X5165001Y-5405906D01*
X5165001Y-5435527D01*
X5162098Y-5465001D01*
X5165001Y-5494475D01*
X5165001Y-5524096D01*
X5165002Y-5524101D01*
X5165002Y-6077290D01*
X5125066Y-6110064D01*
X5056486Y-6193629D01*
X5005527Y-6288968D01*
X4974146Y-6392416D01*
X4963550Y-6499999D01*
X3827001Y-6499999D01*
X3827001Y-1956474D01*
X3829904Y-1927000D01*
X3818319Y-1809380D01*
X3784011Y-1696280D01*
X3728297Y-1592046D01*
X3653318Y-1500684D01*
X3630420Y-1481892D01*
X2866052Y-717525D01*
X2866050Y-717522D01*
X2782478Y-633950D01*
X2757842Y-617489D01*
X2734954Y-598705D01*
X2708843Y-584748D01*
X2684207Y-568287D01*
X2656834Y-556949D01*
X2630721Y-542991D01*
X2602384Y-534395D01*
X2575014Y-523058D01*
X2545958Y-517278D01*
X2517620Y-508682D01*
X2488149Y-505779D01*
X2459095Y-500000D01*
X2429474Y-500000D01*
X2400000Y-497097D01*
X2370526Y-500000D01*
X2340905Y-500000D01*
X2311851Y-505779D01*
X2282380Y-508682D01*
X2254042Y-517278D01*
X2224986Y-523058D01*
X2197616Y-534395D01*
X2169279Y-542991D01*
X2143166Y-556949D01*
X2115793Y-568287D01*
X2091157Y-584748D01*
X2065046Y-598705D01*
X2042159Y-617488D01*
X2017522Y-633950D01*
X2000000Y-651472D01*
X1982478Y-633950D01*
X1957849Y-617494D01*
X1934954Y-598704D01*
X1908836Y-584744D01*
X1884207Y-568287D01*
X1856839Y-556951D01*
X1830720Y-542990D01*
X1802380Y-534393D01*
X1775014Y-523058D01*
X1745960Y-517279D01*
X1717620Y-508682D01*
X1688149Y-505779D01*
X1659095Y-500000D01*
X1629474Y-500000D01*
X1600000Y-497097D01*
X1570526Y-500000D01*
X1540905Y-500000D01*
X1511852Y-505779D01*
X1482379Y-508682D01*
X1454037Y-517279D01*
X1424986Y-523058D01*
X1397623Y-534392D01*
X1369279Y-542990D01*
X1343156Y-556953D01*
X1315793Y-568287D01*
X1291168Y-584741D01*
X1265045Y-598704D01*
X1242147Y-617496D01*
X1217522Y-633950D01*
X1196581Y-654891D01*
X1173683Y-673683D01*
X1154892Y-696580D01*
X1133950Y-717522D01*
X1117494Y-742151D01*
X1098704Y-765046D01*
X1084744Y-791164D01*
X1068287Y-815793D01*
X1056951Y-843161D01*
X1042990Y-869280D01*
X1034393Y-897620D01*
X1023058Y-924986D01*
X1017279Y-954040D01*
X1008682Y-982380D01*
X1005779Y-1011851D01*
X1000000Y-1040905D01*
X1000000Y-1070527D01*
X1000001Y-3270517D01*
X997097Y-3300000D01*
X319050Y-3300000D01*
X319050Y-319050D01*
X9639821Y-319050D01*
X9617522Y-333950D01*
G37*
G04 #@! TD.AperFunction*
M02*
