M48
; DRILL file {KiCad 5.1.9} date Tue Feb  9 21:20:46 2021
; FORMAT={-:-/ absolute / inch / decimal}
; #@! TF.CreationDate,2021-02-09T21:20:46+01:00
; #@! TF.GenerationSoftware,Kicad,Pcbnew,5.1.9
FMAT,2
INCH
T1C0.0118
%
G90
G05
T1
X0.063Y-0.0433
X0.0669Y-0.1339
X0.0669Y-1.0591
X0.0787Y-0.3504
X0.0787Y-0.5787
X0.0787Y-0.9843
X0.0866Y-0.878
X0.0945Y-0.0433
X0.0984Y-0.1142
X0.0984Y-0.4291
X0.0984Y-1.0591
X0.0984Y-1.2008
X0.1339Y-0.7795
X0.2205Y-0.8701
X0.227Y-0.2152
X0.2283Y-0.0787
X0.2362Y-0.5157
X0.2362Y-0.5866
X0.2549Y-1.2156
X0.2707Y-0.062
X0.2707Y-0.377
X0.2707Y-0.6919
X0.2707Y-1.0069
X0.3858Y-0.2323
X0.3858Y-0.5433
X0.3898Y-0.1378
X0.3898Y-0.4528
X0.3898Y-0.7677
X0.3898Y-1.0827
X0.3937Y-0.0315
X0.3937Y-0.6496
X0.4724Y-0.4724
X0.5Y-0.0827
X0.5118Y-0.4016
X0.5236Y-0.7205
X0.5512Y-0.2087
X0.5512Y-0.8189
X0.5512Y-0.9134
X0.5699Y-1.2156
X0.5856Y-0.062
X0.5856Y-0.377
X0.5856Y-0.6919
X0.5856Y-1.0069
X0.6969Y-0.1339
X0.7047Y-0.0276
X0.7067Y-1.0866
X0.7087Y-0.6614
X0.7283Y-0.1142
X0.7283Y-0.4291
X0.7283Y-0.7441
X0.7283Y-1.0591
X0.7697Y-1.1654
X0.8257Y-1.0344
X0.8642Y-1.0807
X0.8661Y-0.1969
X0.8661Y-0.2638
X0.8661Y-0.815
X0.8661Y-0.874
X0.8701Y-1.1299
X0.8701Y-1.1614
X0.8848Y-1.2156
X0.9006Y-0.062
X0.9006Y-0.377
X0.9006Y-0.6919
X0.9006Y-1.0069
X0.9646Y-0.5709
X1.0236Y-0.9724
X1.0276Y-0.0276
X1.0433Y-0.1142
X1.0433Y-0.4291
X1.0433Y-0.7441
X1.0433Y-1.0591
X1.1024Y-0.9409
X1.1654Y-0.5748
X1.1732Y-0.0827
X1.1772Y-0.1929
X1.1772Y-0.3976
X1.1969Y-0.5827
X1.1998Y-1.2156
X1.2156Y-0.062
X1.2156Y-0.377
X1.2156Y-1.0069
T0
M30
