G04 #@! TF.GenerationSoftware,KiCad,Pcbnew,5.1.9*
G04 #@! TF.CreationDate,2021-02-09T21:20:18+01:00*
G04 #@! TF.ProjectId,matrix_ws2812bmini_caps,6d617472-6978-45f7-9773-32383132626d,1*
G04 #@! TF.SameCoordinates,Original*
G04 #@! TF.FileFunction,Legend,Bot*
G04 #@! TF.FilePolarity,Positive*
%FSLAX46Y46*%
G04 Gerber Fmt 4.6, Leading zero omitted, Abs format (unit mm)*
G04 Created by KiCad (PCBNEW 5.1.9) date 2021-02-09 21:20:18*
%MOMM*%
%LPD*%
G01*
G04 APERTURE LIST*
%ADD10C,0.120000*%
%ADD11C,0.150000*%
%ADD12R,2.540000X1.524000*%
G04 APERTURE END LIST*
D10*
X14388748Y-25435000D02*
X14911252Y-25435000D01*
X14388748Y-23965000D02*
X14911252Y-23965000D01*
X6453749Y-6239999D02*
X6976253Y-6239999D01*
X6453749Y-7709999D02*
X6976253Y-7709999D01*
X15621248Y-15249999D02*
X16143752Y-15249999D01*
X15621248Y-16719999D02*
X16143752Y-16719999D01*
X24788748Y-25065000D02*
X25311252Y-25065000D01*
X24788748Y-26535000D02*
X25311252Y-26535000D01*
X6453749Y-24259999D02*
X6976253Y-24259999D01*
X6453749Y-25729999D02*
X6976253Y-25729999D01*
X15596248Y-7709999D02*
X16118752Y-7709999D01*
X15596248Y-6239999D02*
X16118752Y-6239999D01*
X24788748Y-16735000D02*
X25311252Y-16735000D01*
X24788748Y-15265000D02*
X25311252Y-15265000D01*
X24738748Y-6265000D02*
X25261252Y-6265000D01*
X24738748Y-7735000D02*
X25261252Y-7735000D01*
X6588748Y-17035000D02*
X7111252Y-17035000D01*
X6588748Y-15565000D02*
X7111252Y-15565000D01*
D11*
X4082857Y-12872380D02*
X4559047Y-12872380D01*
X4606666Y-13348571D01*
X4559047Y-13300952D01*
X4463809Y-13253333D01*
X4225714Y-13253333D01*
X4130476Y-13300952D01*
X4082857Y-13348571D01*
X4035238Y-13443809D01*
X4035238Y-13681904D01*
X4082857Y-13777142D01*
X4130476Y-13824761D01*
X4225714Y-13872380D01*
X4463809Y-13872380D01*
X4559047Y-13824761D01*
X4606666Y-13777142D01*
X3701904Y-13205714D02*
X3463809Y-13872380D01*
X3225714Y-13205714D01*
X5301904Y-15420000D02*
X5397142Y-15372380D01*
X5540000Y-15372380D01*
X5682857Y-15420000D01*
X5778095Y-15515238D01*
X5825714Y-15610476D01*
X5873333Y-15800952D01*
X5873333Y-15943809D01*
X5825714Y-16134285D01*
X5778095Y-16229523D01*
X5682857Y-16324761D01*
X5540000Y-16372380D01*
X5444761Y-16372380D01*
X5301904Y-16324761D01*
X5254285Y-16277142D01*
X5254285Y-15943809D01*
X5444761Y-15943809D01*
X4825714Y-16372380D02*
X4825714Y-15372380D01*
X4254285Y-16372380D01*
X4254285Y-15372380D01*
X3778095Y-16372380D02*
X3778095Y-15372380D01*
X3540000Y-15372380D01*
X3397142Y-15420000D01*
X3301904Y-15515238D01*
X3254285Y-15610476D01*
X3206666Y-15800952D01*
X3206666Y-15943809D01*
X3254285Y-16134285D01*
X3301904Y-16229523D01*
X3397142Y-16324761D01*
X3540000Y-16372380D01*
X3778095Y-16372380D01*
X5263809Y-18972380D02*
X5263809Y-17972380D01*
X5025714Y-17972380D01*
X4882857Y-18020000D01*
X4787619Y-18115238D01*
X4740000Y-18210476D01*
X4692380Y-18400952D01*
X4692380Y-18543809D01*
X4740000Y-18734285D01*
X4787619Y-18829523D01*
X4882857Y-18924761D01*
X5025714Y-18972380D01*
X5263809Y-18972380D01*
X4263809Y-18972380D02*
X4263809Y-17972380D01*
X3787619Y-18972380D02*
X3787619Y-17972380D01*
X3216190Y-18972380D01*
X3216190Y-17972380D01*
X28082857Y-12852380D02*
X28559047Y-12852380D01*
X28606666Y-13328571D01*
X28559047Y-13280952D01*
X28463809Y-13233333D01*
X28225714Y-13233333D01*
X28130476Y-13280952D01*
X28082857Y-13328571D01*
X28035238Y-13423809D01*
X28035238Y-13661904D01*
X28082857Y-13757142D01*
X28130476Y-13804761D01*
X28225714Y-13852380D01*
X28463809Y-13852380D01*
X28559047Y-13804761D01*
X28606666Y-13757142D01*
X27701904Y-13185714D02*
X27463809Y-13852380D01*
X27225714Y-13185714D01*
X28301904Y-15400000D02*
X28397142Y-15352380D01*
X28540000Y-15352380D01*
X28682857Y-15400000D01*
X28778095Y-15495238D01*
X28825714Y-15590476D01*
X28873333Y-15780952D01*
X28873333Y-15923809D01*
X28825714Y-16114285D01*
X28778095Y-16209523D01*
X28682857Y-16304761D01*
X28540000Y-16352380D01*
X28444761Y-16352380D01*
X28301904Y-16304761D01*
X28254285Y-16257142D01*
X28254285Y-15923809D01*
X28444761Y-15923809D01*
X27825714Y-16352380D02*
X27825714Y-15352380D01*
X27254285Y-16352380D01*
X27254285Y-15352380D01*
X26778095Y-16352380D02*
X26778095Y-15352380D01*
X26540000Y-15352380D01*
X26397142Y-15400000D01*
X26301904Y-15495238D01*
X26254285Y-15590476D01*
X26206666Y-15780952D01*
X26206666Y-15923809D01*
X26254285Y-16114285D01*
X26301904Y-16209523D01*
X26397142Y-16304761D01*
X26540000Y-16352380D01*
X26778095Y-16352380D01*
X28730476Y-18852380D02*
X28730476Y-17852380D01*
X28492380Y-17852380D01*
X28349523Y-17900000D01*
X28254285Y-17995238D01*
X28206666Y-18090476D01*
X28159047Y-18280952D01*
X28159047Y-18423809D01*
X28206666Y-18614285D01*
X28254285Y-18709523D01*
X28349523Y-18804761D01*
X28492380Y-18852380D01*
X28730476Y-18852380D01*
X27540000Y-17852380D02*
X27349523Y-17852380D01*
X27254285Y-17900000D01*
X27159047Y-17995238D01*
X27111428Y-18185714D01*
X27111428Y-18519047D01*
X27159047Y-18709523D01*
X27254285Y-18804761D01*
X27349523Y-18852380D01*
X27540000Y-18852380D01*
X27635238Y-18804761D01*
X27730476Y-18709523D01*
X27778095Y-18519047D01*
X27778095Y-18185714D01*
X27730476Y-17995238D01*
X27635238Y-17900000D01*
X27540000Y-17852380D01*
X26682857Y-17852380D02*
X26682857Y-18661904D01*
X26635238Y-18757142D01*
X26587619Y-18804761D01*
X26492380Y-18852380D01*
X26301904Y-18852380D01*
X26206666Y-18804761D01*
X26159047Y-18757142D01*
X26111428Y-18661904D01*
X26111428Y-17852380D01*
X25778095Y-17852380D02*
X25206666Y-17852380D01*
X25492380Y-18852380D02*
X25492380Y-17852380D01*
X14816666Y-26737142D02*
X14864285Y-26784761D01*
X15007142Y-26832380D01*
X15102380Y-26832380D01*
X15245238Y-26784761D01*
X15340476Y-26689523D01*
X15388095Y-26594285D01*
X15435714Y-26403809D01*
X15435714Y-26260952D01*
X15388095Y-26070476D01*
X15340476Y-25975238D01*
X15245238Y-25880000D01*
X15102380Y-25832380D01*
X15007142Y-25832380D01*
X14864285Y-25880000D01*
X14816666Y-25927619D01*
X13864285Y-26832380D02*
X14435714Y-26832380D01*
X14150000Y-26832380D02*
X14150000Y-25832380D01*
X14245238Y-25975238D01*
X14340476Y-26070476D01*
X14435714Y-26118095D01*
X6881667Y-9012141D02*
X6929286Y-9059760D01*
X7072143Y-9107379D01*
X7167381Y-9107379D01*
X7310239Y-9059760D01*
X7405477Y-8964522D01*
X7453096Y-8869284D01*
X7500715Y-8678808D01*
X7500715Y-8535951D01*
X7453096Y-8345475D01*
X7405477Y-8250237D01*
X7310239Y-8154999D01*
X7167381Y-8107379D01*
X7072143Y-8107379D01*
X6929286Y-8154999D01*
X6881667Y-8202618D01*
X6500715Y-8202618D02*
X6453096Y-8154999D01*
X6357858Y-8107379D01*
X6119762Y-8107379D01*
X6024524Y-8154999D01*
X5976905Y-8202618D01*
X5929286Y-8297856D01*
X5929286Y-8393094D01*
X5976905Y-8535951D01*
X6548334Y-9107379D01*
X5929286Y-9107379D01*
X16049166Y-18022141D02*
X16096785Y-18069760D01*
X16239642Y-18117379D01*
X16334880Y-18117379D01*
X16477738Y-18069760D01*
X16572976Y-17974522D01*
X16620595Y-17879284D01*
X16668214Y-17688808D01*
X16668214Y-17545951D01*
X16620595Y-17355475D01*
X16572976Y-17260237D01*
X16477738Y-17164999D01*
X16334880Y-17117379D01*
X16239642Y-17117379D01*
X16096785Y-17164999D01*
X16049166Y-17212618D01*
X15715833Y-17117379D02*
X15096785Y-17117379D01*
X15430119Y-17498332D01*
X15287261Y-17498332D01*
X15192023Y-17545951D01*
X15144404Y-17593570D01*
X15096785Y-17688808D01*
X15096785Y-17926903D01*
X15144404Y-18022141D01*
X15192023Y-18069760D01*
X15287261Y-18117379D01*
X15572976Y-18117379D01*
X15668214Y-18069760D01*
X15715833Y-18022141D01*
X25216666Y-27837142D02*
X25264285Y-27884761D01*
X25407142Y-27932380D01*
X25502380Y-27932380D01*
X25645238Y-27884761D01*
X25740476Y-27789523D01*
X25788095Y-27694285D01*
X25835714Y-27503809D01*
X25835714Y-27360952D01*
X25788095Y-27170476D01*
X25740476Y-27075238D01*
X25645238Y-26980000D01*
X25502380Y-26932380D01*
X25407142Y-26932380D01*
X25264285Y-26980000D01*
X25216666Y-27027619D01*
X24359523Y-27265714D02*
X24359523Y-27932380D01*
X24597619Y-26884761D02*
X24835714Y-27599047D01*
X24216666Y-27599047D01*
X6881667Y-27032141D02*
X6929286Y-27079760D01*
X7072143Y-27127379D01*
X7167381Y-27127379D01*
X7310239Y-27079760D01*
X7405477Y-26984522D01*
X7453096Y-26889284D01*
X7500715Y-26698808D01*
X7500715Y-26555951D01*
X7453096Y-26365475D01*
X7405477Y-26270237D01*
X7310239Y-26174999D01*
X7167381Y-26127379D01*
X7072143Y-26127379D01*
X6929286Y-26174999D01*
X6881667Y-26222618D01*
X5976905Y-26127379D02*
X6453096Y-26127379D01*
X6500715Y-26603570D01*
X6453096Y-26555951D01*
X6357858Y-26508332D01*
X6119762Y-26508332D01*
X6024524Y-26555951D01*
X5976905Y-26603570D01*
X5929286Y-26698808D01*
X5929286Y-26936903D01*
X5976905Y-27032141D01*
X6024524Y-27079760D01*
X6119762Y-27127379D01*
X6357858Y-27127379D01*
X6453096Y-27079760D01*
X6500715Y-27032141D01*
X16024166Y-9012141D02*
X16071785Y-9059760D01*
X16214642Y-9107379D01*
X16309880Y-9107379D01*
X16452738Y-9059760D01*
X16547976Y-8964522D01*
X16595595Y-8869284D01*
X16643214Y-8678808D01*
X16643214Y-8535951D01*
X16595595Y-8345475D01*
X16547976Y-8250237D01*
X16452738Y-8154999D01*
X16309880Y-8107379D01*
X16214642Y-8107379D01*
X16071785Y-8154999D01*
X16024166Y-8202618D01*
X15167023Y-8107379D02*
X15357500Y-8107379D01*
X15452738Y-8154999D01*
X15500357Y-8202618D01*
X15595595Y-8345475D01*
X15643214Y-8535951D01*
X15643214Y-8916903D01*
X15595595Y-9012141D01*
X15547976Y-9059760D01*
X15452738Y-9107379D01*
X15262261Y-9107379D01*
X15167023Y-9059760D01*
X15119404Y-9012141D01*
X15071785Y-8916903D01*
X15071785Y-8678808D01*
X15119404Y-8583570D01*
X15167023Y-8535951D01*
X15262261Y-8488332D01*
X15452738Y-8488332D01*
X15547976Y-8535951D01*
X15595595Y-8583570D01*
X15643214Y-8678808D01*
X25216666Y-18037142D02*
X25264285Y-18084761D01*
X25407142Y-18132380D01*
X25502380Y-18132380D01*
X25645238Y-18084761D01*
X25740476Y-17989523D01*
X25788095Y-17894285D01*
X25835714Y-17703809D01*
X25835714Y-17560952D01*
X25788095Y-17370476D01*
X25740476Y-17275238D01*
X25645238Y-17180000D01*
X25502380Y-17132380D01*
X25407142Y-17132380D01*
X25264285Y-17180000D01*
X25216666Y-17227619D01*
X24883333Y-17132380D02*
X24216666Y-17132380D01*
X24645238Y-18132380D01*
X25166666Y-9037142D02*
X25214285Y-9084761D01*
X25357142Y-9132380D01*
X25452380Y-9132380D01*
X25595238Y-9084761D01*
X25690476Y-8989523D01*
X25738095Y-8894285D01*
X25785714Y-8703809D01*
X25785714Y-8560952D01*
X25738095Y-8370476D01*
X25690476Y-8275238D01*
X25595238Y-8180000D01*
X25452380Y-8132380D01*
X25357142Y-8132380D01*
X25214285Y-8180000D01*
X25166666Y-8227619D01*
X24595238Y-8560952D02*
X24690476Y-8513333D01*
X24738095Y-8465714D01*
X24785714Y-8370476D01*
X24785714Y-8322857D01*
X24738095Y-8227619D01*
X24690476Y-8180000D01*
X24595238Y-8132380D01*
X24404761Y-8132380D01*
X24309523Y-8180000D01*
X24261904Y-8227619D01*
X24214285Y-8322857D01*
X24214285Y-8370476D01*
X24261904Y-8465714D01*
X24309523Y-8513333D01*
X24404761Y-8560952D01*
X24595238Y-8560952D01*
X24690476Y-8608571D01*
X24738095Y-8656190D01*
X24785714Y-8751428D01*
X24785714Y-8941904D01*
X24738095Y-9037142D01*
X24690476Y-9084761D01*
X24595238Y-9132380D01*
X24404761Y-9132380D01*
X24309523Y-9084761D01*
X24261904Y-9037142D01*
X24214285Y-8941904D01*
X24214285Y-8751428D01*
X24261904Y-8656190D01*
X24309523Y-8608571D01*
X24404761Y-8560952D01*
X7016666Y-18337142D02*
X7064285Y-18384761D01*
X7207142Y-18432380D01*
X7302380Y-18432380D01*
X7445238Y-18384761D01*
X7540476Y-18289523D01*
X7588095Y-18194285D01*
X7635714Y-18003809D01*
X7635714Y-17860952D01*
X7588095Y-17670476D01*
X7540476Y-17575238D01*
X7445238Y-17480000D01*
X7302380Y-17432380D01*
X7207142Y-17432380D01*
X7064285Y-17480000D01*
X7016666Y-17527619D01*
X6540476Y-18432380D02*
X6350000Y-18432380D01*
X6254761Y-18384761D01*
X6207142Y-18337142D01*
X6111904Y-18194285D01*
X6064285Y-18003809D01*
X6064285Y-17622857D01*
X6111904Y-17527619D01*
X6159523Y-17480000D01*
X6254761Y-17432380D01*
X6445238Y-17432380D01*
X6540476Y-17480000D01*
X6588095Y-17527619D01*
X6635714Y-17622857D01*
X6635714Y-17860952D01*
X6588095Y-17956190D01*
X6540476Y-18003809D01*
X6445238Y-18051428D01*
X6254761Y-18051428D01*
X6159523Y-18003809D01*
X6111904Y-17956190D01*
X6064285Y-17860952D01*
%LPC*%
D12*
X1400000Y-13460000D03*
X1400000Y-18540000D03*
X1400000Y-16000000D03*
X30600000Y-13440000D03*
X30600000Y-18520000D03*
X30600000Y-15980000D03*
G36*
G01*
X15100000Y-25175000D02*
X15100000Y-24225000D01*
G75*
G02*
X15350000Y-23975000I250000J0D01*
G01*
X15850000Y-23975000D01*
G75*
G02*
X16100000Y-24225000I0J-250000D01*
G01*
X16100000Y-25175000D01*
G75*
G02*
X15850000Y-25425000I-250000J0D01*
G01*
X15350000Y-25425000D01*
G75*
G02*
X15100000Y-25175000I0J250000D01*
G01*
G37*
G36*
G01*
X13200000Y-25175000D02*
X13200000Y-24225000D01*
G75*
G02*
X13450000Y-23975000I250000J0D01*
G01*
X13950000Y-23975000D01*
G75*
G02*
X14200000Y-24225000I0J-250000D01*
G01*
X14200000Y-25175000D01*
G75*
G02*
X13950000Y-25425000I-250000J0D01*
G01*
X13450000Y-25425000D01*
G75*
G02*
X13200000Y-25175000I0J250000D01*
G01*
G37*
G36*
G01*
X5265001Y-7449999D02*
X5265001Y-6499999D01*
G75*
G02*
X5515001Y-6249999I250000J0D01*
G01*
X6015001Y-6249999D01*
G75*
G02*
X6265001Y-6499999I0J-250000D01*
G01*
X6265001Y-7449999D01*
G75*
G02*
X6015001Y-7699999I-250000J0D01*
G01*
X5515001Y-7699999D01*
G75*
G02*
X5265001Y-7449999I0J250000D01*
G01*
G37*
G36*
G01*
X7165001Y-7449999D02*
X7165001Y-6499999D01*
G75*
G02*
X7415001Y-6249999I250000J0D01*
G01*
X7915001Y-6249999D01*
G75*
G02*
X8165001Y-6499999I0J-250000D01*
G01*
X8165001Y-7449999D01*
G75*
G02*
X7915001Y-7699999I-250000J0D01*
G01*
X7415001Y-7699999D01*
G75*
G02*
X7165001Y-7449999I0J250000D01*
G01*
G37*
G36*
G01*
X14432500Y-16459999D02*
X14432500Y-15509999D01*
G75*
G02*
X14682500Y-15259999I250000J0D01*
G01*
X15182500Y-15259999D01*
G75*
G02*
X15432500Y-15509999I0J-250000D01*
G01*
X15432500Y-16459999D01*
G75*
G02*
X15182500Y-16709999I-250000J0D01*
G01*
X14682500Y-16709999D01*
G75*
G02*
X14432500Y-16459999I0J250000D01*
G01*
G37*
G36*
G01*
X16332500Y-16459999D02*
X16332500Y-15509999D01*
G75*
G02*
X16582500Y-15259999I250000J0D01*
G01*
X17082500Y-15259999D01*
G75*
G02*
X17332500Y-15509999I0J-250000D01*
G01*
X17332500Y-16459999D01*
G75*
G02*
X17082500Y-16709999I-250000J0D01*
G01*
X16582500Y-16709999D01*
G75*
G02*
X16332500Y-16459999I0J250000D01*
G01*
G37*
G36*
G01*
X23600000Y-26275000D02*
X23600000Y-25325000D01*
G75*
G02*
X23850000Y-25075000I250000J0D01*
G01*
X24350000Y-25075000D01*
G75*
G02*
X24600000Y-25325000I0J-250000D01*
G01*
X24600000Y-26275000D01*
G75*
G02*
X24350000Y-26525000I-250000J0D01*
G01*
X23850000Y-26525000D01*
G75*
G02*
X23600000Y-26275000I0J250000D01*
G01*
G37*
G36*
G01*
X25500000Y-26275000D02*
X25500000Y-25325000D01*
G75*
G02*
X25750000Y-25075000I250000J0D01*
G01*
X26250000Y-25075000D01*
G75*
G02*
X26500000Y-25325000I0J-250000D01*
G01*
X26500000Y-26275000D01*
G75*
G02*
X26250000Y-26525000I-250000J0D01*
G01*
X25750000Y-26525000D01*
G75*
G02*
X25500000Y-26275000I0J250000D01*
G01*
G37*
G36*
G01*
X5265001Y-25469999D02*
X5265001Y-24519999D01*
G75*
G02*
X5515001Y-24269999I250000J0D01*
G01*
X6015001Y-24269999D01*
G75*
G02*
X6265001Y-24519999I0J-250000D01*
G01*
X6265001Y-25469999D01*
G75*
G02*
X6015001Y-25719999I-250000J0D01*
G01*
X5515001Y-25719999D01*
G75*
G02*
X5265001Y-25469999I0J250000D01*
G01*
G37*
G36*
G01*
X7165001Y-25469999D02*
X7165001Y-24519999D01*
G75*
G02*
X7415001Y-24269999I250000J0D01*
G01*
X7915001Y-24269999D01*
G75*
G02*
X8165001Y-24519999I0J-250000D01*
G01*
X8165001Y-25469999D01*
G75*
G02*
X7915001Y-25719999I-250000J0D01*
G01*
X7415001Y-25719999D01*
G75*
G02*
X7165001Y-25469999I0J250000D01*
G01*
G37*
G36*
G01*
X16307500Y-7449999D02*
X16307500Y-6499999D01*
G75*
G02*
X16557500Y-6249999I250000J0D01*
G01*
X17057500Y-6249999D01*
G75*
G02*
X17307500Y-6499999I0J-250000D01*
G01*
X17307500Y-7449999D01*
G75*
G02*
X17057500Y-7699999I-250000J0D01*
G01*
X16557500Y-7699999D01*
G75*
G02*
X16307500Y-7449999I0J250000D01*
G01*
G37*
G36*
G01*
X14407500Y-7449999D02*
X14407500Y-6499999D01*
G75*
G02*
X14657500Y-6249999I250000J0D01*
G01*
X15157500Y-6249999D01*
G75*
G02*
X15407500Y-6499999I0J-250000D01*
G01*
X15407500Y-7449999D01*
G75*
G02*
X15157500Y-7699999I-250000J0D01*
G01*
X14657500Y-7699999D01*
G75*
G02*
X14407500Y-7449999I0J250000D01*
G01*
G37*
G36*
G01*
X25500000Y-16475000D02*
X25500000Y-15525000D01*
G75*
G02*
X25750000Y-15275000I250000J0D01*
G01*
X26250000Y-15275000D01*
G75*
G02*
X26500000Y-15525000I0J-250000D01*
G01*
X26500000Y-16475000D01*
G75*
G02*
X26250000Y-16725000I-250000J0D01*
G01*
X25750000Y-16725000D01*
G75*
G02*
X25500000Y-16475000I0J250000D01*
G01*
G37*
G36*
G01*
X23600000Y-16475000D02*
X23600000Y-15525000D01*
G75*
G02*
X23850000Y-15275000I250000J0D01*
G01*
X24350000Y-15275000D01*
G75*
G02*
X24600000Y-15525000I0J-250000D01*
G01*
X24600000Y-16475000D01*
G75*
G02*
X24350000Y-16725000I-250000J0D01*
G01*
X23850000Y-16725000D01*
G75*
G02*
X23600000Y-16475000I0J250000D01*
G01*
G37*
G36*
G01*
X23550000Y-7475000D02*
X23550000Y-6525000D01*
G75*
G02*
X23800000Y-6275000I250000J0D01*
G01*
X24300000Y-6275000D01*
G75*
G02*
X24550000Y-6525000I0J-250000D01*
G01*
X24550000Y-7475000D01*
G75*
G02*
X24300000Y-7725000I-250000J0D01*
G01*
X23800000Y-7725000D01*
G75*
G02*
X23550000Y-7475000I0J250000D01*
G01*
G37*
G36*
G01*
X25450000Y-7475000D02*
X25450000Y-6525000D01*
G75*
G02*
X25700000Y-6275000I250000J0D01*
G01*
X26200000Y-6275000D01*
G75*
G02*
X26450000Y-6525000I0J-250000D01*
G01*
X26450000Y-7475000D01*
G75*
G02*
X26200000Y-7725000I-250000J0D01*
G01*
X25700000Y-7725000D01*
G75*
G02*
X25450000Y-7475000I0J250000D01*
G01*
G37*
G36*
G01*
X7300000Y-16775000D02*
X7300000Y-15825000D01*
G75*
G02*
X7550000Y-15575000I250000J0D01*
G01*
X8050000Y-15575000D01*
G75*
G02*
X8300000Y-15825000I0J-250000D01*
G01*
X8300000Y-16775000D01*
G75*
G02*
X8050000Y-17025000I-250000J0D01*
G01*
X7550000Y-17025000D01*
G75*
G02*
X7300000Y-16775000I0J250000D01*
G01*
G37*
G36*
G01*
X5400000Y-16775000D02*
X5400000Y-15825000D01*
G75*
G02*
X5650000Y-15575000I250000J0D01*
G01*
X6150000Y-15575000D01*
G75*
G02*
X6400000Y-15825000I0J-250000D01*
G01*
X6400000Y-16775000D01*
G75*
G02*
X6150000Y-17025000I-250000J0D01*
G01*
X5650000Y-17025000D01*
G75*
G02*
X5400000Y-16775000I0J250000D01*
G01*
G37*
M02*
